SplineFontDB: 3.0
FontName: Sahel
FullName: Sahel
FamilyName: Sahel
Weight: Regular
Copyright: Copyright (c) 2016 by Saber Rastikerdar. All Rights Reserved.\nBased on DejaVu font.\nNon-Arabic(Latin) glyphs and data are imported from Open Sans font under the Apache License, Version 2.0.
Version: 1.0.0-alpha13
ItalicAngle: 0
UnderlinePosition: -500
UnderlineWidth: 100
Ascent: 1638
Descent: 410
InvalidEm: 0
LayerCount: 2
Layer: 0 1 "Back" 1
Layer: 1 1 "Fore" 0
XUID: [1021 502 1027637223 5453938]
UniqueID: 4028628
UseUniqueID: 1
FSType: 0
OS2Version: 1
OS2_WeightWidthSlopeOnly: 0
OS2_UseTypoMetrics: 1
CreationTime: 1431850356
ModificationTime: 1516898814
PfmFamily: 33
TTFWeight: 400
TTFWidth: 5
LineGap: 0
VLineGap: 0
Panose: 2 11 6 3 3 8 4 2 2 4
OS2TypoAscent: 2200
OS2TypoAOffset: 0
OS2TypoDescent: -1000
OS2TypoDOffset: 0
OS2TypoLinegap: 0
OS2WinAscent: 2200
OS2WinAOffset: 0
OS2WinDescent: 1000
OS2WinDOffset: 0
HheadAscent: 2200
HheadAOffset: 0
HheadDescent: -1000
HheadDOffset: 0
OS2SubXSize: 1331
OS2SubYSize: 1433
OS2SubXOff: 0
OS2SubYOff: 286
OS2SupXSize: 1331
OS2SupYSize: 1433
OS2SupXOff: 0
OS2SupYOff: 983
OS2StrikeYSize: 102
OS2StrikeYPos: 530
OS2CapHeight: 1638
OS2XHeight: 1082
OS2Vendor: '    '
OS2CodePages: 00000041.20080000
OS2UnicodeRanges: 8000200f.80000000.00000008.00000000
Lookup: 1 9 0 "'fina' Terminal Forms in Arabic lookup 9" { "'fina' Terminal Forms in Arabic lookup 9 subtable"  } ['fina' ('arab' <'KUR ' 'SND ' 'URD ' 'dflt' > ) ]
Lookup: 1 9 0 "'medi' Medial Forms in Arabic lookup 11" { "'medi' Medial Forms in Arabic lookup 11 subtable"  } ['medi' ('arab' <'KUR ' 'SND ' 'URD ' 'dflt' > ) ]
Lookup: 1 9 0 "'init' Initial Forms in Arabic lookup 13" { "'init' Initial Forms in Arabic lookup 13 subtable"  } ['init' ('arab' <'KUR ' 'SND ' 'URD ' 'dflt' > ) ]
Lookup: 4 1 1 "'rlig' Required Ligatures in Arabic lookup 14" { "'rlig' Required Ligatures in Arabic lookup 14 subtable"  } ['rlig' ('arab' <'KUR ' 'dflt' > ) ]

StartChar: afii57388
Encoding: 1548 1548 2
Width: 748
VWidth: 3387
GlyphClass: 2
Flags: W
LayerCount: 2
Fore
SplineSet
351.693359375 300.504882812 m 5,0,-1
 378.088867188 296.405273438 l 5,1,2
 484.275390625 278.424804688 484.275390625 278.424804688 498.997070312 184.306640625 c 132,-1,3
 513.71875 90.1884765625 513.71875 90.1884765625 464.587890625 42.1494140625 c 132,-1,4
 415.45703125 -5.8896484375 415.45703125 -5.8896484375 343.662109375 -0.232421875 c 4,5,6
 183.463867188 13.8046875 183.463867188 13.8046875 200.25 211.008789062 c 4,7,8
 221.62890625 466.758789062 221.62890625 466.758789062 493.293945312 630.275390625 c 4,9,10
 527.725585938 651.049804688 527.725585938 651.049804688 539 641.2421875 c 4,11,12
 545.021484375 636.00390625 545.021484375 636.00390625 547.141601562 633.666992188 c 4,13,14
 558.405273438 621.258789062 558.405273438 621.258789062 524.732421875 595.818359375 c 132,-1,15
 491.059570312 570.377929688 491.059570312 570.377929688 466.55859375 543.62109375 c 4,16,17
 341.04296875 406.549804688 341.04296875 406.549804688 351.693359375 300.504882812 c 5,0,-1
EndSplineSet
EndChar

StartChar: uni0615
Encoding: 1557 1557 3
Width: 0
VWidth: 3435
GlyphClass: 4
Flags: W
AnchorPoint: "Anchor-10" 702.381 1945.78 mark 0
AnchorPoint: "Anchor-9" 702.381 1945.78 mark 0
AnchorPoint: "Anchor-1" 554.381 2838.96 basemark 0
AnchorPoint: "Anchor-1" 702.381 1945.78 mark 0
LayerCount: 2
Fore
SplineSet
1069.64410407 2274.33450148 m 0,0,1
 1069.64410407 2358.37224681 1069.64410407 2358.37224681 995.67361221 2358.37224681 c 0,2,3
 874.215133003 2358.37224681 874.215133003 2358.37224681 675.7578125 2118.23925781 c 1,4,-1
 777.056640625 2118.23925781 l 1,5,-1
 777.653105311 2118.23907577 l 2,6,7
 972.449175304 2118.23907577 972.449175304 2118.23907577 1041.34375 2195.97753906 c 0,8,9
 1069.64410407 2227.16850914 1069.64410407 2227.16850914 1069.64410407 2274.33450148 c 0,0,1
727.256835938 2018.17675781 m 2,10,-1
 419.657226562 2017.98730469 l 1,11,-1
 367.364257812 2118.23925781 l 1,12,-1
 504.23828125 2118.23925781 l 1,13,-1
 504.23828125 2789.27636719 l 1,14,-1
 605.983398438 2789.27636719 l 1,15,-1
 605.983398438 2168.59765625 l 1,16,17
 817.569559779 2474.83049235 817.569559779 2474.83049235 997.74482056 2474.83049235 c 0,18,19
 1137.35934558 2474.83049235 1137.35934558 2474.83049235 1164.1484375 2341.31640625 c 0,20,21
 1170.13265857 2311.54283657 1170.13265857 2311.54283657 1170.13265857 2283.97792888 c 0,22,23
 1170.13265857 2181.55204015 1170.13265857 2181.55204015 1087.50717281 2109.62164407 c 0,24,25
 982.64547397 2018.3333029 982.64547397 2018.3333029 727.256835938 2018.17675781 c 2,10,-1
EndSplineSet
EndChar

StartChar: uni061B
Encoding: 1563 1563 4
Width: 748
VWidth: 3387
GlyphClass: 2
Flags: W
LayerCount: 2
Fore
SplineSet
214 158.837890625 m 128,-1,1
 214 215.537109375 214 215.537109375 254.5 256.037109375 c 128,-1,2
 295 296.537109375 295 296.537109375 351.700195312 296.537109375 c 128,-1,3
 408.400390625 296.537109375 408.400390625 296.537109375 449.912109375 257.049804688 c 0,4,5
 489.400390625 215.537109375 489.400390625 215.537109375 489.400390625 158.837890625 c 128,-1,6
 489.400390625 102.137695312 489.400390625 102.137695312 448.900390625 61.6376953125 c 128,-1,7
 408.400390625 21.1376953125 408.400390625 21.1376953125 351.700195312 21.1376953125 c 128,-1,8
 295 21.1376953125 295 21.1376953125 254.5 61.6376953125 c 128,-1,0
 214 102.137695312 214 102.137695312 214 158.837890625 c 128,-1,1
351.692382812 820.504882812 m 5,9,-1
 378.088867188 816.404296875 l 5,10,11
 484 798 484 798 498.99609375 704.306640625 c 4,12,13
 514 610 514 610 464.416015625 561.979492188 c 132,-1,14
 415 514 415 514 339.401367188 520.127929688 c 4,15,16
 183 533 183 533 200.25 731.008789062 c 4,17,18
 222 987 222 987 493.293945312 1150.27441406 c 4,19,20
 528 1171 528 1171 539 1161.2578125 c 4,21,22
 545 1156 545 1156 547.141601562 1153.66699219 c 4,23,24
 558 1141 558 1141 524.728515625 1115.81542969 c 4,25,26
 453 1062 453 1062 398.717773438 976.794921875 c 4,27,28
 345 892 345 892 351.692382812 820.504882812 c 5,9,-1
EndSplineSet
EndChar

StartChar: uni061F
Encoding: 1567 1567 5
Width: 1024
VWidth: 3375
GlyphClass: 2
Flags: W
LayerCount: 2
Fore
SplineSet
433 158.837890625 m 128,-1,1
 433 215.537109375 433 215.537109375 473.5 256.037109375 c 128,-1,2
 514 296.537109375 514 296.537109375 570.700195312 296.537109375 c 128,-1,3
 627.400390625 296.537109375 627.400390625 296.537109375 668.912109375 257.049804688 c 0,4,5
 708.400390625 215.537109375 708.400390625 215.537109375 708.400390625 158.837890625 c 128,-1,6
 708.400390625 102.137695312 708.400390625 102.137695312 667.900390625 61.6376953125 c 128,-1,7
 627.400390625 21.1376953125 627.400390625 21.1376953125 570.700195312 21.1376953125 c 128,-1,8
 514 21.1376953125 514 21.1376953125 473.5 61.6376953125 c 128,-1,0
 433 102.137695312 433 102.137695312 433 158.837890625 c 128,-1,1
540.051757812 516.077148438 m 2,9,10
 513.529296875 516.077148438 513.529296875 516.077148438 513.529296875 543.2421875 c 2,11,-1
 513.529296875 563.87109375 l 6,12,13
 513.998016757 651.628681032 513.998016757 651.628681032 373.383789062 759.024414062 c 6,14,-1
 296.193359375 817.979492188 l 6,15,16
 152 928 152 928 150.665039062 1100.1796875 c 4,17,18
 150 1185 150 1185 181.15625 1253.17578125 c 4,19,20
 212 1321 212 1321 273.763671875 1372.72265625 c 4,21,22
 368 1451 368 1451 515.973632812 1451.18847656 c 4,23,24
 716 1451 716 1451 815.376953125 1312.05664062 c 4,25,26
 873 1231 873 1231 878.436523438 1101.76953125 c 4,27,28
 879 1087 879 1087 878.161132812 1072.50292969 c 4,29,30
 878 1058 878 1058 877.111328125 1044.93261719 c 5,31,-1
 779.184570312 1044.37109375 l 5,32,33
 738 1264 738 1264 527.547851562 1263.82714844 c 4,34,35
 403 1264 403 1264 350.168945312 1181.92773438 c 4,36,37
 326 1145 326 1145 325.96875 1091.19042969 c 4,38,39
 326 1044 326 1044 363.03515625 990.0078125 c 4,40,41
 398.762193298 937.350498202 398.762193298 937.350498202 473.865234375 876.099609375 c 6,42,-1
 521.946289062 836.88671875 l 6,43,44
 648.461914062 733.622979586 648.461914062 733.622979586 648.461914062 569.729492188 c 6,45,-1
 648.461914062 546.629882812 l 2,46,47
 648.001163437 516.077148438 648.001163437 516.077148438 620.461914062 516.077148438 c 2,48,-1
 540.051757812 516.077148438 l 2,9,10
EndSplineSet
EndChar

StartChar: uni0621
Encoding: 1569 1569 6
Width: 891
VWidth: 3739
GlyphClass: 2
Flags: W
AnchorPoint: "Anchor-7" 458.756 -88.488 basechar 0
AnchorPoint: "Anchor-10" 436.642 1114.47 basechar 0
LayerCount: 2
Fore
SplineSet
682.145507812 534.395507812 m 1,0,1
 564 575 564 575 496.331163138 575.330717311 c 0,2,3
 417 575 417 575 362.8515625 518.044921875 c 0,4,5
 316 469 316 469 315.726766185 447.734313463 c 0,6,7
 316 408 316 408 393.878838089 355.659898584 c 0,8,9
 468 306 468 306 481.899414062 303.730957031 c 0,10,11
 488 303 488 303 495 302.961079815 c 0,12,13
 525.247582328 303.000321198 525.247582328 303.000321198 627.692382812 329.021484375 c 2,14,-1
 728.904296875 354.729492188 l 2,15,16
 782 368 782 368 785.163574219 361.052246094 c 0,17,18
 788.349678761 355.377151637 788.349678761 355.377151637 783.5703125 316.017578125 c 2,19,-1
 767.729492188 185.563476562 l 1,20,21
 457 142 457 142 105.375976562 3.3291015625 c 1,22,-1
 106 176 l 1,23,-1
 274.09765625 235.237304688 l 1,24,25
 175 321 175 321 174.780257715 439.093171516 c 0,26,27
 175 491 175 491 194.079101562 549.317382812 c 0,28,29
 239 687 239 687 372.892578125 735.233398438 c 0,30,31
 428 755 428 755 484.190737351 754.845229559 c 0,32,33
 624 755 624 755 721.829101562 661.774414062 c 1,34,35
 717 639 717 639 682.145507812 534.395507812 c 1,0,1
EndSplineSet
EndChar

StartChar: uni0627
Encoding: 1575 1575 12
Width: 484
VWidth: 3705
GlyphClass: 2
Flags: W
AnchorPoint: "Anchor-10" 223.583 1603.65 basechar 0
AnchorPoint: "Anchor-7" 235.098 -224.043 basechar 0
LayerCount: 2
Fore
SplineSet
187.284179688 -13.3427734375 m 5,0,1
 178 1089 178 1089 130.795898438 1388.72265625 c 5,2,-1
 280 1456 l 6,3,4
 305 1467 305 1467 308 1428 c 4,5,6
 330 1073 330 1073 330.541015625 721.708984375 c 4,7,8
 330 86 330 86 321.44140625 66.7333984375 c 4,9,10
 285 -12 285 -12 187.284179688 -13.3427734375 c 5,0,1
EndSplineSet
Substitution2: "'fina' Terminal Forms in Arabic lookup 9 subtable" uniFE8E
EndChar

StartChar: uni062D
Encoding: 1581 1581 18
Width: 1306
VWidth: 3739
GlyphClass: 2
Flags: W
AnchorPoint: "Anchor-7" 572.136 -813.44 basechar 0
AnchorPoint: "Anchor-10" 600.972 1253.02 basechar 0
LayerCount: 2
Fore
SplineSet
133.260742188 -114.354492188 m 0,0,1
 133 -341 133 -341 289.965820312 -477.939453125 c 0,2,3
 363 -542 363 -542 490.94140625 -575.65625 c 0,4,5
 642 -615 642 -615 818.768554688 -614.81640625 c 0,6,7
 1008 -615 1008 -615 1117.98828125 -592.029296875 c 0,8,9
 1142 -587 1142 -587 1152.86523438 -561.625 c 0,10,11
 1186 -481 1186 -481 1192.87304688 -415.625 c 0,12,13
 1194 -405 1194 -405 1184.27148438 -406.337890625 c 0,14,15
 924 -436 924 -436 795.594726562 -435.2265625 c 0,16,17
 280 -432 280 -432 279.989257812 -83.6806640625 c 0,18,19
 280 206 280 206 600.952148438 371.383789062 c 0,20,21
 839 494 839 494 1154.33007812 503.348632812 c 1,22,-1
 1225.45898438 671.40625 l 2,23,24
 1213.37109375 686.41796875 l 0,25,26
 1061.71679688 696.866210938 1061.71679688 696.866210938 989.66796875 717.557617188 c 0,27,28
 648 815 648 815 539.143554688 840.106445312 c 0,29,30
 430 865 430 865 373.6796875 864.798828125 c 0,31,32
 317 865 317 865 265.556640625 828.467773438 c 0,33,34
 166 759 166 759 102.53125 606.78515625 c 1,35,36
 146 577 146 577 194.560546875 559.346679688 c 1,37,38
 293 679 293 679 399.571289062 678.428710938 c 0,39,40
 465 678 465 678 599.021484375 647.971679688 c 0,41,42
 668 632 668 632 785.43359375 609.942382812 c 1,43,44
 604 574 604 574 479.01171875 496.65234375 c 0,45,46
 133 283 133 283 133.260742188 -114.354492188 c 0,0,1
EndSplineSet
Substitution2: "'fina' Terminal Forms in Arabic lookup 9 subtable" uniFEA2
Substitution2: "'medi' Medial Forms in Arabic lookup 11 subtable" uniFEA4
Substitution2: "'init' Initial Forms in Arabic lookup 13 subtable" uniFEA3
EndChar

StartChar: uni062F
Encoding: 1583 1583 20
Width: 1020
VWidth: 3737
GlyphClass: 2
Flags: W
AnchorPoint: "Anchor-10" 413.795 1308.18 basechar 0
AnchorPoint: "Anchor-7" 400.949 -226.827 basechar 0
LayerCount: 2
Fore
SplineSet
230.859375 325.612304688 m 1,0,1
 231 266 231 266 250.879882812 237.4453125 c 0,2,3
 290 180 290 180 417.994140625 179.999023438 c 0,4,5
 774 180 774 180 774.109081849 318.191303459 c 0,6,7
 774 352 774 352 751.274414062 398.422851562 c 0,8,9
 665 581 665 581 353.720703125 787.817382812 c 1,10,-1
 418 959 l 2,11,12
 428 986 428 986 470.560546875 953.236328125 c 0,13,14
 916 605 916 605 916.126953125 340.834960938 c 0,15,16
 916 271 916 271 890.487304688 218.8046875 c 0,17,18
 784 0 784 0 419.2734375 0 c 0,19,20
 104 0 104 0 105.714759837 230.303616449 c 0,21,22
 106 278 106 278 119.606445312 336.571289062 c 1,23,-1
 230.859375 325.612304688 l 1,0,1
EndSplineSet
Substitution2: "'fina' Terminal Forms in Arabic lookup 9 subtable" uniFEAA
EndChar

StartChar: uni0631
Encoding: 1585 1585 22
Width: 778
VWidth: 3744
GlyphClass: 2
Flags: W
AnchorPoint: "Anchor-7" 272.313 -737.669 basechar 0
AnchorPoint: "Anchor-10" 485.411 1050.21 basechar 0
LayerCount: 2
Fore
SplineSet
29.212890625 -400.844726562 m 0,0,1
 505 -276 505 -276 540.05859375 70.9892578125 c 0,2,3
 541.127331605 81.3720443238 541.127331605 81.3720443238 541.127331605 92.6751493904 c 0,4,5
 541.127331605 207.665848628 541.127331605 207.665848628 430.515625 417.907226562 c 1,6,-1
 535 550 l 2,7,8
 548 566 548 566 553 565.455078125 c 0,9,10
 572 563 572 563 610.84765625 491.040039062 c 0,11,12
 696 333 696 333 696.15625 128 c 0,13,14
 696 -51 696 -51 597.930664062 -211 c 0,15,16
 508 -359 508 -359 344.763671875 -454.211914062 c 0,17,18
 237 -517 237 -517 141.038085938 -539.3515625 c 0,19,20
 129.804762682 -541.866079733 129.804762682 -541.866079733 119.47950731 -541.866079733 c 0,21,22
 81.5867719454 -541.866079733 81.5867719454 -541.866079733 55.924097668 -508 c 0,23,24
 30.4895489884 -474.43496916 30.4895489884 -474.43496916 22.13671875 -459.24609375 c 0,25,26
 10.1333578155 -437.46311242 10.1333578155 -437.46311242 10.1333578155 -423.524102572 c 0,27,28
 10.1333578155 -405.950355953 10.1333578155 -405.950355953 29.212890625 -400.844726562 c 0,0,1
EndSplineSet
PairPos2: "'kern' Horizontal Kerning lookup 15-1" uniFEF3 dx=70 dy=0 dh=70 dv=0 dx=0 dy=0 dh=0 dv=0
PairPos2: "'kern' Horizontal Kerning lookup 15-1" uniFB58 dx=53 dy=0 dh=53 dv=0 dx=0 dy=0 dh=0 dv=0
PairPos2: "'kern' Horizontal Kerning lookup 15-1" uniFBFE dx=70 dy=0 dh=70 dv=0 dx=0 dy=0 dh=0 dv=0
PairPos2: "'kern' Horizontal Kerning lookup 15-4" uni0621 dx=-196 dy=0 dh=-196 dv=0 dx=0 dy=0 dh=0 dv=0
PairPos2: "'kern' Horizontal Kerning lookup 15-3" uni0648 dx=-43 dy=0 dh=-43 dv=0 dx=0 dy=0 dh=0 dv=0
PairPos2: "'kern' Horizontal Kerning lookup 15-1" uni0632 dx=-43 dy=0 dh=-43 dv=0 dx=0 dy=0 dh=0 dv=0
PairPos2: "'kern' Horizontal Kerning lookup 15-1" uni0631 dx=-43 dy=0 dh=-43 dv=0 dx=0 dy=0 dh=0 dv=0
PairPos2: "'kern' Horizontal Kerning lookup 15-1" uni06CC dx=-43 dy=0 dh=-43 dv=0 dx=0 dy=0 dh=0 dv=0
PairPos2: "'kern' Horizontal Kerning lookup 15-1" uniFEEB dx=-128 dy=0 dh=-128 dv=0 dx=0 dy=0 dh=0 dv=0
PairPos2: "'kern' Horizontal Kerning lookup 15-1" uniFB7C dx=-115 dy=0 dh=-115 dv=0 dx=0 dy=0 dh=0 dv=0
PairPos2: "'kern' Horizontal Kerning lookup 15-1" uniFEDF dx=-128 dy=0 dh=-128 dv=0 dx=0 dy=0 dh=0 dv=0
PairPos2: "'kern' Horizontal Kerning lookup 15-1" uniFB90 dx=-213 dy=0 dh=-213 dv=0 dx=0 dy=0 dh=0 dv=0
PairPos2: "'kern' Horizontal Kerning lookup 15-1" uni06A9 dx=-213 dy=0 dh=-213 dv=0 dx=0 dy=0 dh=0 dv=0
PairPos2: "'kern' Horizontal Kerning lookup 15-1" uni0649 dx=-43 dy=0 dh=-43 dv=0 dx=0 dy=0 dh=0 dv=0
PairPos2: "'kern' Horizontal Kerning lookup 15-1" uni0647 dx=-128 dy=0 dh=-128 dv=0 dx=0 dy=0 dh=0 dv=0
PairPos2: "'kern' Horizontal Kerning lookup 15-1" uniFEE7 dx=-128 dy=0 dh=-128 dv=0 dx=0 dy=0 dh=0 dv=0
PairPos2: "'kern' Horizontal Kerning lookup 15-1" uniFEE3 dx=-128 dy=0 dh=-128 dv=0 dx=0 dy=0 dh=0 dv=0
PairPos2: "'kern' Horizontal Kerning lookup 15-1" uni0645 dx=-128 dy=0 dh=-128 dv=0 dx=0 dy=0 dh=0 dv=0
PairPos2: "'kern' Horizontal Kerning lookup 15-1" uni0644 dx=-43 dy=0 dh=-43 dv=0 dx=0 dy=0 dh=0 dv=0
PairPos2: "'kern' Horizontal Kerning lookup 15-1" uniFEDB dx=-213 dy=0 dh=-213 dv=0 dx=0 dy=0 dh=0 dv=0
PairPos2: "'kern' Horizontal Kerning lookup 15-1" uniFED7 dx=-128 dy=0 dh=-128 dv=0 dx=0 dy=0 dh=0 dv=0
PairPos2: "'kern' Horizontal Kerning lookup 15-1" uni0642 dx=-43 dy=0 dh=-43 dv=0 dx=0 dy=0 dh=0 dv=0
PairPos2: "'kern' Horizontal Kerning lookup 15-1" uniFED3 dx=-128 dy=0 dh=-128 dv=0 dx=0 dy=0 dh=0 dv=0
PairPos2: "'kern' Horizontal Kerning lookup 15-1" uni0641 dx=-128 dy=0 dh=-128 dv=0 dx=0 dy=0 dh=0 dv=0
PairPos2: "'kern' Horizontal Kerning lookup 15-1" uniFECF dx=-128 dy=0 dh=-128 dv=0 dx=0 dy=0 dh=0 dv=0
PairPos2: "'kern' Horizontal Kerning lookup 15-1" uniFECB dx=-128 dy=0 dh=-128 dv=0 dx=0 dy=0 dh=0 dv=0
PairPos2: "'kern' Horizontal Kerning lookup 15-1" uniFEC7 dx=-128 dy=0 dh=-128 dv=0 dx=0 dy=0 dh=0 dv=0
PairPos2: "'kern' Horizontal Kerning lookup 15-1" uni0638 dx=-128 dy=0 dh=-128 dv=0 dx=0 dy=0 dh=0 dv=0
PairPos2: "'kern' Horizontal Kerning lookup 15-1" uniFEC3 dx=-128 dy=0 dh=-128 dv=0 dx=0 dy=0 dh=0 dv=0
PairPos2: "'kern' Horizontal Kerning lookup 15-1" uni0637 dx=-128 dy=0 dh=-128 dv=0 dx=0 dy=0 dh=0 dv=0
PairPos2: "'kern' Horizontal Kerning lookup 15-1" uniFEBF dx=-128 dy=0 dh=-128 dv=0 dx=0 dy=0 dh=0 dv=0
PairPos2: "'kern' Horizontal Kerning lookup 15-1" uni0636 dx=-128 dy=0 dh=-128 dv=0 dx=0 dy=0 dh=0 dv=0
PairPos2: "'kern' Horizontal Kerning lookup 15-1" uniFEBB dx=-128 dy=0 dh=-128 dv=0 dx=0 dy=0 dh=0 dv=0
PairPos2: "'kern' Horizontal Kerning lookup 15-1" uni0635 dx=-128 dy=0 dh=-128 dv=0 dx=0 dy=0 dh=0 dv=0
PairPos2: "'kern' Horizontal Kerning lookup 15-1" uniFEB7 dx=-128 dy=0 dh=-128 dv=0 dx=0 dy=0 dh=0 dv=0
PairPos2: "'kern' Horizontal Kerning lookup 15-1" uni0634 dx=-128 dy=0 dh=-128 dv=0 dx=0 dy=0 dh=0 dv=0
PairPos2: "'kern' Horizontal Kerning lookup 15-1" uniFEB3 dx=-128 dy=0 dh=-128 dv=0 dx=0 dy=0 dh=0 dv=0
PairPos2: "'kern' Horizontal Kerning lookup 15-1" uni0633 dx=-128 dy=0 dh=-128 dv=0 dx=0 dy=0 dh=0 dv=0
PairPos2: "'kern' Horizontal Kerning lookup 15-1" uni0630 dx=-128 dy=0 dh=-128 dv=0 dx=0 dy=0 dh=0 dv=0
PairPos2: "'kern' Horizontal Kerning lookup 15-1" uni062F dx=-128 dy=0 dh=-128 dv=0 dx=0 dy=0 dh=0 dv=0
PairPos2: "'kern' Horizontal Kerning lookup 15-1" uniFEA7 dx=-128 dy=0 dh=-128 dv=0 dx=0 dy=0 dh=0 dv=0
PairPos2: "'kern' Horizontal Kerning lookup 15-1" uniFEA3 dx=-128 dy=0 dh=-128 dv=0 dx=0 dy=0 dh=0 dv=0
PairPos2: "'kern' Horizontal Kerning lookup 15-1" uniFE9F dx=-128 dy=0 dh=-128 dv=0 dx=0 dy=0 dh=0 dv=0
PairPos2: "'kern' Horizontal Kerning lookup 15-1" uniFE9B dx=-128 dy=0 dh=-128 dv=0 dx=0 dy=0 dh=0 dv=0
PairPos2: "'kern' Horizontal Kerning lookup 15-1" uni062B dx=-128 dy=0 dh=-128 dv=0 dx=0 dy=0 dh=0 dv=0
PairPos2: "'kern' Horizontal Kerning lookup 15-1" uniFE97 dx=-128 dy=0 dh=-128 dv=0 dx=0 dy=0 dh=0 dv=0
PairPos2: "'kern' Horizontal Kerning lookup 15-1" uni062A dx=-128 dy=0 dh=-128 dv=0 dx=0 dy=0 dh=0 dv=0
PairPos2: "'kern' Horizontal Kerning lookup 15-1" uni0629 dx=-128 dy=0 dh=-128 dv=0 dx=0 dy=0 dh=0 dv=0
PairPos2: "'kern' Horizontal Kerning lookup 15-1" uniFE91 dx=-53 dy=0 dh=-53 dv=0 dx=0 dy=0 dh=0 dv=0
PairPos2: "'kern' Horizontal Kerning lookup 15-1" uni0628 dx=-128 dy=0 dh=-128 dv=0 dx=0 dy=0 dh=0 dv=0
PairPos2: "'kern' Horizontal Kerning lookup 15-1" uni0627 dx=-196 dy=0 dh=-196 dv=0 dx=0 dy=0 dh=0 dv=0
PairPos2: "'kern' Horizontal Kerning lookup 15-1" uni0622 dx=-196 dy=0 dh=-196 dv=0 dx=0 dy=0 dh=0 dv=0
PairPos2: "'kern' Horizontal Kerning lookup 15-1" uniFB94 dx=-235 dy=0 dh=-235 dv=0 dx=0 dy=0 dh=0 dv=0
PairPos2: "'kern' Horizontal Kerning lookup 15-1" afii57509 dx=-235 dy=0 dh=-235 dv=0 dx=0 dy=0 dh=0 dv=0
PairPos2: "'kern' Horizontal Kerning lookup 15-1" uniFB56 dx=-128 dy=0 dh=-128 dv=0 dx=0 dy=0 dh=0 dv=0
PairPos2: "'kern' Horizontal Kerning lookup 15-1" afii57506 dx=-128 dy=0 dh=-128 dv=0 dx=0 dy=0 dh=0 dv=0
Substitution2: "'fina' Terminal Forms in Arabic lookup 9 subtable" uniFEAE
EndChar

StartChar: uni0633
Encoding: 1587 1587 24
Width: 2349
VWidth: 3744
GlyphClass: 2
Flags: W
AnchorPoint: "Anchor-7" 635.746 -764.065 basechar 0
AnchorPoint: "Anchor-10" 1664.2 1101.76 basechar 0
LayerCount: 2
Fore
SplineSet
1934.19726562 0.93359375 m 16,0,1
 1778 1 1778 1 1689.984375 129.227539062 c 1,2,3
 1595 2 1595 2 1473.74121094 1.98046875 c 0,4,5
 1353 2 1353 2 1307 49.8779296875 c 1,6,7
 1307 42 1307 42 1307.45 33.8689086914 c 0,8,9
 1307 -14 1307 -14 1293 -85.017578125 c 0,10,11
 1199 -539 1199 -539 668.483563085 -538.856047861 c 0,12,13
 456 -539 456 -539 308 -444.66796875 c 0,14,15
 107 -316 107 -316 106.929445593 -34.5049852873 c 0,16,17
 107 159 107 159 209.79296875 384.94140625 c 1,18,-1
 320.0546875 352.40234375 l 1,19,20
 263 165 263 165 262.880859375 13.18359375 c 0,21,22
 263 -359 263 -359 677.813476562 -359.276367188 c 0,23,24
 993 -359 993 -359 1113.19140625 -164.387695312 c 0,25,26
 1155 -97 1155 -97 1155 -18 c 0,27,28
 1155 47 1155 47 1037.66699219 338.455078125 c 1,29,-1
 1134.31640625 484.686523438 l 1,30,31
 1142 495 1142 495 1150.91367785 495.38271835 c 0,32,33
 1167 495 1167 495 1185.24511719 455.676757812 c 0,34,35
 1258 296 1258 296 1261.33007812 289.373046875 c 0,36,37
 1325 181 1325 181 1462.6796875 180.962890625 c 0,38,39
 1601.68799232 180.999916894 1601.68799232 180.999916894 1613.50683594 323.958007812 c 2,40,-1
 1629.83105469 521.412109375 l 1,41,-1
 1753.29882812 521.412109375 l 1,42,-1
 1768.85449219 327.776367188 l 2,43,44
 1781 180 1781 180 1931.18261719 180.438476562 c 0,45,46
 2097 180 2097 180 2096.92871094 341.384765625 c 0,47,48
 2097 396 2097 396 2018.48828125 615.358398438 c 1,49,-1
 2127.21386719 741.091796875 l 2,50,51
 2144 761 2144 761 2165.21386719 718.091796875 c 0,52,53
 2249 546 2249 546 2248.55957031 386.078125 c 0,54,55
 2249 238 2249 238 2167.19238281 125.884765625 c 0,56,57
 2075 1 2075 1 1934.19726562 0.93359375 c 16,0,1
EndSplineSet
Substitution2: "'fina' Terminal Forms in Arabic lookup 9 subtable" uniFEB2
Substitution2: "'medi' Medial Forms in Arabic lookup 11 subtable" uniFEB4
Substitution2: "'init' Initial Forms in Arabic lookup 13 subtable" uniFEB3
EndChar

StartChar: uni0635
Encoding: 1589 1589 26
Width: 2613
VWidth: 3745
GlyphClass: 2
Flags: W
AnchorPoint: "Anchor-7" 635.746 -764.065 basechar 0
AnchorPoint: "Anchor-10" 2110.2 1171.76 basechar 0
LayerCount: 2
Fore
SplineSet
1602.11328125 180.791992188 m 1,0,-1
 1913.25390625 180.791992188 l 2,1,2
 2161 181 2161 181 2267.31933594 263.029296875 c 0,3,4
 2351 328 2351 328 2351.54003906 422.5390625 c 0,5,6
 2352 486 2352 486 2312.77148438 534.008789062 c 0,7,8
 2268 590 2268 590 2166.45703125 590.015625 c 0,9,10
 1940 590 1940 590 1602.11328125 180.791992188 c 1,0,-1
1586.95019531 0.09375 m 2,11,12
 1370.87782673 0.09375 1370.87782673 0.09375 1306 49.8779296875 c 1,13,14
 1307.12709745 37.6174428856 1307.12709745 37.6174428856 1307.11279873 24 c 0,15,16
 1307.06269866 -23.7129970722 1307.06269866 -23.7129970722 1293 -88.0849609375 c 0,17,18
 1196 -539 1196 -539 668.655295118 -538.856416835 c 0,19,20
 455 -539 455 -539 310 -446.41796875 c 0,21,22
 107 -318 107 -318 106.492039167 -36.4677733649 c 0,23,24
 106 155 106 155 209.79296875 384.94140625 c 1,25,-1
 320.0546875 352.40234375 l 1,26,27
 263 165 263 165 262.880859375 13.18359375 c 0,28,29
 263 -359 263 -359 677.813476562 -359.276367188 c 0,30,31
 993 -359 993 -359 1113.19140625 -164.387695312 c 0,32,33
 1155 -97 1155 -97 1155 -18 c 0,34,35
 1155 47 1155 47 1037.66699219 338.455078125 c 1,36,-1
 1134.31640625 484.686523438 l 1,37,38
 1143 496 1143 496 1152.15611728 496.290724577 c 0,39,40
 1169 496 1169 496 1185.24511719 455.676757812 c 0,41,42
 1248 304 1248 304 1261.33007812 279.373046875 c 0,43,44
 1314 182 1314 182 1452.38574219 180.909179688 c 1,45,46
 1822 767 1822 767 2179.27148438 767.09375 c 0,47,48
 2344 767 2344 767 2434.31933594 659.978515625 c 0,49,50
 2512 567 2512 567 2512.23828125 433.375976562 c 0,51,52
 2512 243 2512 243 2350.62011719 128.11328125 c 0,53,54
 2172.1307096 0.09375 2172.1307096 0.09375 1821.76269531 0.09375 c 2,55,-1
 1586.95019531 0.09375 l 2,11,12
EndSplineSet
Substitution2: "'fina' Terminal Forms in Arabic lookup 9 subtable" uniFEBA
Substitution2: "'medi' Medial Forms in Arabic lookup 11 subtable" uniFEBC
Substitution2: "'init' Initial Forms in Arabic lookup 13 subtable" uniFEBB
EndChar

StartChar: uni0637
Encoding: 1591 1591 28
Width: 1590
VWidth: 3745
GlyphClass: 2
Flags: W
AnchorPoint: "Anchor-10" 495.708 1583.06 basechar 0
AnchorPoint: "Anchor-7" 722.507 -219.535 basechar 0
LayerCount: 2
Fore
SplineSet
579.793945312 180.791015625 m 1,0,-1
 890.934570312 180.791015625 l 2,1,2
 1135 181 1135 181 1245 265.028320312 c 0,3,4
 1329 330 1329 330 1329.22043146 424.537687515 c 0,5,6
 1329 488 1329 488 1290.45214844 536.0078125 c 0,7,8
 1246 592 1246 592 1144.13797955 592.014674302 c 0,9,10
 920 592 920 592 579.793945312 180.791015625 c 1,0,-1
270.19921875 0 m 1,11,12
 107 128 107 128 106.317382812 163 c 0,13,14
 106.006045549 180.65713366 106.006045549 180.65713366 134.399414062 180.657226562 c 2,15,-1
 432.862304688 180.658203125 l 1,16,17
 468 242 468 242 497.7890625 286.39453125 c 1,18,19
 492 380 492 380 475.507438683 777.770809725 c 0,20,21
 453 1316 453 1316 434.522460938 1389.796875 c 5,22,-1
 589 1457 l 6,23,24
 614.283244415 1468.12462754 614.283244415 1468.12462754 614.880859375 1432.04882812 c 6,25,-1
 631.05859375 455.458984375 l 1,26,27
 899 769 899 769 1157 769 c 0,28,29
 1322 769 1322 769 1412 661.977695079 c 0,30,31
 1490 569 1490 569 1489.91894531 435.375 c 0,32,33
 1490 249 1490 249 1328.30078125 130.112304688 c 0,34,35
 1152 0 1152 0 799.443359375 0 c 2,36,-1
 270.19921875 0 l 1,11,12
EndSplineSet
Substitution2: "'fina' Terminal Forms in Arabic lookup 9 subtable" uniFEC2
Substitution2: "'medi' Medial Forms in Arabic lookup 11 subtable" uniFEC4
Substitution2: "'init' Initial Forms in Arabic lookup 13 subtable" uniFEC3
EndChar

StartChar: uni0639
Encoding: 1593 1593 30
Width: 1282
VWidth: 3739
GlyphClass: 2
Flags: W
AnchorPoint: "Anchor-7" 572.136 -813.44 basechar 0
AnchorPoint: "Anchor-10" 716.051 1379.67 basechar 0
LayerCount: 2
Fore
SplineSet
112.260742188 -114.354492188 m 0,0,1
 112 -341 112 -341 268.965820312 -477.939453125 c 0,2,3
 342 -542 342 -542 469.94140625 -575.65625 c 0,4,5
 621 -615 621 -615 797.768554688 -614.81640625 c 0,6,7
 987 -615 987 -615 1096.98828125 -592.029296875 c 0,8,9
 1121 -587 1121 -587 1131.86523438 -561.625 c 0,10,11
 1164.54837051 -485.295806281 1164.54837051 -485.295806281 1171.87304688 -415.625 c 0,12,13
 1173 -405 1173 -405 1163.27148438 -406.337890625 c 0,14,15
 945.711732736 -436.257270242 945.711732736 -436.257270242 774.594726562 -435.2265625 c 0,16,17
 259 -432 259 -432 258.989257812 -83.6806640625 c 0,18,19
 259 116 259 116 480.227822604 246.634438579 c 0,20,21
 673 361 673 361 1042.72167969 364.971679688 c 1,22,23
 1089 505 1089 505 1100.6086846 547 c 0,24,25
 1111 584 1111 584 1077.60449219 579.389648438 c 2,26,-1
 938.5625 561.759765625 l 1,27,28
 707 527 707 527 683.580542913 527.086332208 c 0,29,30
 597 527 597 527 541.40625 570.189453125 c 0,31,32
 429 657 429 657 428.647460938 727.791992188 c 0,33,34
 429 758 429 758 463.205078125 797.178710938 c 0,35,36
 557 904 557 904 711.170000832 903.515228972 c 0,37,38
 822 904 822 904 964.852539062 848.501953125 c 1,39,40
 1007 958 1007 958 1011.28808594 977.672851562 c 1,41,42
 1003 986 1003 986 995.583984375 992.750976562 c 0,43,44
 882 1096 882 1096 703.815674226 1096.01812483 c 0,45,46
 554 1096 554 1096 441.2578125 1014 c 0,47,48
 332 935 332 935 299.127929688 803.736328125 c 0,49,50
 286 751 286 751 286.028702616 702.578003225 c 0,51,52
 286 532 286 532 447.766601562 413.391601562 c 1,53,54
 112 237 112 237 112.260742188 -114.354492188 c 0,0,1
EndSplineSet
Substitution2: "'fina' Terminal Forms in Arabic lookup 9 subtable" uniFECA
Substitution2: "'medi' Medial Forms in Arabic lookup 11 subtable" uniFECC
Substitution2: "'init' Initial Forms in Arabic lookup 13 subtable" uniFECB
EndChar

StartChar: afii57440
Encoding: 1600 1600 32
Width: 245
VWidth: 3772
GlyphClass: 2
Flags: W
AnchorPoint: "Anchor-10" 128.034 870.08 basechar 0
AnchorPoint: "Anchor-7" 124.768 -197.603 basechar 0
LayerCount: 2
Fore
SplineSet
-60.3662109375 77 m 2,0,-1
 -60.3662109375 102 l 2,1,2
 -60.000004585 179.999023438 -60.000004585 179.999023438 -5 179.999023438 c 2,3,-1
 250 179.999023438 l 2,4,5
 275.340820312 180.000013313 275.340820312 180.000013313 275.340820312 102 c 2,6,-1
 275.340820312 77 l 2,7,8
 275 0 275 0 250 0 c 2,9,-1
 -5 0 l 2,10,11
 -60 0 -60 0 -60.3662109375 77 c 2,0,-1
EndSplineSet
EndChar

StartChar: uni0643
Encoding: 1603 1603 35
Width: 1888
VWidth: 3705
GlyphClass: 2
Flags: W
AnchorPoint: "Anchor-10" 926.253 1585.45 basechar 0
AnchorPoint: "Anchor-7" 842.494 -204.19 basechar 0
LayerCount: 2
Fore
SplineSet
818.87890625 2 m 0,0,1
 477 2 477 2 305.037109375 98.587890625 c 0,2,3
 104 210 104 210 104.243164062 454.830078125 c 0,4,5
 104 605 104 605 184.85546875 766.762695312 c 1,6,-1
 286.431640625 732.233398438 l 1,7,8
 254 613 254 613 253.690429688 523.778320312 c 0,9,10
 254 424 254 424 294.80859375 362.3515625 c 0,11,12
 416 180 416 180 835.046875 180.487304688 c 0,13,14
 1114 181 1114 181 1315.89550781 225.599609375 c 0,15,16
 1474 260 1474 260 1543.30078125 300.086914062 c 0,17,18
 1587 325 1587 325 1586 574 c 0,19,20
 1585 845 1585 845 1574.0231904 996.764439161 c 0,21,22
 1558 1215 1558 1215 1543.86523438 1359.42089844 c 1,23,-1
 1695.09472656 1452.51171875 l 2,24,25
 1731.97101331 1474.98233692 1731.97101331 1474.98233692 1731.89941406 1429.92382812 c 2,26,-1
 1730.89941406 800.608398438 l 2,27,28
 1730 250 1730 250 1611.63085938 162.662109375 c 0,29,30
 1392 2 1392 2 818.87890625 2 c 0,0,1
859.633789062 1197.10546875 m 0,31,32
 858.53515625 1151.81640625 858.53515625 1151.81640625 995.580566406 1127.65185547 c 128,-1,33
 1132.62597656 1103.48730469 1132.62597656 1103.48730469 1163.32421875 1010.41601562 c 0,34,35
 1199.23925781 901.521484375 1199.23925781 901.521484375 1137.52832031 815.630859375 c 0,36,37
 1064.34863281 713.770507812 1064.34863281 713.770507812 873.654296875 720.818359375 c 0,38,39
 779.21815107 724.307490243 779.21815107 724.307490243 680.5234375 755.338867188 c 1,40,-1
 694.244140625 895.8828125 l 1,41,42
 858.845391746 838.310280613 858.845391746 838.310280613 997.969726562 867.603515625 c 0,43,44
 1077.30178165 884.304899789 1077.30178165 884.304899789 1085.86621094 929.4765625 c 0,45,46
 1093.1015625 977.317382812 1093.1015625 977.317382812 950.265625 1008 c 0,47,48
 776.973632812 1044.90820312 776.973632812 1044.90820312 781.475585938 1213.74121094 c 0,49,50
 786.880859375 1397.54882812 786.880859375 1397.54882812 1099.30761719 1436.13964844 c 0,51,52
 1120.19042969 1438.78222656 1120.19042969 1438.78222656 1135.88964844 1433.35205078 c 128,-1,53
 1151.58886719 1427.921875 1151.58886719 1427.921875 1142.29296875 1401.31835938 c 2,54,-1
 1105.76660156 1296.78027344 l 1,55,56
 861.824094849 1272.36097733 861.824094849 1272.36097733 859.633789062 1197.10546875 c 0,31,32
EndSplineSet
Substitution2: "'fina' Terminal Forms in Arabic lookup 9 subtable" uniFEDA
Substitution2: "'medi' Medial Forms in Arabic lookup 11 subtable" uniFEDC
Substitution2: "'init' Initial Forms in Arabic lookup 13 subtable" uniFEDB
EndChar

StartChar: uni0644
Encoding: 1604 1604 36
Width: 1375
VWidth: 3705
GlyphClass: 2
Flags: W
AnchorPoint: "Anchor-10" 570.799 1009.28 basechar 0
AnchorPoint: "Anchor-7" 656.152 -732.482 basechar 0
LayerCount: 2
Fore
SplineSet
1225.76660156 88.3427734375 m 2,0,1
 1239.57583971 -535.002911333 1239.57583971 -535.002911333 666.619140625 -538.935546875 c 0,2,3
 381 -541 381 -541 237.024414062 -386.934570312 c 0,4,5
 107 -246 107 -246 106.561523438 -25.052734375 c 0,6,7
 107 164 107 164 209.770507812 384.857421875 c 1,8,-1
 320.032226562 352.3203125 l 1,9,10
 260 159 260 159 260.487304688 18.580078125 c 0,11,12
 260 -369 260 -369 674.125 -359.364257812 c 0,13,14
 1059 -350 1059 -350 1075.62644761 -32 c 0,15,16
 1079 30 1079 30 1075.85490774 114 c 0,17,18
 1029 1328 1029 1328 1018.23632812 1382.83886719 c 1,19,-1
 1167 1450 l 2,20,21
 1195 1463 1195 1463 1196 1432 c 2,22,-1
 1225.76660156 88.3427734375 l 2,0,1
EndSplineSet
Substitution2: "'fina' Terminal Forms in Arabic lookup 9 subtable" uniFEDE
Substitution2: "'medi' Medial Forms in Arabic lookup 11 subtable" uniFEE0
Substitution2: "'init' Initial Forms in Arabic lookup 13 subtable" uniFEDF
EndChar

StartChar: uni0645
Encoding: 1605 1605 37
Width: 1110
VWidth: 3775
GlyphClass: 2
Flags: W
AnchorPoint: "Anchor-10" 609.394 1157.86 basechar 0
AnchorPoint: "Anchor-7" 206.665 -888.897 basechar 0
LayerCount: 2
Fore
SplineSet
667.024414062 68.6806640625 m 0,0,1
 518.231711665 94.7839162826 518.231711665 94.7839162826 397.07471309 94.8019547315 c 0,2,3
 281.658310819 94.8019547315 281.658310819 94.8019547315 250.184570312 76.5595703125 c 1,4,-1
 263.3984375 -517.263671875 l 2,5,6
 265 -607 265 -607 177.186523438 -696.890625 c 0,7,8
 150.640584649 -723.880475809 150.640584649 -723.880475809 136.416537297 -723.880475809 c 0,9,10
 121.110637549 -723.880475809 121.110637549 -723.880475809 120.072265625 -692.62890625 c 2,11,-1
 106.69140625 -289.909179688 l 2,12,13
 105.164023793 -241.671548281 105.164023793 -241.671548281 105.164023793 -198.184048972 c 0,14,15
 105.164023793 -22.6825043412 105.164023793 -22.6825043412 130.040039062 75.455078125 c 0,16,17
 171 234 171 234 290.078125 276.318359375 c 1,18,19
 363 556 363 556 456.986328125 667.043945312 c 0,20,21
 526.301808248 748.623773202 526.301808248 748.623773202 618.967302235 748.623773202 c 0,22,23
 692.09144348 748.623773202 692.09144348 748.623773202 779.755859375 697.823242188 c 0,24,25
 959 594 959 594 1005.14550781 345.657226562 c 0,26,27
 1009.68157901 321.505795667 1009.68157901 321.505795667 1009.68157901 297.968098052 c 0,28,29
 1009.68157901 187.346698123 1009.68157901 187.346698123 909.490234375 90.28125 c 0,30,31
 859.367204429 41.2309357318 859.367204429 41.2309357318 828.694697229 41.2309357318 c 0,32,33
 827.331370308 41.2309357318 827.331370308 41.2309357318 667.024414062 68.6806640625 c 0,0,1
412.135742188 283.193359375 m 1,34,35
 584.8203125 273.713867188 584.8203125 273.713867188 685.897460938 254.643554688 c 128,-1,36
 786.974609375 235.573242188 786.974609375 235.573242188 821.884277344 235.573242188 c 128,-1,37
 856.793945312 235.573242188 856.793945312 235.573242188 856.793945312 258.25390625 c 0,38,39
 856.793945312 307.635742188 856.793945312 307.635742188 823.18359375 381.678710938 c 0,40,41
 763.46875 513.228515625 763.46875 513.228515625 645.223632812 544.03515625 c 0,42,43
 630.70703125 547.81640625 630.70703125 547.81640625 612.718261719 547.81640625 c 128,-1,44
 594.729492188 547.81640625 594.729492188 547.81640625 572.344726562 540.4921875 c 0,45,46
 527.6497944 525.867520548 527.6497944 525.867520548 492.280951888 470.798506368 c 128,-1,47
 456.912109375 415.729492188 456.912109375 415.729492188 412.135742188 283.193359375 c 1,34,35
EndSplineSet
Substitution2: "'init' Initial Forms in Arabic lookup 13 subtable" uniFEE3
Substitution2: "'medi' Medial Forms in Arabic lookup 11 subtable" uniFEE4
Substitution2: "'fina' Terminal Forms in Arabic lookup 9 subtable" uniFEE2
EndChar

StartChar: uni0647
Encoding: 1607 1607 39
Width: 877
VWidth: 3738
GlyphClass: 2
Flags: W
AnchorPoint: "Anchor-10" 377.369 1133.95 basechar 0
AnchorPoint: "Anchor-7" 420.886 -224.499 basechar 0
LayerCount: 2
Fore
SplineSet
368.119140625 596.525390625 m 1,0,1
 243.869339088 429.479902572 243.869339088 429.479902572 243.869339088 311.183792575 c 0,2,3
 243.869339088 185.999348856 243.869339088 185.999348856 447.697265625 185.846679688 c 0,4,5
 645.57729103 186.021743442 645.57729103 186.021743442 645.57729103 320.011920166 c 0,6,7
 645.57729103 437.712653791 645.57729103 437.712653791 436.822265625 559.926757812 c 0,8,9
 382 592 382 592 368.119140625 596.525390625 c 1,0,1
312.573242188 775.623046875 m 0,10,11
 332 802 332 802 348.365554853 802.034179688 c 0,12,13
 365 802 365 802 375.379882812 798.002929688 c 0,14,15
 777.102454999 645.581707502 777.102454999 645.581707502 776.360351562 332.854492188 c 0,16,17
 776 181 776 181 683.640136719 93.4733303695 c 0,18,19
 591 6 591 6 431.374023438 6.345703125 c 0,20,21
 266 6 266 6 173.868164062 108.68359375 c 0,22,23
 109 181 109 181 109.25 296.484375 c 0,24,25
 109 499 109 499 312.573242188 775.623046875 c 0,10,11
EndSplineSet
Substitution2: "'fina' Terminal Forms in Arabic lookup 9 subtable" uniFEEA
Substitution2: "'medi' Medial Forms in Arabic lookup 11 subtable" uniFEEC
Substitution2: "'init' Initial Forms in Arabic lookup 13 subtable" uniFEEB
EndChar

StartChar: uni0648
Encoding: 1608 1608 40
Width: 823
VWidth: 3773
GlyphClass: 2
Flags: W
AnchorPoint: "Anchor-7" 272.313 -737.669 basechar 0
AnchorPoint: "Anchor-10" 393.254 1139.8 basechar 0
LayerCount: 2
Fore
SplineSet
78.212890625 -401.844726562 m 0,0,1
 512 -286 512 -286 576.234375 1.3994140625 c 1,2,-1
 435.596679688 -2.8583984375 l 2,3,4
 239 -9 239 -9 163.696289062 87.0751953125 c 0,5,6
 108 159 108 159 107.915195258 265 c 0,7,8
 108 417 108 417 176 540.568359375 c 0,9,10
 262 698 262 698 409.264648438 697.603515625 c 0,11,12
 573 697 573 697 665.154296875 515.181640625 c 0,13,14
 733 381 733 381 735.228515625 168 c 0,15,16
 736 79 736 79 723.007456641 1 c 0,17,18
 704 -116 704 -116 646.930664062 -212 c 0,19,20
 562 -357 562 -357 393.763671875 -455.211914062 c 0,21,22
 286 -518 286 -518 190.038085938 -540.3515625 c 0,23,24
 179 -543 179 -543 168.479492188 -542.866210938 c 0,25,26
 131 -543 131 -543 104.923828125 -509 c 128,-1,27
 79 -475 79 -475 71.13671875 -460.24609375 c 0,28,29
 59 -438 59 -438 59.1337890625 -424.524414062 c 0,30,31
 59 -407 59 -407 78.212890625 -401.844726562 c 0,0,1
584.149414062 177.405273438 m 1,32,33
 571 381 571 381 513.8671875 454 c 0,34,35
 468 512 468 512 404.814453125 511.741210938 c 0,36,37
 311 512 311 512 273.006835938 403.997070312 c 0,38,39
 248 334 248 334 254.434570312 273.140625 c 0,40,41
 269 143 269 143 584.149414062 177.405273438 c 1,32,33
EndSplineSet
Substitution2: "'fina' Terminal Forms in Arabic lookup 9 subtable" uniFEEE
EndChar

StartChar: uni0649
Encoding: 1609 1609 41
Width: 1474
VWidth: 3745
GlyphClass: 2
Flags: W
AnchorPoint: "Anchor-10" 612.513 958.08 basechar 0
AnchorPoint: "Anchor-7" 618.071 -676.887 basechar 0
LayerCount: 2
Fore
SplineSet
677.813476562 -309.276367188 m 0,0,1
 998 -309 998 -309 1148.43554688 -130.353515625 c 0,2,3
 1191 -82 1191 -82 1191.02269753 -55.1702648796 c 0,4,5
 1191 -32 1191 -32 1157.15625 -26.005859375 c 0,6,-1
 913 17 l 0,7,8
 790 38 790 38 766.2890625 100.896484375 c 0,9,10
 759 121 759 121 758.57049056 151.654016345 c 0,11,12
 759 214 759 214 789.98046875 320.5 c 0,13,14
 875 609 875 609 1104.56054688 702.146484375 c 0,15,16
 1179 732 1179 732 1256.30972958 732.346456662 c 0,17,18
 1320 732 1320 732 1385.69921875 712.220703125 c 1,19,20
 1380 651 1380 651 1347.77441406 516.538085938 c 1,21,22
 1284 520 1284 520 1267.49007766 519.613722885 c 0,23,24
 1102 520 1102 520 1018.12109375 436.591796875 c 0,25,26
 931 350 931 350 899.73046875 204.78125 c 1,27,-1
 1162 154.534597685 l 2,28,29
 1314 125 1314 125 1314.23045267 4.94321804852 c 0,30,31
 1313.99603814 -138.423046817 1313.99603814 -138.423046817 1227.57226562 -250 c 0,32,33
 1044 -487 1044 -487 668.483398438 -488.856445312 c 8,34,35
 456 -490 456 -490 308 -394.66796875 c 0,36,37
 107 -266 107 -266 106.9296875 15.4951171875 c 0,38,39
 107 209 107 209 209.79296875 434.94140625 c 1,40,-1
 320.0546875 402.40234375 l 1,41,42
 263 215 263 215 262.880859375 63.18359375 c 0,43,44
 262.997999913 -309.634412821 262.997999913 -309.634412821 677.813476562 -309.276367188 c 0,0,1
EndSplineSet
Substitution2: "'fina' Terminal Forms in Arabic lookup 9 subtable" uniFEF0
Substitution2: "'medi' Medial Forms in Arabic lookup 11 subtable" uniFBE9
Substitution2: "'init' Initial Forms in Arabic lookup 13 subtable" uniFBE8
EndChar

StartChar: uni064B
Encoding: 1611 1611 43
Width: -25
VWidth: 2402
GlyphClass: 4
Flags: W
AnchorPoint: "Anchor-10" 637 1173.3 mark 0
AnchorPoint: "Anchor-9" 637 1173.3 mark 0
AnchorPoint: "Anchor-1" 595.196 1707 basemark 0
AnchorPoint: "Anchor-1" 637 1173.3 mark 0
LayerCount: 2
Fore
SplineSet
326.28125 1132.92480469 m 5,0,-1
 326.28125 1229.83007812 l 5,1,-1
 831.359375 1436.36132812 l 5,2,-1
 831.359375 1339.453125 l 5,3,-1
 326.28125 1132.92480469 l 5,0,-1
326.28125 1378.76171875 m 5,4,-1
 326.28125 1475.66699219 l 5,5,-1
 831.359375 1682.19628906 l 5,6,-1
 831.359375 1585.29003906 l 5,7,-1
 326.28125 1378.76171875 l 5,4,-1
EndSplineSet
EndChar

StartChar: uni064C
Encoding: 1612 1612 44
Width: -25
VWidth: 2402
GlyphClass: 4
Flags: W
AnchorPoint: "Anchor-10" 706.932 1262.33 mark 0
AnchorPoint: "Anchor-9" 706.932 1262.33 mark 0
AnchorPoint: "Anchor-1" 593.593 1985.74 basemark 0
AnchorPoint: "Anchor-1" 706.932 1262.33 mark 0
LayerCount: 2
Fore
SplineSet
682.081054688 1807.66210938 m 0,0,1
 635.4140625 1807.66210938 635.4140625 1807.66210938 612.619140625 1787.10839844 c 128,-1,2
 589.82421875 1766.5546875 589.82421875 1766.5546875 589.82421875 1724.77636719 c 0,3,4
 589.82421875 1662.24414062 589.82421875 1662.24414062 671.62109375 1632.5 c 0,5,6
 691.80078125 1625.15917969 691.80078125 1625.15917969 734.59765625 1611.84960938 c 1,7,-1
 750.127929688 1648.07714844 l 2,8,9
 753.275390625 1655.41894531 753.275390625 1655.41894531 755.631835938 1662.59375 c 128,-1,10
 757.989257812 1669.76953125 757.989257812 1669.76953125 759.5546875 1676.76660156 c 128,-1,11
 761.119140625 1683.76367188 761.119140625 1683.76367188 761.899414062 1690.58398438 c 128,-1,12
 762.6796875 1697.40429688 762.6796875 1697.40429688 762.6796875 1704.06542969 c 0,13,14
 762.6796875 1730.89160156 762.6796875 1730.89160156 755.590820312 1751.54394531 c 0,15,16
 745.873046875 1779.85546875 745.873046875 1779.85546875 727.615234375 1793.75878906 c 128,-1,17
 709.357421875 1807.66210938 709.357421875 1807.66210938 682.081054688 1807.66210938 c 0,0,1
331.27734375 1567.06640625 m 2,18,19
 337.979492188 1470.17773438 337.979492188 1470.17773438 347.932617188 1437.5625 c 0,20,21
 380.119140625 1332.10449219 380.119140625 1332.10449219 461.352539062 1334.04101562 c 0,22,23
 502.084960938 1335.01171875 502.084960938 1335.01171875 542.538085938 1354.87304688 c 128,-1,24
 582.9921875 1374.73339844 582.9921875 1374.73339844 623.202148438 1413.64648438 c 0,25,26
 669.795898438 1458.98242188 669.795898438 1458.98242188 696.400390625 1512.19335938 c 2,27,-1
 710.188476562 1539.77441406 l 1,28,-1
 680.01953125 1546.17675781 l 2,29,30
 553.680664062 1572.95605469 553.680664062 1572.95605469 512.194335938 1674.70019531 c 0,31,32
 505.251953125 1691.72070312 505.251953125 1691.72070312 505.251953125 1724.09570312 c 0,33,34
 505.251953125 1756.26171875 505.251953125 1756.26171875 514.016601562 1782.41113281 c 0,35,36
 550.029296875 1889.87402344 550.029296875 1889.87402344 671.806640625 1889.87402344 c 128,-1,37
 793.41796875 1889.87402344 793.41796875 1889.87402344 832.646484375 1785.16113281 c 0,38,39
 844.892578125 1752.47265625 844.892578125 1752.47265625 844.892578125 1710.29882812 c 128,-1,40
 844.892578125 1668.29785156 844.892578125 1668.29785156 831.830078125 1626.85449219 c 2,41,-1
 822.553710938 1597.48730469 l 1,42,-1
 853.311523438 1595.87207031 l 2,43,44
 873.525390625 1594.80566406 873.525390625 1594.80566406 911.638671875 1593.8515625 c 2,45,-1
 914.563476562 1593.77832031 l 1,46,-1
 914.563476562 1511.375 l 1,47,-1
 911.51171875 1511.42773438 l 2,48,49
 876.284179688 1512.04101562 876.284179688 1512.04101562 861.571289062 1513.51855469 c 2,50,-1
 782.775390625 1521.09179688 l 1,51,52
 721.950195312 1383.44628906 721.950195312 1383.44628906 600.155273438 1297.7421875 c 0,53,54
 538.19140625 1254.13867188 538.19140625 1254.13867188 470.0390625 1253.82128906 c 0,55,56
 279.547851562 1252.93457031 279.547851562 1252.93457031 272.821289062 1566.79492188 c 2,57,-1
 272.754882812 1569.859375 l 1,58,-1
 331.083984375 1569.859375 l 1,59,-1
 331.27734375 1567.06640625 l 2,18,19
EndSplineSet
EndChar

StartChar: uni064D
Encoding: 1613 1613 45
Width: -24
VWidth: 2231
GlyphClass: 4
Flags: W
AnchorPoint: "Anchor-7" 534.761 50.6797 mark 0
AnchorPoint: "Anchor-6" 534.761 50.6797 mark 0
AnchorPoint: "Anchor-0" 614.975 -455.578 basemark 0
AnchorPoint: "Anchor-0" 534.761 50.6797 mark 0
LayerCount: 2
Fore
SplineSet
275.06640625 -503.51171875 m 1,0,-1
 275.06640625 -406.606445312 l 1,1,-1
 780.14453125 -200.075195312 l 1,2,-1
 780.14453125 -296.983398438 l 1,3,-1
 275.06640625 -503.51171875 l 1,0,-1
275.06640625 -257.674804688 m 1,4,-1
 275.06640625 -160.76953125 l 1,5,-1
 780.14453125 45.759765625 l 1,6,-1
 780.14453125 -51.146484375 l 1,7,-1
 275.06640625 -257.674804688 l 1,4,-1
EndSplineSet
EndChar

StartChar: uni064E
Encoding: 1614 1614 46
Width: -24
VWidth: 2231
GlyphClass: 4
Flags: W
AnchorPoint: "Anchor-10" 541.027 1314.54 mark 0
AnchorPoint: "Anchor-9" 541.027 1314.54 mark 0
AnchorPoint: "Anchor-1" 520.452 1629.02 basemark 0
AnchorPoint: "Anchor-1" 541.027 1314.54 mark 0
LayerCount: 2
Fore
SplineSet
267.21875 1291.70019531 m 1,0,-1
 267.21875 1392.79296875 l 1,1,-1
 745.401367188 1588.32519531 l 1,2,-1
 745.401367188 1487.23339844 l 1,3,-1
 267.21875 1291.70019531 l 1,0,-1
EndSplineSet
EndChar

StartChar: uni064F
Encoding: 1615 1615 47
Width: -24
VWidth: 2231
GlyphClass: 4
Flags: W
AnchorPoint: "Anchor-10" 597.961 1261.64 mark 0
AnchorPoint: "Anchor-9" 597.961 1261.64 mark 0
AnchorPoint: "Anchor-1" 528.853 1858.42 basemark 0
AnchorPoint: "Anchor-1" 597.961 1261.64 mark 0
LayerCount: 2
Fore
SplineSet
791.53125 1418.96386719 m 1,0,1
 737.403118743 1420.05195662 737.403118743 1420.05195662 666.219726562 1427.66113281 c 1,2,3
 613.530911695 1353.51764752 613.530911695 1353.51764752 523.468092566 1297.92483938 c 128,-1,4
 433.388997783 1242.32198483 433.388997783 1242.32198483 305.546875 1235.00097656 c 1,5,-1
 305.546875 1311.64160156 l 1,6,7
 459.386702053 1319.56060433 459.386702053 1319.56060433 554.650390625 1423.61230469 c 1,8,-1
 581.120117188 1451.4921875 l 1,9,10
 482.564496235 1478.18002467 482.564496235 1478.18002467 444 1526 c 4,11,12
 412 1565 412 1565 412.155761719 1623.29785156 c 0,13,14
 412 1699 412 1699 470 1743 c 0,15,16
 533 1791 533 1791 609.870117188 1769.41308594 c 0,17,18
 648.516601562 1758.59375 648.516601562 1758.59375 677.844726562 1729.57128906 c 0,19,20
 726.754969688 1681.17079907 726.754969688 1681.17079907 727.021484375 1603.67773438 c 0,21,22
 726.756835938 1571.12988281 726.756835938 1571.12988281 712.696289062 1525.93945312 c 2,23,-1
 704.4375 1499.3984375 l 1,24,-1
 732.193359375 1497.75878906 l 2,25,26
 763.574501539 1495.91399151 763.574501539 1495.91399151 791.53125 1495.62890625 c 1,27,-1
 791.53125 1418.96386719 l 1,0,1
624.38671875 1512.61425781 m 1,28,29
 649.851791442 1573.25598795 649.851791442 1573.25598795 648.895719723 1614 c 0,30,31
 647.485729449 1674.0882336 647.485729449 1674.0882336 604 1688.80306403 c 0,32,33
 565 1702 565 1702 536 1688 c 0,34,35
 501 1670 501 1670 492.629882812 1633.48925781 c 0,36,37
 476.825808147 1559.57427236 476.825808147 1559.57427236 600.418945312 1520.04785156 c 0,38,39
 611.1174251 1516.62503855 611.1174251 1516.62503855 624.38671875 1512.61425781 c 1,28,29
EndSplineSet
EndChar

StartChar: uni0650
Encoding: 1616 1616 48
Width: -24
VWidth: 2231
GlyphClass: 4
Flags: W
AnchorPoint: "Anchor-7" 549.05 -18.2773 mark 0
AnchorPoint: "Anchor-6" 549.05 -18.2773 mark 0
AnchorPoint: "Anchor-0" 595.143 -318.976 basemark 0
AnchorPoint: "Anchor-0" 549.05 -18.2773 mark 0
LayerCount: 2
Fore
SplineSet
312.181640625 -337.149414062 m 1,0,-1
 312.181640625 -236.056640625 l 1,1,-1
 790.362304688 -40.5263671875 l 1,2,-1
 790.362304688 -141.6171875 l 1,3,-1
 312.181640625 -337.149414062 l 1,0,-1
EndSplineSet
EndChar

StartChar: uni0651
Encoding: 1617 1617 49
Width: -24
VWidth: 2231
GlyphClass: 4
Flags: W
AnchorPoint: "Anchor-10" 589.815 1342.68 mark 0
AnchorPoint: "Anchor-9" 589.815 1342.68 mark 0
AnchorPoint: "Anchor-1" 560.134 1778.24 basemark 0
AnchorPoint: "Anchor-1" 589.815 1342.68 mark 0
LayerCount: 2
Fore
SplineSet
589.624023438 1609.57910156 m 0,0,1
 589.001953125 1501.4296875 589.001953125 1501.4296875 693.940429688 1501.37597656 c 0,2,3
 734.927734375 1501.40332031 734.927734375 1501.40332031 755.041992188 1522.78125 c 128,-1,4
 775.155273438 1544.16015625 775.155273438 1544.16015625 775.155273438 1587.88769531 c 0,5,6
 775.155273438 1677.109375 775.155273438 1677.109375 768.518554688 1719.46484375 c 2,7,-1
 768.274414062 1721.01953125 l 1,8,-1
 769.415039062 1722.10351562 l 2,9,10
 805.2890625 1756.20898438 805.2890625 1756.20898438 846.075195312 1722.88671875 c 2,11,-1
 846.989257812 1722.140625 l 1,12,-1
 847.149414062 1720.97070312 l 2,13,14
 857.791015625 1643.27148438 857.791015625 1643.27148438 857.391601562 1583.41015625 c 0,15,16
 857.592773438 1483.8359375 857.592773438 1483.8359375 818.15234375 1433.35351562 c 128,-1,17
 778.712890625 1382.87207031 778.712890625 1382.87207031 699.985351562 1382.79101562 c 0,18,19
 605.83984375 1382.9453125 605.83984375 1382.9453125 566.563476562 1453.55566406 c 1,20,21
 530.669921875 1312.39160156 530.669921875 1312.39160156 412.158203125 1312.39160156 c 0,22,23
 406.493164062 1312.39160156 406.493164062 1312.39160156 401.021484375 1312.62402344 c 128,-1,24
 395.549804688 1312.85644531 395.549804688 1312.85644531 390.272460938 1313.32128906 c 0,25,26
 230.986328125 1327.36425781 230.986328125 1327.36425781 251.323242188 1550.8203125 c 0,27,28
 252.833984375 1567.01464844 252.833984375 1567.01464844 255.591796875 1587.50878906 c 128,-1,29
 258.349609375 1608.00195312 258.349609375 1608.00195312 262.356445312 1632.82421875 c 2,30,-1
 262.515625 1633.80957031 l 1,31,-1
 263.233398438 1634.50390625 l 2,32,33
 302.798828125 1672.72265625 302.798828125 1672.72265625 336.203125 1633.71777344 c 2,34,-1
 337.091796875 1632.68066406 l 1,35,-1
 336.892578125 1631.33007812 l 2,36,37
 330.797851562 1589.92285156 330.797851562 1589.92285156 327.86328125 1562.61914062 c 128,-1,38
 324.9296875 1535.31640625 324.9296875 1535.31640625 325.171875 1522.50195312 c 0,39,40
 324.924804688 1473.40332031 324.924804688 1473.40332031 348.555664062 1449.36523438 c 128,-1,41
 372.186523438 1425.32714844 372.186523438 1425.32714844 420.577148438 1425.38183594 c 0,42,43
 464.064453125 1425.32714844 464.064453125 1425.32714844 487.010742188 1456.87109375 c 128,-1,44
 509.958007812 1488.4140625 509.958007812 1488.4140625 512.455078125 1552.94238281 c 0,45,46
 514.1796875 1598.54785156 514.1796875 1598.54785156 513.706054688 1686.78710938 c 2,47,-1
 513.69921875 1688.17871094 l 1,48,-1
 514.756835938 1689.08300781 l 2,49,50
 553.583007812 1722.28125 553.583007812 1722.28125 586.87890625 1688.79394531 c 2,51,-1
 587.708007812 1687.95996094 l 1,52,-1
 587.749023438 1686.78417969 l 2,53,54
 589.006835938 1650.92871094 589.006835938 1650.92871094 589.624023438 1609.57910156 c 0,0,1
EndSplineSet
EndChar

StartChar: uni0652
Encoding: 1618 1618 50
Width: -31
VWidth: 2789
GlyphClass: 4
Flags: W
AnchorPoint: "Anchor-10" 711.878 1488.92 mark 0
AnchorPoint: "Anchor-9" 711.878 1488.92 mark 0
AnchorPoint: "Anchor-1" 702.956 2081.45 basemark 0
AnchorPoint: "Anchor-1" 711.878 1488.92 mark 0
LayerCount: 2
Fore
SplineSet
713.103515625 1613.2265625 m 128,-1,1
 775.150376836 1613.2265625 775.150376836 1613.2265625 817.670898438 1655.75488281 c 128,-1,2
 860.19921875 1698.27930448 860.19921875 1698.27930448 860.19921875 1759.484375 c 128,-1,3
 860.19921875 1820.69140625 860.19921875 1820.69140625 817.672851562 1863.21777344 c 128,-1,4
 775.146484375 1905.74511719 775.146484375 1905.74511719 713.099609375 1905.74511719 c 128,-1,5
 651.052744008 1905.74511719 651.052744008 1905.74511719 608.952148438 1863.63867188 c 128,-1,6
 566.844726562 1821.53320312 566.844726562 1821.53320312 566.844726562 1759.48583984 c 0,7,8
 566.844726562 1697.43847656 566.844726562 1697.43847656 608.951171875 1655.33203125 c 128,-1,0
 651.056640625 1613.2265625 651.056640625 1613.2265625 713.103515625 1613.2265625 c 128,-1,1
938.178710938 1760.04003906 m 128,-1,10
 938.178710938 1665.77050781 938.178710938 1665.77050781 873.120117188 1600.29492188 c 128,-1,11
 808.119140625 1534.88378906 808.119140625 1534.88378906 713.916015625 1534.88378906 c 128,-1,12
 619.706054688 1534.88378906 619.706054688 1534.88378906 554.71484375 1600.29492188 c 128,-1,13
 489.654296875 1665.77246094 489.654296875 1665.77246094 489.654296875 1760.04003906 c 128,-1,14
 489.654296875 1854.26855469 489.654296875 1854.26855469 554.666992188 1919.29296875 c 128,-1,15
 619.676757812 1984.30371094 619.676757812 1984.30371094 713.916015625 1984.30371094 c 128,-1,16
 808.156252321 1984.30371094 808.156252321 1984.30371094 873.165039062 1919.29296875 c 128,-1,9
 938.178710938 1854.26953125 938.178710938 1854.26953125 938.178710938 1760.04003906 c 128,-1,10
EndSplineSet
EndChar

StartChar: uni0653
Encoding: 1619 1619 51
Width: -3
VWidth: 2759
GlyphClass: 4
Flags: W
AnchorPoint: "Anchor-10" 485.314 1565.6 mark 0
AnchorPoint: "Anchor-9" 485.314 1565.6 mark 0
AnchorPoint: "Anchor-1" 455.074 2023.52 basemark 0
AnchorPoint: "Anchor-1" 485.314 1565.6 mark 0
LayerCount: 2
Fore
SplineSet
362.12890625 1670.21582031 m 1,0,1
 268 1662 268 1662 177.368164062 1582.37890625 c 1,2,3
 150 1600 150 1600 134.283203125 1620.86230469 c 1,4,5
 215 1831 215 1831 314.73828125 1831.14941406 c 4,6,7
 384 1831 384 1831 465.94140625 1820.47558594 c 132,-1,8
 548 1810 548 1810 582.85546875 1809.96875 c 4,9,10
 708 1810 708 1810 757.977539062 1822.60351562 c 4,11,12
 811 1836 811 1836 820.592773438 1829.48730469 c 5,13,14
 833 1816 833 1816 801.384765625 1769.48925781 c 4,15,16
 776 1733 776 1733 728.657226562 1698.57617188 c 0,17,18
 653 1645 653 1645 362.12890625 1670.21582031 c 1,0,1
EndSplineSet
EndChar

StartChar: uni0657
Encoding: 1623 1623 54
Width: -34
VWidth: 3005
GlyphClass: 4
Flags: W
AnchorPoint: "Anchor-10" 743.995 1752.27 mark 0
AnchorPoint: "Anchor-9" 743.995 1752.27 mark 0
AnchorPoint: "Anchor-1" 743.995 2711.73 basemark 0
AnchorPoint: "Anchor-1" 743.995 1752.27 mark 0
LayerCount: 2
Fore
SplineSet
346.939453125 2337.88791595 m 1,0,1
 417.403375079 2335.96334391 417.403375079 2335.96334391 513.786977564 2326.01391817 c 1,2,3
 596.644642021 2449.75296673 596.644642021 2449.75296673 711.51958869 2521.26743707 c 0,4,5
 871.884004803 2620.16984344 871.884004803 2620.16984344 1014.69238281 2633.57649374 c 1,6,-1
 1014.69238281 2539.58189734 l 1,7,8
 895.963038063 2530.16866458 895.963038063 2530.16866458 724.589569309 2399.0105334 c 0,9,10
 688.65353045 2370.90141887 688.65353045 2370.90141887 658.857611413 2339.53569478 c 2,11,-1
 617.522009126 2296.02409756 l 1,12,-1
 676.403024639 2282.92686625 l 2,13,14
 686.237733178 2280.75670371 686.237733178 2280.75670371 733.408748699 2256.07347266 c 0,15,16
 830.209071663 2204.53763515 830.209071663 2204.53763515 848.677334118 2108.90087834 c 128,-1,17
 867.145596573 2013.26412154 867.145596573 2013.26412154 810.16577341 1943.09467376 c 128,-1,18
 753.185950247 1872.92522599 753.185950247 1872.92522599 653.797822658 1873.45370496 c 128,-1,19
 554.409695068 1873.98218393 554.409695068 1873.98218393 494.203509735 1932.07586924 c 128,-1,20
 433.997324401 1990.16955456 433.997324401 1990.16955456 434.028319766 2093.24464192 c 0,21,22
 433.997294914 2135.23096282 433.997294914 2135.23096282 453.159700588 2196.82184085 c 2,23,-1
 466.05073013 2238.25410581 l 1,24,-1
 422.730291066 2240.81188851 l 2,25,26
 386.110891581 2242.99392773 386.110891581 2242.99392773 346.939453125 2243.61609684 c 1,27,-1
 346.939453125 2337.88791595 l 1,0,1
627.271484375 1967.77539062 m 0,28,29
 752.862304688 1967.77539062 752.862304688 1967.77539062 752.862304688 2075.53710938 c 0,30,31
 752.862304688 2153.13917103 752.862304688 2153.13917103 665.095793259 2188.2493423 c 0,32,33
 634.607589685 2200.45363058 634.607589685 2200.45363058 565.395678366 2221.77574768 c 1,34,-1
 544.508414709 2173.05059243 l 2,35,36
 528.478515625 2135.65078296 528.478515625 2135.65078296 528.478515625 2093.93759995 c 0,37,38
 528.478515625 2052.22441695 528.478515625 2052.22441695 545.744264664 2022.14173716 c 0,39,40
 576.947458757 1967.77539062 576.947458757 1967.77539062 627.271484375 1967.77539062 c 0,28,29
EndSplineSet
EndChar

StartChar: uni065A
Encoding: 1626 1626 55
Width: 1473
VWidth: 3008
GlyphClass: 4
Flags: W
AnchorPoint: "Anchor-10" 743.995 1755.27 mark 0
AnchorPoint: "Anchor-9" 743.995 1755.27 mark 0
AnchorPoint: "Anchor-1" 741.044 2419.52 basemark 0
AnchorPoint: "Anchor-1" 743.995 1755.27 mark 0
LayerCount: 2
Fore
SplineSet
652.322265625 1877.75097656 m 1,0,-1
 401.5234375 2297.03613281 l 1,1,-1
 535.5390625 2297.03613281 l 1,2,-1
 743.995117188 1984.34179688 l 1,3,-1
 952.453125 2297.03613281 l 1,4,-1
 1086.47070312 2297.03613281 l 1,5,-1
 835.666992188 1877.75097656 l 1,6,-1
 652.322265625 1877.75097656 l 1,0,-1
EndSplineSet
EndChar

StartChar: afii57392
Encoding: 1632 1632 56
Width: 924
VWidth: 3201
GlyphClass: 2
Flags: W
LayerCount: 2
Fore
SplineSet
471.256835938 829.943359375 m 1,0,-1
 696.0390625 605.161132812 l 1,1,-1
 465.84765625 374.969726562 l 1,2,-1
 241.065429688 599.752929688 l 1,3,-1
 471.256835938 829.943359375 l 1,0,-1
EndSplineSet
EndChar

StartChar: afii57393
Encoding: 1633 1633 57
Width: 751
VWidth: 3192
GlyphClass: 2
Flags: W
LayerCount: 2
Fore
SplineSet
437.7734375 818.020507812 m 0,0,1
 525 396 525 396 526.737304688 159.875 c 0,2,3
 527 74 527 74 516.20703125 53.439453125 c 0,4,5
 511 43 511 43 413.61328125 17.548828125 c 1,6,7
 380 537 380 537 125.161132812 1231.36523438 c 1,8,-1
 235 1367 l 2,9,10
 260 1398 260 1398 280 1350 c 0,11,12
 375 1120 375 1120 437.7734375 818.020507812 c 0,0,1
EndSplineSet
EndChar

StartChar: afii57394
Encoding: 1634 1634 58
Width: 1055
VWidth: 3192
GlyphClass: 2
Flags: W
LayerCount: 2
Fore
SplineSet
437.7734375 818.020507812 m 5,0,1
 526 396 526 396 526.737304688 159.875 c 4,2,3
 527 74 527 74 516.20703125 53.439453125 c 4,4,5
 511 43 511 43 413.61328125 17.548828125 c 5,6,7
 380 542 380 542 125.827148438 1232.97460938 c 5,8,-1
 232 1365 l 6,9,10
 260 1400 260 1400 277 1355 c 4,11,12
 301 1290 301 1290 346.79296875 1174.97558594 c 4,13,14
 413 1007 413 1007 581.317382812 1007.43457031 c 4,15,16
 801.955078125 1007 801.955078125 1007 834.557617188 1323.85839844 c 6,17,-1
 839.456054688 1371.46484375 l 5,18,-1
 961.645507812 1354.99316406 l 5,19,-1
 959.405273438 1300.97363281 l 6,20,21
 939 803 939 803 559.541015625 804.7734375 c 4,22,23
 494 805 494 805 437.7734375 818.020507812 c 5,0,1
EndSplineSet
EndChar

StartChar: afii57395
Encoding: 1635 1635 59
Width: 1255
VWidth: 3192
GlyphClass: 2
Flags: W
LayerCount: 2
Fore
SplineSet
1184.61523438 1278.93945312 m 2,0,1
 1183.76855469 817.321289062 1183.76855469 817.321289062 903.176757812 816.4140625 c 0,2,3
 775 816 775 816 707.791992188 925.0078125 c 1,4,5
 634.573242188 809.598632812 634.573242188 809.598632812 496.26953125 813.486328125 c 0,6,7
 465 814 465 814 437.7734375 818.020507812 c 1,8,9
 527 391 527 391 526.737304688 159.875 c 0,10,11
 527 74 527 74 516.20703125 53.439453125 c 0,12,13
 511 43 511 43 413.61328125 17.548828125 c 1,14,15
 381 534 381 534 125.0625 1232.9765625 c 1,16,-1
 232.319335938 1364 l 2,17,18
 261 1399 261 1399 274.658203125 1360 c 0,19,20
 328 1214 328 1214 328.822265625 1212.25390625 c 0,21,22
 408 1007 408 1007 524.548828125 1007.44433594 c 0,23,24
 668.116210938 1007 668.116210938 1007 677.673828125 1205.43945312 c 2,25,-1
 683.778320312 1332.18359375 l 1,26,-1
 806.91796875 1329.74707031 l 1,27,-1
 811.6328125 1189.51074219 l 2,28,29
 818 996 818 996 918.743164062 995.64453125 c 0,30,31
 1061.7734375 995.999023438 1061.7734375 995.999023438 1062.55371094 1307.04199219 c 2,32,-1
 1062.67675781 1356.07910156 l 1,33,-1
 1184.74707031 1350.83496094 l 1,34,-1
 1184.61523438 1278.93945312 l 2,0,1
EndSplineSet
EndChar

StartChar: afii57396
Encoding: 1636 1636 60
Width: 951
VWidth: 3198
GlyphClass: 2
Flags: W
LayerCount: 2
Fore
SplineSet
265.868164062 367.783203125 m 1,0,1
 483.928710938 278.483398438 483.928710938 278.483398438 833.866210938 290.00390625 c 1,2,-1
 829.522460938 110.3984375 l 2,3,4
 828.447265625 54.6884765625 828.447265625 54.6884765625 784.1875 56.896484375 c 0,5,6
 420.52734375 73.830078125 420.52734375 73.830078125 170.844726562 238.487304688 c 0,7,8
 97.2626953125 287.404296875 97.2626953125 287.404296875 132.114257812 348.624023438 c 0,9,10
 250.2265625 559.081054688 250.2265625 559.081054688 478.111328125 683.904296875 c 1,11,12
 264.126953125 776.407226562 264.126953125 776.407226562 175.875 879.651367188 c 0,13,14
 110.708007812 954.71484375 110.708007812 954.71484375 126.05078125 999.676757812 c 0,15,16
 190.32421875 1198.58203125 190.32421875 1198.58203125 676.075195312 1407.875 c 0,17,18
 711.268554688 1423.0078125 711.268554688 1423.0078125 714.65625 1409.72949219 c 0,19,20
 717.184570312 1399.80957031 717.184570312 1399.80957031 711.428710938 1372.83105469 c 2,21,-1
 689.149414062 1268.37304688 l 2,22,23
 675.290039062 1203.38574219 675.290039062 1203.38574219 661.697265625 1139.32421875 c 1,24,25
 424.337890625 1126.28417969 424.337890625 1126.28417969 258.137695312 1057.65722656 c 1,26,27
 443.8828125 901.575195312 443.8828125 901.575195312 721.173828125 779.940429688 c 1,28,-1
 721.169921875 778.014648438 l 2,29,30
 721.083007812 738.778320312 721.083007812 738.778320312 720.05078125 695.622070312 c 1,31,32
 400.963867188 557.657226562 400.963867188 557.657226562 265.868164062 367.783203125 c 1,0,1
EndSplineSet
EndChar

StartChar: afii57397
Encoding: 1637 1637 61
Width: 1180
VWidth: 3521
GlyphClass: 2
Flags: W
LayerCount: 2
Fore
SplineSet
588.083984375 1085.37695312 m 1,0,1
 274.443359375 726.84765625 274.443359375 726.84765625 273.653320312 531.059570312 c 0,2,3
 272.505859375 293.645507812 272.505859375 293.645507812 579.124023438 296.450195312 c 0,4,5
 929.049804688 300.444335938 929.049804688 300.444335938 925.840820312 530.348632812 c 0,6,7
 922.251953125 780.153320312 922.251953125 780.153320312 588.083984375 1085.37695312 c 1,0,1
181.6171875 272.970703125 m 0,8,9
 84.62109375 436.297851562 84.62109375 436.297851562 184.657226562 699.337890625 c 0,10,11
 265.619140625 912.22265625 265.619140625 912.22265625 459.086914062 1138.11523438 c 6,12,-1
 485.235351562 1168.64550781 l 1,13,-1
 406.828125 1227.45214844 l 1,14,-1
 531.092773438 1440.69238281 l 1,15,16
 1021.2109375 983.538085938 1021.2109375 983.538085938 1046.05664062 554.466796875 c 0,17,18
 1060.41113281 303.41796875 1060.41113281 303.41796875 899.911132812 175.606445312 c 0,19,20
 791.890625 89.7783203125 791.890625 89.7783203125 583.512695312 89.1376953125 c 0,21,22
 291.111328125 88.7978515625 291.111328125 88.7978515625 181.6171875 272.970703125 c 0,8,9
EndSplineSet
EndChar

StartChar: afii57398
Encoding: 1638 1638 62
Width: 1326
VWidth: 3201
GlyphClass: 2
Flags: W
LayerCount: 2
Fore
SplineSet
960.790039062 1336.5625 m 1,0,1
 980 362 980 362 1168.42871094 162.818359375 c 1,2,-1
 1042.62597656 15.7109375 l 1,3,4
 947 112 947 112 891.220703125 330.23828125 c 0,5,6
 835 552 835 552 826.083984375 1096.27929688 c 5,7,8
 313 1052 313 1052 171.764648438 1131.45800781 c 4,9,10
 130.226390493 1155.69291215 130.226390493 1155.69291215 127.368164062 1361.57324219 c 0,11,12
 127 1394 127 1394 152.750976562 1384.79003906 c 0,13,14
 459 1270 459 1270 960.790039062 1336.5625 c 1,0,1
EndSplineSet
EndChar

StartChar: afii57399
Encoding: 1639 1639 63
Width: 1171
VWidth: 3202
GlyphClass: 2
Flags: W
LayerCount: 2
Fore
SplineSet
1102.85058594 1220.16992188 m 1,0,1
 784 591 784 591 647.041992188 19.7314453125 c 1,2,-1
 536.290039062 19.7314453125 l 5,3,4
 400 556 400 556 80.8798828125 1221.49804688 c 1,5,-1
 178.580078125 1385.19824219 l 2,6,7
 188 1401 188 1401 198.03515625 1379.60546875 c 0,8,9
 490 773 490 773 591.544921875 373.686523438 c 1,10,11
 711 863 711 863 964.40625 1374.61132812 c 0,12,13
 975 1396 975 1396 986.2578125 1383.78027344 c 1,14,-1
 1102.85058594 1220.16992188 l 1,0,1
EndSplineSet
EndChar

StartChar: afii57400
Encoding: 1640 1640 64
Width: 1171
VWidth: 3202
GlyphClass: 2
Flags: W
LayerCount: 2
Fore
SplineSet
985.959960938 21.2333984375 m 6,0,1
 975.922851562 7.1572265625 975.922851562 7.1572265625 964.412109375 30.705078125 c 4,2,3
 718 508 718 508 591.546875 1031.64257812 c 5,4,5
 491 631 491 631 198.028320312 25.7138671875 c 4,6,7
 187.826171875 4.640625 187.826171875 4.640625 178.583984375 20.126953125 c 6,8,-1
 80.8798828125 183.834960938 l 5,9,10
 400 851 400 851 536.290039062 1385.59960938 c 5,11,-1
 647.041992188 1385.59960938 l 5,12,13
 784 813 784 813 1102.85058594 185.16015625 c 5,14,-1
 985.959960938 21.2333984375 l 6,0,1
EndSplineSet
EndChar

StartChar: afii57401
Encoding: 1641 1641 65
Width: 1039
VWidth: 3202
GlyphClass: 2
Flags: W
LayerCount: 2
Fore
SplineSet
638.711914062 659.280273438 m 5,0,1
 535 643 535 643 452.115234375 642.609375 c 4,2,3
 117 643 117 643 115.8671875 924.969726562 c 28,4,5
 115 1131 115 1131 211.135742188 1267.31933594 c 4,6,7
 298 1390 298 1390 424.413085938 1390.1484375 c 4,8,9
 551 1390 551 1390 634.024414062 1295.21191406 c 4,10,11
 746 1168 746 1168 758.05859375 876.52734375 c 4,12,13
 782 309 782 309 939.734375 162.061523438 c 5,14,-1
 815.612304688 15.9990234375 l 5,15,16
 753 70 753 70 713.923828125 168.674804688 c 4,17,18
 650 329 650 329 638.711914062 659.280273438 c 5,0,1
309.877929688 864.94140625 m 4,19,20
 359 843 359 843 434.59765625 843.33203125 c 4,21,22
 513 843 513 843 618.646484375 866.412109375 c 5,23,-1
 612.950195312 925.599609375 l 6,24,25
 588 1185 588 1185 416.46484375 1184.91699219 c 4,26,27
 351 1185 351 1185 307.006835938 1119.77636719 c 4,28,29
 260 1049 260 1049 260 968 c 132,-1,30
 260 887 260 887 309.877929688 864.94140625 c 4,19,20
EndSplineSet
EndChar

StartChar: afii57381
Encoding: 1642 1642 66
Width: 1154
VWidth: 3432
GlyphClass: 2
Flags: W
LayerCount: 2
Fore
SplineSet
693.860351562 299.670898438 m 4,0,1
 693.860351562 363.270507812 693.860351562 363.270507812 738.379882812 408.850585938 c 4,2,3
 785.020507812 454.430664062 785.020507812 454.430664062 848.620117188 454.430664062 c 4,4,5
 891.020507812 454.430664062 891.020507812 454.430664062 926 433.23046875 c 4,6,7
 962.040039062 412.030273438 962.040039062 412.030273438 982.180664062 377.05078125 c 4,8,9
 1003.37988281 342.0703125 1003.37988281 342.0703125 1003.37988281 299.670898438 c 4,10,11
 1003.37988281 236.0703125 1003.37988281 236.0703125 957.799804688 189.430664062 c 4,12,13
 912.220703125 144.911132812 912.220703125 144.911132812 848.620117188 144.911132812 c 4,14,15
 806.220703125 144.911132812 806.220703125 144.911132812 770.180664062 165.05078125 c 4,16,17
 734.140625 186.250976562 734.140625 186.250976562 714 221.23046875 c 4,18,19
 693.860351562 257.270507812 693.860351562 257.270507812 693.860351562 299.670898438 c 4,0,1
150.024414062 1126.92871094 m 4,20,21
 150 1191 150 1191 194.543945312 1236.10839844 c 4,22,23
 241 1282 241 1282 304.784179688 1281.68847656 c 4,24,25
 347 1282 347 1282 382.1640625 1260.48828125 c 4,26,27
 418 1239 418 1239 438.344726562 1204.30859375 c 4,28,29
 460 1169 460 1169 459.543945312 1126.92871094 c 4,30,31
 460 1063 460 1063 413.963867188 1016.68847656 c 4,32,33
 368 972 368 972 304.784179688 972.168945312 c 4,34,35
 262 972 262 972 226.344726562 992.30859375 c 4,36,37
 190 1014 190 1014 170.1640625 1048.48828125 c 4,38,39
 150 1085 150 1085 150.024414062 1126.92871094 c 4,20,21
823 1381.96875 m 5,40,-1
 967.3828125 1307.58300781 l 5,41,-1
 304.471679688 25.5849609375 l 5,42,-1
 160.638671875 104.627929688 l 5,43,-1
 823 1381.96875 l 5,40,-1
EndSplineSet
EndChar

StartChar: uni066B
Encoding: 1643 1643 67
Width: 938
VWidth: 3435
GlyphClass: 2
Flags: W
LayerCount: 2
Fore
SplineSet
638.796875 639.668945312 m 1,0,-1
 758.693359375 565.4609375 l 1,1,-1
 185.013671875 -390.555664062 l 1,2,-1
 63.0546875 -309.609375 l 1,3,-1
 638.796875 639.668945312 l 1,0,-1
EndSplineSet
EndChar

StartChar: uni066C
Encoding: 1644 1644 68
Width: 559
VWidth: 3387
GlyphClass: 2
Flags: W
LayerCount: 2
Fore
SplineSet
264.901367188 272.616210938 m 4,0,1
 424 274 424 274 413.06640625 69.00390625 c 4,2,3
 400 -180 400 -180 146.916015625 -330.280273438 c 4,4,5
 95 -361 95 -361 75.146484375 -332.004882812 c 4,6,7
 66 -318 66 -318 87.6611328125 -301.541992188 c 4,8,9
 167 -244 167 -244 220.873046875 -158.330078125 c 4,10,11
 275 -73 275 -73 268.471679688 -0.5205078125 c 5,12,-1
 242.151367188 3.568359375 l 5,13,14
 174 8 174 8 141.080078125 52.23046875 c 4,15,16
 110 94 110 94 121.057617188 153.57421875 c 4,17,18
 143 272 143 272 264.901367188 272.616210938 c 4,0,1
EndSplineSet
EndChar

StartChar: afii63167
Encoding: 1645 1645 69
Width: 1734
VWidth: 3186
GlyphClass: 2
Flags: W
LayerCount: 2
Fore
SplineSet
218.536132812 1158.84375 m 1,0,-1
 714.16015625 1158.84375 l 1,1,-1
 868.931640625 1630.06054688 l 1,2,-1
 1023.70019531 1158.84375 l 1,3,-1
 1519.328125 1158.84375 l 1,4,-1
 1118.91503906 866.131835938 l 1,5,-1
 1272.1015625 395.526367188 l 1,6,-1
 868.931640625 686.861328125 l 1,7,-1
 465.758789062 395.526367188 l 1,8,-1
 618.944335938 866.131835938 l 1,9,-1
 218.536132812 1158.84375 l 1,0,-1
EndSplineSet
EndChar

StartChar: uni066E
Encoding: 1646 1646 70
Width: 1798
VWidth: 3745
GlyphClass: 2
Flags: W
AnchorPoint: "Anchor-10" 787.906 1271.55 basechar 0
AnchorPoint: "Anchor-7" 645.812 -212.49 basechar 0
LayerCount: 2
Fore
SplineSet
286.423828125 732.236328125 m 1,0,1
 253 608 253 608 253 516.235342347 c 0,2,3
 253 425 253 425 299.510742188 355.678150521 c 0,4,5
 417 185 417 185 804.015625 181.172851562 c 0,6,7
 1337 176 1337 176 1526.56835938 331.3046875 c 0,8,9
 1585 379 1585 379 1467.75878906 724.01953125 c 1,10,-1
 1577 853 l 2,11,12
 1594 873 1594 873 1616 830 c 0,13,14
 1697 675 1697 675 1697.26367188 470.703125 c 0,15,16
 1697 357 1697 357 1654.35449219 267.594726562 c 0,17,18
 1526 2 1526 2 844.224609375 2 c 0,19,20
 486 2 486 2 307.02734375 100.59375 c 0,21,22
 104 213 104 213 104.250976562 457.86328125 c 0,23,24
 105 607 105 607 184.85546875 766.762695312 c 1,25,-1
 286.423828125 732.236328125 l 1,0,1
EndSplineSet
Substitution2: "'init' Initial Forms in Arabic lookup 13 subtable" uni066E.init
Substitution2: "'medi' Medial Forms in Arabic lookup 11 subtable" uni066E.medi
Substitution2: "'fina' Terminal Forms in Arabic lookup 9 subtable" uni066E.fina
EndChar

StartChar: uni066F
Encoding: 1647 1647 71
Width: 1400
VWidth: 3773
GlyphClass: 2
Flags: W
AnchorPoint: "Anchor-10" 547.298 1166.3 basechar 0
AnchorPoint: "Anchor-7" 567.936 -696.213 basechar 0
LayerCount: 2
Fore
SplineSet
670.970703125 -437.53125 m 0,0,1
 458 -438 458 -438 312.004882812 -345.916015625 c 0,2,3
 112 -219 112 -219 111.669921875 66.2431640625 c 0,4,5
 112 270 112 270 209.797851562 486.2734375 c 1,6,-1
 320.059570312 453.734375 l 1,7,8
 263 266 263 266 262.885742188 114.515625 c 0,9,10
 263 -258 263 -258 677.818359375 -257.944335938 c 0,11,12
 1001 -258 1001 -258 1123.20117188 -58.7724609375 c 0,13,14
 1156 -5 1156 -5 1160.0390625 103.715820312 c 1,15,16
 951 59 951 59 822.21484375 112.594726562 c 0,17,18
 694 166 694 166 694.176757812 317.1328125 c 0,19,20
 695 430 695 430 729.049804688 521.091796875 c 0,21,22
 816 752 816 752 989.713867188 752.084960938 c 0,23,24
 1105 752 1105 752 1178 667.349609375 c 0,25,26
 1300 526 1300 526 1300 190 c 8,27,28
 1300 -108 1300 -108 1187.30566406 -240.540039062 c 0,29,30
 1021 -436 1021 -436 670.970703125 -437.53125 c 0,0,1
981.793945312 563.5078125 m 0,31,32
 865.849609375 563.091796875 865.849609375 563.091796875 831.94140625 424.169921875 c 0,33,34
 802.576171875 301.953125 802.576171875 301.953125 899.177734375 276.470703125 c 0,35,36
 968.849609375 258.091796875 968.849609375 258.091796875 1065.14453125 272.752929688 c 0,37,38
 1125.84960938 282.091796875 1125.84960938 282.091796875 1159.3125 297.861328125 c 1,39,40
 1148.84960938 437.091796875 1148.84960938 437.091796875 1101.97070312 498.970703125 c 0,41,42
 1053.84960938 563.091796875 1053.84960938 563.091796875 981.793945312 563.5078125 c 0,31,32
EndSplineSet
Substitution2: "'init' Initial Forms in Arabic lookup 13 subtable" uni066F.init
Substitution2: "'medi' Medial Forms in Arabic lookup 11 subtable" uni066F.medi
Substitution2: "'fina' Terminal Forms in Arabic lookup 9 subtable" uni066F.fina
EndChar

StartChar: uni0670
Encoding: 1648 1648 72
Width: 0
VWidth: 2975
GlyphClass: 4
Flags: W
AnchorPoint: "Anchor-10" 756.062 1750.01 mark 0
AnchorPoint: "Anchor-9" 756.062 1750.01 mark 0
AnchorPoint: "Anchor-1" 744.304 2357.37 basemark 0
AnchorPoint: "Anchor-1" 756.062 1750.01 mark 0
LayerCount: 2
Fore
SplineSet
738.67578125 1809.56933594 m 1,0,-1
 684.276367188 2203.83203125 l 5,1,-1
 804.50390625 2274.63378906 l 5,2,-1
 804.50390625 1831.46679688 l 1,3,-1
 738.67578125 1809.56933594 l 1,0,-1
EndSplineSet
EndChar

StartChar: uni0674
Encoding: 1652 1652 73
Width: 802
VWidth: 2756
GlyphClass: 2
Flags: W
LayerCount: 2
Fore
SplineSet
205.618164062 1773.71875 m 1,0,-1
 226.764648438 1918.70507812 l 1,1,2
 288.693144646 1948.00458171 288.693144646 1948.00458171 336.619140625 1968.37402344 c 1,3,4
 185.59375 1999.14648438 185.59375 1999.14648438 203.297851562 2133.63964844 c 0,5,6
 235.728515625 2377.36523438 235.728515625 2377.36523438 435.756835938 2375.49902344 c 0,7,8
 531.266902741 2374.98036183 531.266902741 2374.98036183 605.873046875 2302.95019531 c 1,9,-1
 570.676757812 2222.19726562 l 1,10,11
 357.250841773 2278.42372407 357.250841773 2278.42372407 303.178710938 2167.67675781 c 0,12,13
 289.402676455 2139.46159406 289.402676455 2139.46159406 299.153320312 2117.02734375 c 0,14,15
 346.140625 2009.0078125 346.140625 2009.0078125 550.62109375 2060.33496094 c 0,16,17
 587.163085938 2069.51074219 587.163085938 2069.51074219 592.739746094 2064.77880859 c 0,18,19
 606.786782462 2052.85955201 606.786782462 2052.85955201 606.594726562 2032.3671875 c 2,20,-1
 605.750976562 1940.01269531 l 1,21,22
 496.353022275 1910.22564091 496.353022275 1910.22564091 205.618164062 1773.71875 c 1,0,-1
EndSplineSet
EndChar

StartChar: uni06A1
Encoding: 1697 1697 77
Width: 1738
VWidth: 3773
GlyphClass: 2
Flags: W
AnchorPoint: "Anchor-10" 749.706 1448.19 basechar 0
AnchorPoint: "Anchor-7" 623.293 -197.962 basechar 0
LayerCount: 2
Fore
SplineSet
828.309570312 180.650390625 m 0,0,1
 1167 181 1167 181 1265.01660156 197.262695312 c 0,2,3
 1480 233 1480 233 1490.0703125 378.038085938 c 2,4,-1
 1492.07324219 405.609375 l 1,5,6
 1397 385 1397 385 1318.53345633 385.323504634 c 0,7,8
 1224 385 1224 385 1154.24902344 414.48828125 c 0,9,10
 1026 468 1026 468 1026.21059113 618.530644847 c 0,11,12
 1026 730 1026 730 1061.08398438 822.985351562 c 0,13,14
 1148 1054 1148 1054 1321.74804688 1053.97851562 c 0,15,16
 1438 1054 1438 1054 1507.04394531 967.787109375 c 0,17,18
 1638 806 1638 806 1637.52314397 454.116294351 c 0,19,20
 1637 2 1637 2 1051.59277344 2 c 2,21,-1
 825.678710938 2 l 0,22,23
 477 2 477 2 305.037109375 98.587890625 c 0,24,25
 104 212 104 212 104.243164062 454.830078125 c 0,26,27
 104 605 104 605 184.85546875 766.762695312 c 1,28,-1
 286.431640625 732.233398438 l 1,29,30
 254 613 254 613 253.690429688 523.778320312 c 0,31,32
 254 424 254 424 294.80859375 362.3515625 c 0,33,34
 415 181 415 181 828.309570312 180.650390625 c 0,0,1
1313.828125 865.401367188 m 0,35,36
 1198 865 1198 865 1163.97558594 726.063476562 c 0,37,38
 1157.16820586 697.621425347 1157.16820586 697.621425347 1157.16820586 674.418912318 c 0,39,40
 1157.16820586 597.896420131 1157.16820586 597.896420131 1231.21191406 578.364257812 c 0,41,42
 1270.03583371 568.148008717 1270.03583371 568.148008717 1317.02719163 568.148008717 c 0,43,44
 1354.50532968 568.148008717 1354.50532968 568.148008717 1397.17871094 574.646484375 c 0,45,46
 1458 584 1458 584 1491.34667969 599.754882812 c 1,47,48
 1481 739 1481 739 1434.00488281 800.864257812 c 0,49,50
 1386 865 1386 865 1313.828125 865.401367188 c 0,35,36
EndSplineSet
Substitution2: "'init' Initial Forms in Arabic lookup 13 subtable" uni06A1.init
Substitution2: "'medi' Medial Forms in Arabic lookup 11 subtable" uni06A1.medi
Substitution2: "'fina' Terminal Forms in Arabic lookup 9 subtable" uni06A1.fina
EndChar

StartChar: uni06A9
Encoding: 1705 1705 78
Width: 1902
VWidth: 3745
GlyphClass: 2
Flags: W
AnchorPoint: "Anchor-7" 808.705 -205.915 basechar 0
AnchorPoint: "Anchor-10" 1035.48 1448.04 basechar 0
LayerCount: 2
Fore
SplineSet
1635.22460938 413.499023438 m 24,0,1
 1636 382 1636 382 1629.92675781 355.356445312 c 0,2,3
 1578 123 1578 123 1185.22167969 37.54296875 c 0,4,5
 1022 2 1022 2 818.87890625 2 c 0,6,7
 477 2 477 2 305.037109375 98.587890625 c 0,8,9
 104.243278411 210.308248127 104.243278411 210.308248127 104.243278411 454.830121045 c 0,10,11
 104.243278411 605.486066358 104.243278411 605.486066358 184.85546875 766.762695312 c 1,12,-1
 286.431640625 732.233398438 l 1,13,14
 253.690910889 612.820315531 253.690910889 612.820315531 253.690910889 523.778627448 c 0,15,16
 253.690910889 423.994026759 253.690910889 423.994026759 294.80859375 362.3515625 c 0,17,18
 416.004947261 180.487405833 416.004947261 180.487405833 835.047045338 180.487405833 c 0,19,20
 1230.67913394 180.487405833 1230.67913394 180.487405833 1429.8984375 320.056640625 c 0,21,22
 1494.43847918 365.603724519 1494.43847918 365.603724519 1494.43847918 405.202996886 c 0,23,24
 1494.43847918 540.95161777 1494.43847918 540.95161777 965.662109375 985.13671875 c 1,25,-1
 1002.66210938 1173.13671875 l 1,26,-1
 1807.38769531 1466.50878906 l 2,27,28
 1848.94345403 1481.65842415 1848.94345403 1481.65842415 1841.7734375 1438.34667969 c 2,29,-1
 1819 1294 l 1,30,-1
 1146 1063 l 1,31,32
 1630 630 1630 630 1635.22460938 413.499023438 c 24,0,1
EndSplineSet
Substitution2: "'init' Initial Forms in Arabic lookup 13 subtable" uniFB90
Substitution2: "'medi' Medial Forms in Arabic lookup 11 subtable" uniFB91
Substitution2: "'fina' Terminal Forms in Arabic lookup 9 subtable" uniFB8F
EndChar

StartChar: afii57509
Encoding: 1711 1711 79
Width: 1914
VWidth: 3749
GlyphClass: 2
Flags: W
AnchorPoint: "Anchor-7" 808.705 -205.915 basechar 0
AnchorPoint: "Anchor-10" 1034.82 1565.24 basechar 0
LayerCount: 2
Fore
SplineSet
1450.11754423 434 m 0
 1370.39739205 600.370910282 1370.39739205 600.370910282 978.662109375 925.13671875 c 1
 1015.66210938 1113.13671875 l 1
 1820.38769531 1406.50878906 l 2
 1861.63940084 1421.86575803 1861.63940084 1421.86575803 1854.7734375 1378.34667969 c 2
 1832 1234 l 1
 1159 1003 l 1
 1590 633 1590 633 1597.69140625 414.615234375 c 0
 1603 264 1603 264 1432.97949219 152.033203125 c 0
 1204 2 1204 2 835.678710938 2 c 0
 477 2 477 2 305.037109375 98.587890625 c 0
 104 211 104 211 104.250976562 457.86328125 c 0
 105 607 105 607 184.85546875 766.762695312 c 1
 286.431640625 732.233398438 l 1
 217 479 217 479 294.80859375 362.3515625 c 0
 410 189 410 189 754.010742188 180.106445312 c 24
 1134 170 1134 170 1372.39257812 310.252929688 c 0
 1416.47330532 336.124371419 1416.47330532 336.124371419 1449.24998622 379 c 0
 1465.98332755 400.889114705 1465.98332755 400.889114705 1450.11754423 434 c 0
EndSplineSet
Refer: 270 -1 N 1.1342 0 0 1.1342 982.298 -727.187 2
Substitution2: "'init' Initial Forms in Arabic lookup 13 subtable" uniFB94
Substitution2: "'medi' Medial Forms in Arabic lookup 11 subtable" uniFB95
Substitution2: "'fina' Terminal Forms in Arabic lookup 9 subtable" uniFB93
EndChar

StartChar: afii57514
Encoding: 1722 1722 80
Width: 1395
VWidth: 3745
GlyphClass: 2
Flags: W
LayerCount: 2
Fore
SplineSet
1194.5625 607.572265625 m 4,0,1
 1305.74269043 336.406992871 1305.74269043 336.406992871 1305.74269043 167.570957004 c 4,2,3
 1305.74269043 -38.0117472457 1305.74269043 -38.0117472457 1187 -193.742579871 c 4,4,5
 1028.16202725 -402.058305744 1028.16202725 -402.058305744 666.913085938 -402.161132812 c 4,6,7
 379 -402 379 -402 237.318359375 -250.16015625 c 4,8,9
 106.855413464 -108.979475981 106.855413464 -108.979475981 106.855413464 111.721884219 c 4,10,11
 106.855413464 300.921164759 106.855413464 300.921164759 210.064453125 521.631835938 c 5,12,-1
 320.326171875 489.094726562 l 5,13,14
 260.781264619 295.78285553 260.781264619 295.78285553 260.781264619 155.35440895 c 4,15,16
 260.781264619 -222.589934587 260.781264619 -222.589934587 674.419203032 -222.589934587 c 4,17,18
 993.017456425 -222.589934587 993.017456425 -222.589934587 1113.4609375 -27.6904296875 c 4,19,20
 1152.50326611 35.2033690262 1152.50326611 35.2033690262 1152.50326611 111.012061067 c 4,21,22
 1152.50326611 146.927265229 1152.50326611 146.927265229 1143.74023438 185.741210938 c 4,23,24
 1126 266 1126 266 1038.72558594 478.235351562 c 5,25,-1
 1141.20410156 626.548828125 l 6,26,27
 1160 653 1160 653 1172.95703125 640.516601562 c 4,28,29
 1186 629 1186 629 1194.5625 607.572265625 c 4,0,1
EndSplineSet
Substitution2: "'init' Initial Forms in Arabic lookup 13 subtable" uni06BA.init
Substitution2: "'medi' Medial Forms in Arabic lookup 11 subtable" uni06BA.medi
Substitution2: "'fina' Terminal Forms in Arabic lookup 9 subtable" uniFB9F
EndChar

StartChar: uni06F4
Encoding: 1780 1780 87
Width: 1150
VWidth: 2927
GlyphClass: 2
Flags: W
LayerCount: 2
Fore
SplineSet
433.870117188 834.592773438 m 1,0,1
 557 735 557 735 771.049804688 732.102539062 c 0,2,3
 919 730 919 730 1046.95507812 791.215820312 c 1,4,-1
 1022.62695312 938.721679688 l 1,5,6
 835 879 835 879 698.311523438 918.014648438 c 0,7,8
 630 938 630 938 629.21875 1015.10644531 c 0,9,10
 629 1093 629 1093 672.620117188 1144.87109375 c 0,11,12
 764 1252 764 1252 967.004882812 1174.83886719 c 1,13,-1
 1006.4140625 1259.35058594 l 1,14,15
 910 1375 910 1375 780.041992188 1375.86035156 c 0,16,17
 589 1377 589 1377 522.553710938 1213.13378906 c 0,18,19
 480 1106 480 1106 519.344726562 976.250976562 c 1,20,21
 383 1035 383 1035 333.840820312 1182.02832031 c 2,22,-1
 274.909179688 1360 l 2,23,24
 261.99609375 1398.99609375 261.99609375 1398.99609375 241.095703125 1373 c 2,25,-1
 125.642578125 1231.64257812 l 1,26,27
 384 532 384 532 413.61328125 17.548828125 c 1,28,29
 511 43 511 43 516.20703125 53.439453125 c 0,30,31
 527 74 527 74 526.737304688 159.875 c 0,32,33
 527 388 527 388 433.870117188 834.592773438 c 1,0,1
EndSplineSet
EndChar

StartChar: uni06F5
Encoding: 1781 1781 88
Width: 1202
VWidth: 3002
GlyphClass: 2
Flags: W
LayerCount: 2
Fore
SplineSet
645.6015625 465.672851562 m 1,0,1
 676 335 676 335 727.65234375 272.287109375 c 0,2,3
 779 209 779 209 845.6640625 209.883789062 c 0,4,5
 1047 211 1047 211 921.78125 547.450195312 c 0,6,7
 834 784 834 784 575.158203125 1051.31445312 c 5,8,9
 446 856 446 856 402.131835938 773.2734375 c 4,10,11
 199 386 199 386 257.619140625 264.333007812 c 0,12,13
 284 209 284 209 362.471679688 209.78125 c 0,14,15
 513 211 513 211 576.21875 466.798828125 c 1,16,-1
 645.6015625 465.672851562 l 1,0,1
612.801757812 215.260742188 m 1,17,18
 543 25 543 25 362.241210938 25.244140625 c 0,19,20
 117 25 117 25 114.090820312 310.327148438 c 0,21,22
 110 632 110 632 467.743164062 1171.65917969 c 5,23,-1
 422.880859375 1212.0234375 l 5,24,-1
 510.795898438 1367.62109375 l 6,25,26
 527 1396 527 1396 554.090820312 1369.24511719 c 4,27,28
 1101 828 1101 828 1101.59277344 339.73828125 c 0,29,30
 1102 25 1102 25 853.1796875 25.646484375 c 0,31,32
 691 26 691 26 612.801757812 215.260742188 c 1,17,18
EndSplineSet
EndChar

StartChar: uni06F6
Encoding: 1782 1782 89
Width: 1031
VWidth: 3202
GlyphClass: 2
Flags: W
LayerCount: 2
Fore
SplineSet
754.625976562 1179.0390625 m 1,0,1
 620 1214 620 1214 551.01953125 1213.80664062 c 0,2,3
 411 1214 411 1214 332.94921875 1115.84863281 c 0,4,5
 257 1020 257 1020 300.095703125 955.822265625 c 0,6,7
 382 833 382 833 645.96484375 830.333007812 c 0,8,9
 674 830 674 830 722.595703125 863.334960938 c 0,10,11
 872 964 872 964 916 966 c 0,12,13
 942.635718687 966.9865081 942.635718687 966.9865081 935.780273438 937.415039062 c 2,14,-1
 893.491210938 754.998046875 l 5,15,16
 556 553 556 553 186.235351562 12.2197265625 c 5,17,-1
 112.798828125 101.709960938 l 1,18,19
 231 381 231 381 464.2421875 655.724609375 c 1,20,21
 145.628492291 722.657891873 145.628492291 722.657891873 144.372531724 989 c 0,22,23
 144 1066 144 1066 176.423828125 1141.20703125 c 0,24,25
 291 1407 291 1407 542.040039062 1406.44433594 c 0,26,27
 687 1406 687 1406 803.365234375 1302.99707031 c 1,28,-1
 754.625976562 1179.0390625 l 1,0,1
EndSplineSet
EndChar

StartChar: uniFB8F
Encoding: 64399 64399 104
Width: 2133
VWidth: 3745
GlyphClass: 2
Flags: W
AnchorPoint: "Anchor-7" 808.705 -205.915 basechar 0
AnchorPoint: "Anchor-10" 985.484 1421.04 basechar 0
LayerCount: 2
Fore
SplineSet
1666 506 m 0,0,1
 1945.00083834 180.999023438 1945.00083834 180.999023438 2125.71289062 180.999023438 c 2,2,-1
 2138 180.999023438 l 2,3,4
 2163.34082031 181.000013313 2163.34082031 181.000013313 2163.34082031 102 c 2,5,-1
 2163.34082031 77 l 2,6,7
 2163 0 2163 0 2138 0 c 2,8,-1
 2126.13769531 0 l 2,9,10
 1873 0 1873 0 1620 320.702148438 c 1,11,12
 1548 116 1548 116 1185.22167969 37.54296875 c 0,13,14
 1022 2 1022 2 818.87890625 2 c 0,15,16
 477 2 477 2 305.037109375 98.587890625 c 0,17,18
 104 210 104 210 104.243278411 454.830121045 c 0,19,20
 104 605 104 605 184.85546875 766.762695312 c 1,21,-1
 286.431640625 732.233398438 l 1,22,23
 254 613 254 613 253.690910889 523.778627448 c 0,24,25
 254 424 254 424 294.80859375 362.3515625 c 0,26,27
 415 181 415 181 835.047045338 180.487405833 c 0,28,29
 1234 180 1234 180 1429.8984375 320.056640625 c 0,30,31
 1494 366 1494 366 1494.43847918 405.202996886 c 0,32,33
 1494 541 1494 541 965.662109375 985.13671875 c 1,34,-1
 1002.66210938 1173.13671875 l 1,35,-1
 1807.38769531 1466.50878906 l 2,36,37
 1848.63940084 1481.86575803 1848.63940084 1481.86575803 1841.7734375 1438.34667969 c 2,38,-1
 1819 1294 l 1,39,-1
 1146 1063 l 1,40,41
 1325 904 1325 904 1666 506 c 0,0,1
EndSplineSet
EndChar

StartChar: uniFB93
Encoding: 64403 64403 108
Width: 2074
VWidth: 3749
GlyphClass: 2
Flags: W
AnchorPoint: "Anchor-7" 808.705 -205.915 basechar 0
AnchorPoint: "Anchor-10" 1022.82 1535.24 basechar 0
LayerCount: 2
Fore
SplineSet
1551.92480469 578 m 0
 1852.64205827 180.473173518 1852.64205827 180.473173518 2063.82617188 180.065429688 c 2
 2079 180.036132812 l 2
 2103.95214844 180.00006916 2103.95214844 180.00006916 2103.95214844 102 c 2
 2103.95214844 77 l 2
 2104 0 2104 0 2079 0 c 2
 2066.37109375 0 l 2
 1831 0 1831 0 1578.28808594 310 c 1
 1541 223 1541 223 1432.97949219 152.033203125 c 0
 1204 2 1204 2 835.678710938 2 c 0
 477 2 477 2 305.037109375 98.587890625 c 0
 104 211 104 211 104.250976562 457.86328125 c 0
 105 607 105 607 184.85546875 766.762695312 c 1
 286.431640625 732.233398438 l 1
 217 479 217 479 294.80859375 362.3515625 c 0
 410 189 410 189 754.010742188 180.106445312 c 24
 1134 170 1134 170 1372.39257812 310.252929688 c 0
 1416 336 1416 336 1449.24998622 379 c 0
 1466 401 1466 401 1450.11754423 434 c 0
 1370 600 1370 600 978.662109375 925.13671875 c 1
 1015.66210938 1113.13671875 l 1
 1820.38769531 1406.50878906 l 2
 1861.63940084 1421.86575803 1861.63940084 1421.86575803 1854.7734375 1378.34667969 c 2
 1832 1234 l 1
 1159 1003 l 1
 1359 833 1359 833 1551.92480469 578 c 0
EndSplineSet
Refer: 270 -1 N 1.1342 0 0 1.1342 982.298 -727.187 2
EndChar

StartChar: uniFB94
Encoding: 64404 64404 109
Width: 974
VWidth: 3749
GlyphClass: 2
Flags: W
AnchorPoint: "Anchor-10" 280.398 1635.11 basechar 0
AnchorPoint: "Anchor-7" 334.15 -239.938 basechar 0
LayerCount: 2
Fore
SplineSet
38.662109375 925.13671875 m 1
 75.662109375 1113.13671875 l 1
 880.387695312 1406.50878906 l 2
 921.639400838 1421.86575803 921.639400838 1421.86575803 914.7734375 1378.34667969 c 2
 892 1234 l 1
 219 1003 l 1
 667.879916039 627.240794266 667.879916039 627.240794266 667.879916039 402.224418951 c 0
 667.879916039 267.785362058 667.879916039 267.785362058 577.831054688 175.669921875 c 0
 406 0 406 0 28.2861328125 0 c 2
 -5 0 l 2
 -60.3662109375 0 -60.3662109375 0 -60.3662109375 77 c 2
 -60.3662109375 102 l 2
 -60.0000121562 179.997410819 -60.0000121562 179.997410819 -5 179.999023438 c 2
 28.306640625 180 l 2
 338 180 338 180 475.739257812 304.487304688 c 0
 524.442769605 348.694402546 524.442769605 348.694402546 524.442769605 387.675711949 c 0
 524.442769605 522.403148827 524.442769605 522.403148827 38.662109375 925.13671875 c 1
EndSplineSet
Refer: 270 -1 N 1.1342 0 0 1.1342 42.298 -727.187 2
EndChar

StartChar: uniFB95
Encoding: 64405 64405 110
Width: 1135
VWidth: 3749
GlyphClass: 2
Flags: W
AnchorPoint: "Anchor-10" 264.398 1643.11 basechar 0
AnchorPoint: "Anchor-7" 319.424 -241.288 basechar 0
LayerCount: 2
Fore
SplineSet
612.1328125 586 m 0
 919 180 919 180 1127.82617188 180 c 2
 1140 180 l 2
 1165 180 1165 180 1165 102 c 2
 1165 77 l 2
 1165 0 1165 0 1140 0 c 2
 1114.38378906 0 l 2
 899 0 899 0 653.334960938 301 c 1
 632 231 632 231 577.831054688 175.669921875 c 0
 406 0 406 0 28.2861328125 0 c 2
 -5 0 l 2
 -60.3662109375 0 -60.3662109375 0 -60.3662109375 77 c 2
 -60.3662109375 102 l 2
 -60.0000121562 179.997410819 -60.0000121562 179.997410819 -5 179.999023438 c 2
 28.306640625 180 l 2
 338 180 338 180 475.739257812 304.487304688 c 0
 524.442769605 348.694402546 524.442769605 348.694402546 524.442769605 387.675711949 c 0
 524.442769605 522.403148827 524.442769605 522.403148827 38.662109375 925.13671875 c 1
 75.662109375 1113.13671875 l 1
 880.387695312 1406.50878906 l 2
 921.639400838 1421.86575803 921.639400838 1421.86575803 914.7734375 1378.34667969 c 2
 892 1234 l 1
 219 1003 l 1
 433 823 433 823 612.1328125 586 c 0
EndSplineSet
Refer: 270 -1 N 1.1342 0 0 1.1342 42.298 -727.187 2
EndChar

StartChar: uniFB9F
Encoding: 64415 64415 112
Width: 1497
VWidth: 3744
GlyphClass: 2
Flags: W
AnchorPoint: "Anchor-10" 580.655 1006.5 basechar 0
AnchorPoint: "Anchor-7" 455.87 -1007.65 basechar 0
LayerCount: 2
Fore
SplineSet
1502.19824219 180.999023438 m 2,0,1
 1527 180.999023438 1527 180.999023438 1527 102 c 6,2,-1
 1527 77 l 6,3,4
 1527 0 1527 0 1502 0 c 2,5,-1
 1480.578125 0 l 2,6,7
 1347 0 1347 0 1306 48 c 1,8,9
 1306 39 1306 39 1306.47368421 8.2564504523 c 0,10,11
 1306 -28 1306 -28 1293 -88.0849609375 c 0,12,13
 1196 -539 1196 -539 670.966106681 -538.863640399 c 0,14,15
 458 -539 458 -539 312 -447.248046875 c 0,16,17
 112 -321 112 -321 111.665104673 -35.0885622745 c 0,18,19
 112 169 112 169 209.79296875 384.94140625 c 1,20,-1
 320.0546875 352.40234375 l 1,21,22
 263 165 263 165 262.880859375 13.18359375 c 0,23,24
 263 -359 263 -359 677.813476562 -359.276367188 c 0,25,26
 993 -359 993 -359 1113.19140625 -164.387695312 c 0,27,28
 1155 -97 1155 -97 1155 -25 c 128,-1,29
 1155 47 1155 47 1037.66699219 338.455078125 c 1,30,-1
 1134.31640625 484.686523438 l 1,31,32
 1143 497 1143 497 1152.31396319 496.52817489 c 0,33,34
 1169 497 1169 497 1185.24511719 455.676757812 c 0,35,36
 1242 319 1242 319 1261.33007812 279.373046875 c 0,37,38
 1310.00048315 180.999023438 1310.00048315 180.999023438 1470.828125 180.999023438 c 2,39,-1
 1502.19824219 180.999023438 l 2,0,1
EndSplineSet
EndChar

StartChar: uniFBE8
Encoding: 64488 64488 115
Width: 626
VWidth: 3744
GlyphClass: 2
Flags: W
AnchorPoint: "Anchor-10" 323.261 1301.53 basechar 0
AnchorPoint: "Anchor-7" 350.876 -259.541 basechar 0
LayerCount: 2
Fore
SplineSet
-5 179.999023438 m 2,0,-1
 97.8056640625 179.999023438 l 2,1,2
 373.414330488 179.999997929 373.414330488 179.999997929 373.414330488 346.75148935 c 0,3,4
 373.414330488 459.850381125 373.414330488 459.850381125 294.999023438 677.424804688 c 1,5,-1
 406 805 l 2,6,7
 421 822 421 822 441 780 c 0,8,9
 525.099087467 606.968544177 525.099087467 606.968544177 525.099087467 393.558831594 c 0,10,11
 525.099087467 236.54253262 525.099087467 236.54253262 443.703125 137.951171875 c 0,12,13
 330 0 330 0 100.708007812 0 c 2,14,-1
 -5 0 l 2,15,16
 -60.3662109375 0 -60.3662109375 0 -60.3662109375 77 c 2,17,-1
 -60.3662109375 102 l 2,18,19
 -60 180 -60 180 -5 179.999023438 c 2,0,-1
EndSplineSet
EndChar

StartChar: uniFBE9
Encoding: 64489 64489 116
Width: 728
VWidth: 3744
GlyphClass: 2
Flags: W
AnchorPoint: "Anchor-10" 391.618 1159.37 basechar 0
AnchorPoint: "Anchor-7" 371.317 -218.507 basechar 0
LayerCount: 2
Fore
SplineSet
-5 179.999023438 m 2,0,-1
 95.18359375 179.999023438 l 2,1,2
 330.427576871 180.000001778 330.427576871 180.000001778 344.15625 347.38671875 c 2,3,-1
 362.440429688 570.31640625 l 1,4,-1
 486.720703125 570.369140625 l 1,5,-1
 505.733398438 350.099609375 l 2,6,7
 520.000862703 179.989714058 520.000862703 179.989714058 713.682617188 179.999023438 c 2,8,-1
 734 180 l 2,9,10
 758 180 758 180 758 102 c 2,11,-1
 758 77 l 2,12,13
 758 0 758 0 734 0 c 2,14,-1
 715.583007812 0 l 2,15,16
 506 0 506 0 424.059570312 130.338867188 c 1,17,18
 330 0 330 0 109.834960938 0 c 2,19,-1
 -5 0 l 2,20,21
 -60.3662109375 0 -60.3662109375 0 -60.3662109375 77 c 6,22,-1
 -60.3662109375 102 l 6,23,24
 -60 180 -60 180 -5 179.999023438 c 2,0,-1
EndSplineSet
EndChar

StartChar: uniFE73
Encoding: 65139 65139 124
Width: 785
VWidth: 3435
GlyphClass: 2
Flags: W
AnchorPoint: "Anchor-10" 369.315 1241.89 basechar 0
AnchorPoint: "Anchor-7" 377.315 -188.464 basechar 0
LayerCount: 2
Fore
SplineSet
309.139648438 464.073242188 m 2,0,1
 309.139648438 180.26953125 309.139648438 180.26953125 698.9453125 180.26953125 c 2,2,-1
 790.182617188 180.26953125 l 1,3,-1
 790.182617188 2.6162109375 l 1,4,-1
 686.444335938 2.6162109375 l 2,5,6
 101.489257812 3.35604798321 101.489257812 3.35604798321 101.489257812 443.893554688 c 2,7,-1
 101.489257812 481.309570312 l 1,8,-1
 309.139648438 481.309570312 l 1,9,-1
 309.139648438 464.073242188 l 2,0,1
EndSplineSet
EndChar

StartChar: uniFE8E
Encoding: 65166 65166 150
Width: 561
VWidth: 3705
GlyphClass: 2
Flags: W
AnchorPoint: "Anchor-10" 185.896 1624.31 basechar 0
AnchorPoint: "Anchor-7" 270.473 -229.464 basechar 0
LayerCount: 2
Fore
SplineSet
567 0 m 6,0,-1
 512.934570312 0 l 6,1,2
 185 0 185 0 167.728515625 350 c 4,3,4
 162 465 162 465 159.518554688 764.955078125 c 4,5,6
 157 1125 157 1125 129.987304688 1389.0390625 c 5,7,-1
 266 1456 l 6,8,9
 293 1469 293 1469 296 1427 c 4,10,11
 315 1181 315 1181 310.779296875 572.400390625 c 4,12,13
 309 298 309 298 355.942382812 237.354492188 c 4,14,15
 400.002550678 179.996679511 400.002550678 179.996679511 517.885742188 179.999023438 c 6,16,-1
 567 180 l 6,17,18
 591 180 591 180 591 102 c 6,19,-1
 591 77 l 6,20,21
 591 0 591 0 567 0 c 6,0,-1
EndSplineSet
EndChar

StartChar: uniFEA2
Encoding: 65186 65186 170
Width: 1329
VWidth: 3739
GlyphClass: 2
Flags: W
AnchorPoint: "Anchor-7" 572.136 -813.44 basechar 0
AnchorPoint: "Anchor-10" 599.972 1252.02 basechar 0
LayerCount: 2
Fore
SplineSet
278.989257812 -83.6806640625 m 0,0,1
 279 214 279 214 599.952148438 371.383789062 c 24,2,3
 733 437 733 437 874.426757812 462.436523438 c 1,4,-1
 877.879882812 423.126953125 l 2,5,6
 915 0 915 0 1312.97949219 0 c 2,7,-1
 1335 0 l 2,8,9
 1359 0 1359 0 1359 77 c 2,10,-1
 1359 102 l 2,11,12
 1359 180 1359 180 1335 180 c 2,13,-1
 1314.82714844 180 l 2,14,15
 1031 180 1031 180 1007.98730469 485.309570312 c 1,16,17
 1081 494 1081 494 1154.41894531 502.40234375 c 1,18,-1
 1225.97753906 671.47265625 l 2,19,20
 1232 686 1232 686 1212.34667969 685.420898438 c 0,21,22
 1106 682 1106 682 989.737304688 716.556640625 c 0,23,24
 506 860 506 860 394.666015625 864.3359375 c 0,25,26
 291 869 291 869 217.471679688 786.13671875 c 0,27,28
 144 703 144 703 102.594726562 605.782226562 c 1,29,30
 146 576 146 576 194.627929688 558.344726562 c 1,31,32
 267 646 267 646 335.723632812 668.673828125 c 0,33,34
 405 691 405 691 620.286132812 642.482421875 c 0,35,36
 675 630 675 630 785.495117188 608.938476562 c 1,37,38
 602 572 602 572 478.01171875 496.65234375 c 24,39,40
 132 286 132 286 132.260742188 -114.354492188 c 0,41,42
 132 -341 132 -341 288.965820312 -477.939453125 c 0,43,44
 362 -542 362 -542 489.94140625 -575.65625 c 0,45,46
 641 -615 641 -615 817.768554688 -614.81640625 c 0,47,48
 1007 -615 1007 -615 1116.98828125 -592.029296875 c 0,49,50
 1141 -587 1141 -587 1151.86523438 -561.625 c 0,51,52
 1185 -481 1185 -481 1191.87304688 -415.625 c 0,53,54
 1193 -405 1193 -405 1183.27148438 -406.337890625 c 0,55,56
 923 -436 923 -436 794.594726562 -435.2265625 c 0,57,58
 279 -432 279 -432 278.989257812 -83.6806640625 c 0,0,1
EndSplineSet
EndChar

StartChar: uniFEA3
Encoding: 65187 65187 171
Width: 1320
VWidth: 3745
GlyphClass: 2
Flags: W
AnchorPoint: "Anchor-10" 527.25 1134.14 basechar 0
AnchorPoint: "Anchor-7" 501.367 -226.896 basechar 0
LayerCount: 2
Fore
SplineSet
729.602539062 675.375 m 0,0,1
 1048 527 1048 527 1243.32226562 526.163085938 c 0,2,3
 1270.95490665 526.000265704 1270.95490665 526.000265704 1261.95605469 495.549804688 c 2,4,-1
 1217.49609375 345.10546875 l 1,5,6
 1059 341 1059 341 737.485351562 158.393554688 c 0,7,8
 458 0 458 0 162.451171875 0 c 2,9,-1
 -5 0 l 2,10,11
 -60.3662109375 0 -60.3662109375 0 -60.3662109375 77 c 2,12,-1
 -60.3662109375 102 l 2,13,14
 -60.000004585 179.999023438 -60.000004585 179.999023438 -5 179.999023438 c 2,15,-1
 195.760742188 179.999023438 l 2,16,17
 445.0713244 180.000000279 445.0713244 180.000000279 728.838867188 327.538085938 c 2,18,-1
 918.53125 426.1640625 l 1,19,20
 862 438 862 438 645 524.5 c 0,21,22
 506 580 506 580 420 580 c 0,23,24
 311 580 311 580 201 446 c 1,25,-1
 116.233398438 486.286132812 l 1,26,-1
 124.211914062 505.868164062 l 2,27,28
 231 769 231 769 448.768554688 767.661132812 c 0,29,30
 533 767 533 767 729.602539062 675.375 c 0,0,1
EndSplineSet
EndChar

StartChar: uniFEA4
Encoding: 65188 65188 172
Width: 1346
VWidth: 3745
GlyphClass: 2
Flags: W
AnchorPoint: "Anchor-10" 531.542 1136.28 basechar 0
AnchorPoint: "Anchor-7" 535.822 -223.531 basechar 0
LayerCount: 2
Fore
SplineSet
737.485351562 158.393554688 m 24,0,1
 458 0 458 0 162.451171875 0 c 2,2,-1
 -5 0 l 2,3,4
 -60.3662109375 0 -60.3662109375 0 -60.3662109375 77 c 2,5,-1
 -60.3662109375 102 l 2,6,7
 -60.000004585 179.999023438 -60.000004585 179.999023438 -5 179.999023438 c 2,8,-1
 195.760742188 179.999023438 l 2,9,10
 445.0713244 180.000000279 445.0713244 180.000000279 728.838867188 327.538085938 c 2,11,-1
 918.53125 426.1640625 l 1,12,13
 841 446 841 446 645 524.5 c 0,14,15
 506 580 506 580 420 580 c 0,16,17
 311 580 311 580 201 446 c 1,18,-1
 116.233398438 486.286132812 l 1,19,-1
 124.211914062 505.868164062 l 2,20,21
 231 769 231 769 448.768554688 767.661132812 c 0,22,23
 533 767 533 767 729.602539062 675.375 c 0,24,25
 1046 527 1046 527 1243.32226562 526.163085938 c 0,26,27
 1270.95490665 526.000265704 1270.95490665 526.000265704 1261.95605469 495.549804688 c 2,28,-1
 1217.49609375 345.10546875 l 1,29,30
 1115 343 1115 343 989 285.483398438 c 1,31,32
 989 179.998364601 989 179.998364601 1135.23828125 179.999023438 c 2,33,-1
 1352 180 l 2,34,35
 1376 180 1376 180 1376 102 c 2,36,-1
 1376 77 l 2,37,38
 1376 0 1376 0 1352 0 c 2,39,-1
 1139.60742188 0 l 2,40,41
 894 0 894 0 879 233 c 1,42,43
 839 216 839 216 737.485351562 158.393554688 c 24,0,1
EndSplineSet
EndChar

StartChar: uniFEAA
Encoding: 65194 65194 178
Width: 1142
VWidth: 3737
GlyphClass: 2
Flags: W
AnchorPoint: "Anchor-10" 619.455 1319.65 basechar 0
AnchorPoint: "Anchor-7" 440.118 -231.355 basechar 0
LayerCount: 2
Fore
SplineSet
416.994140625 179.999023438 m 0,0,1
 289 180 289 180 249.879882812 237.4453125 c 0,2,3
 230 266 230 266 229.859375 325.612304688 c 1,4,-1
 118.606445312 336.571289062 l 1,5,6
 105 278 105 278 104.71484375 230.303710938 c 0,7,8
 103 -1 103 -1 418.2734375 0 c 0,9,10
 693 1 693 1 820.291992188 191.197265625 c 1,11,12
 915 0 915 0 1131.90039062 0 c 2,13,-1
 1148 0 l 2,14,15
 1172 0 1172 0 1172 77 c 2,16,-1
 1172 102 l 2,17,18
 1172 180 1172 180 1148 180 c 2,19,-1
 1135.69726562 180 l 2,20,21
 948.522044386 180 948.522044386 180 877.681640625 426.458007812 c 2,22,23
 718 982 l 2,24,25
 704.160538166 1029.44958343 704.160538166 1029.44958343 674 994 c 2,26,-1
 575.29296875 877.983398438 l 1,27,-1
 727.0234375 382.133789062 l 2,28,29
 731 367 731 367 735.09765625 353.327148438 c 0,30,31
 756 283 756 283 672.318359375 232.181640625 c 0,32,33
 588 180 588 180 416.994140625 179.999023438 c 0,0,1
EndSplineSet
EndChar

StartChar: uniFEAE
Encoding: 65198 65198 182
Width: 863
VWidth: 3744
GlyphClass: 2
Flags: W
AnchorPoint: "Anchor-7" 272.313 -737.669 basechar 0
AnchorPoint: "Anchor-10" 511.778 948.68 basechar 0
LayerCount: 2
Fore
SplineSet
29.212890625 -400.844726562 m 0,0,1
 507 -277 507 -277 540.114257812 69.5673828125 c 0,2,3
 551 184 551 184 445 389 c 1,4,-1
 545.484375 517.092773438 l 2,5,6
 575 555 575 555 599.5 504 c 0,7,8
 624 454 624 454 673.290039062 328.109375 c 0,9,10
 732.001727056 179.995643105 732.001727056 179.995643105 838.29296875 179.999023438 c 2,11,-1
 869 180 l 2,12,13
 893 180 893 180 893 102 c 2,14,-1
 893 77 l 2,15,16
 893 0 893 0 869 0 c 2,17,-1
 843.346679688 0 l 2,18,19
 762 0 762 0 690 49.8779296875 c 1,20,21
 670 -75 670 -75 616.513671875 -178.618164062 c 0,22,23
 529 -347 529 -347 344.763671875 -454.211914062 c 0,24,25
 237 -517 237 -517 141.038085938 -539.3515625 c 0,26,27
 130 -542 130 -542 119.479492188 -541.866210938 c 0,28,29
 82 -542 82 -542 55.923828125 -508 c 128,-1,30
 30 -474 30 -474 22.13671875 -459.24609375 c 0,31,32
 10 -437 10 -437 10.1337890625 -423.524414062 c 0,33,34
 10 -406 10 -406 29.212890625 -400.844726562 c 0,0,1
EndSplineSet
PairPos2: "'kern' Horizontal Kerning lookup 15-1" uniFEF3 dx=70 dy=0 dh=70 dv=0 dx=0 dy=0 dh=0 dv=0
PairPos2: "'kern' Horizontal Kerning lookup 15-1" uniFB58 dx=53 dy=0 dh=53 dv=0 dx=0 dy=0 dh=0 dv=0
PairPos2: "'kern' Horizontal Kerning lookup 15-1" uniFBFE dx=70 dy=0 dh=70 dv=0 dx=0 dy=0 dh=0 dv=0
PairPos2: "'kern' Horizontal Kerning lookup 15-4" uni0621 dx=-196 dy=0 dh=-196 dv=0 dx=0 dy=0 dh=0 dv=0
PairPos2: "'kern' Horizontal Kerning lookup 15-3" uni0648 dx=-43 dy=0 dh=-43 dv=0 dx=0 dy=0 dh=0 dv=0
PairPos2: "'kern' Horizontal Kerning lookup 15-1" uni0644 dx=-43 dy=0 dh=-43 dv=0 dx=0 dy=0 dh=0 dv=0
PairPos2: "'kern' Horizontal Kerning lookup 15-1" uni0642 dx=-43 dy=0 dh=-43 dv=0 dx=0 dy=0 dh=0 dv=0
PairPos2: "'kern' Horizontal Kerning lookup 15-1" uni0632 dx=-43 dy=0 dh=-43 dv=0 dx=0 dy=0 dh=0 dv=0
PairPos2: "'kern' Horizontal Kerning lookup 15-1" uni0631 dx=-43 dy=0 dh=-43 dv=0 dx=0 dy=0 dh=0 dv=0
PairPos2: "'kern' Horizontal Kerning lookup 15-1" uniFB8A dx=-43 dy=0 dh=-43 dv=0 dx=0 dy=0 dh=0 dv=0
PairPos2: "'kern' Horizontal Kerning lookup 15-1" afii57508 dx=-43 dy=0 dh=-43 dv=0 dx=0 dy=0 dh=0 dv=0
PairPos2: "'kern' Horizontal Kerning lookup 15-1" uniFB7C dx=-128 dy=0 dh=-128 dv=0 dx=0 dy=0 dh=0 dv=0
PairPos2: "'kern' Horizontal Kerning lookup 15-1" uni06CC dx=-43 dy=0 dh=-43 dv=0 dx=0 dy=0 dh=0 dv=0
PairPos2: "'kern' Horizontal Kerning lookup 15-1" uniFEEB dx=-128 dy=0 dh=-128 dv=0 dx=0 dy=0 dh=0 dv=0
PairPos2: "'kern' Horizontal Kerning lookup 15-1" uniFEDF dx=-128 dy=0 dh=-128 dv=0 dx=0 dy=0 dh=0 dv=0
PairPos2: "'kern' Horizontal Kerning lookup 15-1" uniFB90 dx=-213 dy=0 dh=-213 dv=0 dx=0 dy=0 dh=0 dv=0
PairPos2: "'kern' Horizontal Kerning lookup 15-1" uni06A9 dx=-213 dy=0 dh=-213 dv=0 dx=0 dy=0 dh=0 dv=0
PairPos2: "'kern' Horizontal Kerning lookup 15-1" uni0649 dx=-43 dy=0 dh=-43 dv=0 dx=0 dy=0 dh=0 dv=0
PairPos2: "'kern' Horizontal Kerning lookup 15-1" uni0647 dx=-128 dy=0 dh=-128 dv=0 dx=0 dy=0 dh=0 dv=0
PairPos2: "'kern' Horizontal Kerning lookup 15-1" uniFEE7 dx=-128 dy=0 dh=-128 dv=0 dx=0 dy=0 dh=0 dv=0
PairPos2: "'kern' Horizontal Kerning lookup 15-1" uniFEE3 dx=-128 dy=0 dh=-128 dv=0 dx=0 dy=0 dh=0 dv=0
PairPos2: "'kern' Horizontal Kerning lookup 15-1" uni0645 dx=-128 dy=0 dh=-128 dv=0 dx=0 dy=0 dh=0 dv=0
PairPos2: "'kern' Horizontal Kerning lookup 15-1" uniFEDB dx=-213 dy=0 dh=-213 dv=0 dx=0 dy=0 dh=0 dv=0
PairPos2: "'kern' Horizontal Kerning lookup 15-1" uniFED7 dx=-128 dy=0 dh=-128 dv=0 dx=0 dy=0 dh=0 dv=0
PairPos2: "'kern' Horizontal Kerning lookup 15-1" uniFED3 dx=-128 dy=0 dh=-128 dv=0 dx=0 dy=0 dh=0 dv=0
PairPos2: "'kern' Horizontal Kerning lookup 15-1" uni0641 dx=-128 dy=0 dh=-128 dv=0 dx=0 dy=0 dh=0 dv=0
PairPos2: "'kern' Horizontal Kerning lookup 15-1" uniFECF dx=-128 dy=0 dh=-128 dv=0 dx=0 dy=0 dh=0 dv=0
PairPos2: "'kern' Horizontal Kerning lookup 15-1" uniFECB dx=-128 dy=0 dh=-128 dv=0 dx=0 dy=0 dh=0 dv=0
PairPos2: "'kern' Horizontal Kerning lookup 15-1" uniFEC7 dx=-128 dy=0 dh=-128 dv=0 dx=0 dy=0 dh=0 dv=0
PairPos2: "'kern' Horizontal Kerning lookup 15-1" uni0638 dx=-128 dy=0 dh=-128 dv=0 dx=0 dy=0 dh=0 dv=0
PairPos2: "'kern' Horizontal Kerning lookup 15-1" uniFEC3 dx=-128 dy=0 dh=-128 dv=0 dx=0 dy=0 dh=0 dv=0
PairPos2: "'kern' Horizontal Kerning lookup 15-1" uni0637 dx=-128 dy=0 dh=-128 dv=0 dx=0 dy=0 dh=0 dv=0
PairPos2: "'kern' Horizontal Kerning lookup 15-1" uniFEBF dx=-128 dy=0 dh=-128 dv=0 dx=0 dy=0 dh=0 dv=0
PairPos2: "'kern' Horizontal Kerning lookup 15-1" uni0636 dx=-128 dy=0 dh=-128 dv=0 dx=0 dy=0 dh=0 dv=0
PairPos2: "'kern' Horizontal Kerning lookup 15-1" uniFEBB dx=-128 dy=0 dh=-128 dv=0 dx=0 dy=0 dh=0 dv=0
PairPos2: "'kern' Horizontal Kerning lookup 15-1" uni0635 dx=-128 dy=0 dh=-128 dv=0 dx=0 dy=0 dh=0 dv=0
PairPos2: "'kern' Horizontal Kerning lookup 15-1" uniFEB7 dx=-128 dy=0 dh=-128 dv=0 dx=0 dy=0 dh=0 dv=0
PairPos2: "'kern' Horizontal Kerning lookup 15-1" uni0634 dx=-128 dy=0 dh=-128 dv=0 dx=0 dy=0 dh=0 dv=0
PairPos2: "'kern' Horizontal Kerning lookup 15-1" uniFEB3 dx=-128 dy=0 dh=-128 dv=0 dx=0 dy=0 dh=0 dv=0
PairPos2: "'kern' Horizontal Kerning lookup 15-1" uni0633 dx=-128 dy=0 dh=-128 dv=0 dx=0 dy=0 dh=0 dv=0
PairPos2: "'kern' Horizontal Kerning lookup 15-1" uni0630 dx=-128 dy=0 dh=-128 dv=0 dx=0 dy=0 dh=0 dv=0
PairPos2: "'kern' Horizontal Kerning lookup 15-1" uni062F dx=-128 dy=0 dh=-128 dv=0 dx=0 dy=0 dh=0 dv=0
PairPos2: "'kern' Horizontal Kerning lookup 15-1" uniFEA7 dx=-128 dy=0 dh=-128 dv=0 dx=0 dy=0 dh=0 dv=0
PairPos2: "'kern' Horizontal Kerning lookup 15-1" uniFEA3 dx=-128 dy=0 dh=-128 dv=0 dx=0 dy=0 dh=0 dv=0
PairPos2: "'kern' Horizontal Kerning lookup 15-1" uniFE9F dx=-128 dy=0 dh=-128 dv=0 dx=0 dy=0 dh=0 dv=0
PairPos2: "'kern' Horizontal Kerning lookup 15-1" uniFE9B dx=-128 dy=0 dh=-128 dv=0 dx=0 dy=0 dh=0 dv=0
PairPos2: "'kern' Horizontal Kerning lookup 15-1" uni062B dx=-128 dy=0 dh=-128 dv=0 dx=0 dy=0 dh=0 dv=0
PairPos2: "'kern' Horizontal Kerning lookup 15-1" uniFE97 dx=-128 dy=0 dh=-128 dv=0 dx=0 dy=0 dh=0 dv=0
PairPos2: "'kern' Horizontal Kerning lookup 15-1" uni062A dx=-128 dy=0 dh=-128 dv=0 dx=0 dy=0 dh=0 dv=0
PairPos2: "'kern' Horizontal Kerning lookup 15-1" uni0629 dx=-128 dy=0 dh=-128 dv=0 dx=0 dy=0 dh=0 dv=0
PairPos2: "'kern' Horizontal Kerning lookup 15-1" uni0628 dx=-128 dy=0 dh=-128 dv=0 dx=0 dy=0 dh=0 dv=0
PairPos2: "'kern' Horizontal Kerning lookup 15-1" uni0627 dx=-196 dy=0 dh=-196 dv=0 dx=0 dy=0 dh=0 dv=0
PairPos2: "'kern' Horizontal Kerning lookup 15-1" uni0622 dx=-196 dy=0 dh=-196 dv=0 dx=0 dy=0 dh=0 dv=0
PairPos2: "'kern' Horizontal Kerning lookup 15-1" uniFB94 dx=-235 dy=0 dh=-235 dv=0 dx=0 dy=0 dh=0 dv=0
PairPos2: "'kern' Horizontal Kerning lookup 15-1" afii57509 dx=-235 dy=0 dh=-235 dv=0 dx=0 dy=0 dh=0 dv=0
PairPos2: "'kern' Horizontal Kerning lookup 15-1" uniFB56 dx=-128 dy=0 dh=-128 dv=0 dx=0 dy=0 dh=0 dv=0
PairPos2: "'kern' Horizontal Kerning lookup 15-1" afii57506 dx=-128 dy=0 dh=-128 dv=0 dx=0 dy=0 dh=0 dv=0
EndChar

StartChar: uniFEB2
Encoding: 65202 65202 186
Width: 2508
VWidth: 3744
GlyphClass: 2
Flags: W
AnchorPoint: "Anchor-10" 1664.2 1101.76 basechar 0
AnchorPoint: "Anchor-7" 635.746 -764.065 basechar 0
LayerCount: 2
Fore
SplineSet
2514 0 m 2,0,-1
 2486.86425781 0 l 2,1,2
 2236 0 2236 0 2177.86230469 130.819335938 c 1,3,4
 2095 0 2095 0 1935 0 c 0,5,6
 1784 0 1784 0 1693.31152344 127.880859375 c 1,7,8
 1596 -0 1596 -0 1476.79294028 -0.0230865361478 c 0,9,10
 1350 -0 1350 -0 1305 49.8779296875 c 1,11,12
 1306 38 1306 38 1305.76190476 25.0070219494 c 0,13,14
 1306 -29 1306 -29 1292 -92.6640625 c 0,15,16
 1193 -539 1193 -539 668.667321412 -538.856446457 c 0,17,18
 452 -539 452 -539 309 -447.232421875 c 0,19,20
 107 -317 107 -317 106.986699939 -35.5554156827 c 0,21,22
 107 157 107 157 209.79296875 384.94140625 c 1,23,-1
 320.0546875 352.40234375 l 1,24,25
 263 165 263 165 262.880859375 13.18359375 c 0,26,27
 263 -359 263 -359 677.813476562 -359.276367188 c 0,28,29
 993 -359 993 -359 1113.19140625 -164.387695312 c 0,30,31
 1155 -97 1155 -97 1155 -18 c 0,32,33
 1155 47 1155 47 1037.66699219 338.455078125 c 1,34,-1
 1134.31640625 484.686523438 l 2,35,36
 1156 518 1156 518 1185.24511719 455.676757812 c 0,37,38
 1259 295 1259 295 1261.33007812 289.373046875 c 24,39,40
 1316 180 1316 180 1465.33619025 179.971943109 c 0,41,42
 1604.91837599 179.999983603 1604.91837599 179.999983603 1616.71484375 323.06640625 c 2,43,-1
 1633.06933594 521.412109375 l 1,44,-1
 1756.45996094 521.412109375 l 1,45,-1
 1772.04785156 326.885742188 l 2,46,47
 1785 171 1785 171 1942.53115735 170.498420171 c 0,48,49
 2089.77666703 170.000754828 2089.77666703 170.000754828 2099.21484375 327.270507812 c 2,50,-1
 2111.98828125 540.116210938 l 1,51,-1
 2240.12207031 540.116210938 l 1,52,-1
 2254.90820312 327.376953125 l 2,53,54
 2265 180 2265 180 2491.88671875 180 c 2,55,-1
 2514 180 l 2,56,57
 2538 180 2538 180 2538 102 c 2,58,-1
 2538 77 l 2,59,60
 2538 0 2538 0 2514 0 c 2,0,-1
EndSplineSet
EndChar

StartChar: uniFEB3
Encoding: 65203 65203 187
Width: 1562
VWidth: 3744
GlyphClass: 2
Flags: W
AnchorPoint: "Anchor-10" 875.148 1020.27 basechar 0
AnchorPoint: "Anchor-7" 845.32 -263.321 basechar 0
LayerCount: 2
Fore
SplineSet
-5 179.999023438 m 2,0,-1
 106.655273438 179.999023438 l 2,1,2
 324.200611153 180.000000901 324.200611153 180.000000901 336.140625 325.081054688 c 2,3,-1
 352.41796875 522.864257812 l 1,4,-1
 475.999023438 522.864257812 l 1,5,-1
 491.504882812 328.895507812 l 2,6,7
 503 180 503 180 654.266601562 179.971679688 c 0,8,9
 809.004163707 180.000000762 809.004163707 180.000000762 821.208984375 326.399414062 c 2,10,-1
 837.526367188 522.129882812 l 1,11,-1
 961.010742188 522.129882812 l 1,12,-1
 976.55859375 330.216796875 l 2,13,14
 989 180 989 180 1144.70996094 180.348632812 c 0,15,16
 1309 181 1309 181 1309.71972656 338.900390625 c 0,17,18
 1310 395 1310 395 1231.27441406 613.266601562 c 1,19,-1
 1340 739 l 2,20,21
 1357 759 1357 759 1378 716 c 0,22,23
 1461 536 1461 536 1461.27441406 374.629882812 c 24,24,25
 1461 235 1461 235 1379.97851562 123.79296875 c 0,26,27
 1290 0 1290 0 1153.05273438 -0.2197265625 c 0,28,29
 970 0 970 0 898.935546875 128.845703125 c 1,30,31
 802 0 802 0 649.217773438 0 c 0,32,33
 479 0 479 0 408.49609375 128.840820312 c 1,34,35
 324 0 324 0 102.4453125 0 c 2,36,-1
 -5 0 l 2,37,38
 -60.3662109375 0 -60.3662109375 0 -60.3662109375 77 c 2,39,-1
 -60.3662109375 102 l 2,40,41
 -60 180 -60 180 -5 179.999023438 c 2,0,-1
EndSplineSet
EndChar

StartChar: uniFEB4
Encoding: 65204 65204 188
Width: 1701
VWidth: 3744
GlyphClass: 2
Flags: W
AnchorPoint: "Anchor-10" 875.148 1020.27 basechar 0
AnchorPoint: "Anchor-7" 894.254 -267.588 basechar 0
LayerCount: 2
Fore
SplineSet
1146.03027344 -0.0048828125 m 0,0,1
 1309 0 1309 0 1373.45410156 136.162109375 c 1,2,3
 1433 0 1433 0 1686.18945312 0 c 2,4,-1
 1707 0 l 2,5,6
 1731 0 1731 0 1731 77 c 2,7,-1
 1731 102 l 2,8,9
 1731 180 1731 180 1707 180 c 2,10,-1
 1686.96289062 180 l 2,11,12
 1461.2179425 180 1461.2179425 180 1449.98730469 335.331054688 c 2,13,-1
 1435.2109375 539.703125 l 1,14,-1
 1307.05078125 539.703125 l 1,15,-1
 1294.2890625 335.2421875 l 2,16,17
 1285 181 1285 181 1149.22753906 180.348632812 c 0,18,19
 988.954331685 179.999900632 988.954331685 179.999900632 976.560546875 331.802734375 c 2,20,-1
 961.021484375 522.129882812 l 1,21,-1
 837.514648438 522.129882812 l 1,22,-1
 821.20703125 327.986328125 l 2,23,24
 809 180 809 180 654.794921875 179.998046875 c 0,25,26
 503.640125451 180.000004661 503.640125451 180.000004661 491.498046875 329.87890625 c 2,27,-1
 475.950195312 521.797851562 l 1,28,-1
 352.46484375 521.797851562 l 1,29,-1
 336.147460938 326.06640625 l 2,30,31
 323.999918785 179.999023437 323.999918785 179.999023437 106.655273438 179.999023438 c 2,32,-1
 -5 179.999023438 l 2,33,34
 -60.3662109375 180.000006502 -60.3662109375 180.000006502 -60.3662109375 102 c 2,35,-1
 -60.3662109375 77 l 2,36,37
 -60 0 -60 0 -5 0 c 2,38,-1
 102.4453125 0 l 2,39,40
 324 0 324 0 408.49609375 128.840820312 c 1,41,42
 479 0 479 0 649.217773438 0 c 0,43,44
 802 0 802 0 898.935546875 128.845703125 c 1,45,46
 970 0 970 0 1146.03027344 -0.0048828125 c 0,0,1
EndSplineSet
EndChar

StartChar: uniFEBA
Encoding: 65210 65210 194
Width: 2681
VWidth: 3745
GlyphClass: 2
Flags: W
AnchorPoint: "Anchor-10" 2100.2 1169.65 basechar 0
AnchorPoint: "Anchor-7" 627.217 -757.813 basechar 0
LayerCount: 2
Fore
SplineSet
1602.11328125 180.791992188 m 1,0,-1
 1913.25390625 180.791992188 l 2,1,2
 2161 181 2161 181 2267.31933594 263.029296875 c 0,3,4
 2351 328 2351 328 2351.54003906 422.5390625 c 0,5,6
 2352 486 2352 486 2312.77148438 534.008789062 c 0,7,8
 2268 590 2268 590 2166.45703125 590.015625 c 0,9,10
 1940 590 1940 590 1602.11328125 180.791992188 c 1,0,-1
2411.73632812 180 m 1,11,-1
 2687 180 l 2,12,13
 2711 180 2711 180 2711 102 c 2,14,-1
 2711 77 l 2,15,16
 2711 0 2711 0 2687 0 c 2,17,-1
 2577.39257812 0 l 2,18,19
 2361 0 2361 0 2265 80 c 1,20,21
 2092 0 2092 0 1821.76269531 0 c 2,22,-1
 1586.95019531 0 l 2,23,24
 1373 0 1373 0 1306 49.8779296875 c 1,25,26
 1307.12709745 37.6174428856 1307.12709745 37.6174428856 1307.11279873 24 c 0,27,28
 1307.06269866 -23.7129970722 1307.06269866 -23.7129970722 1293 -88.0849609375 c 0,29,30
 1196 -539 1196 -539 668.655295118 -538.856416835 c 0,31,32
 455 -539 455 -539 310 -446.41796875 c 0,33,34
 107 -318 107 -318 106.492039167 -36.4677733649 c 0,35,36
 106 155 106 155 209.79296875 384.94140625 c 1,37,-1
 320.0546875 352.40234375 l 1,38,39
 263 165 263 165 262.880859375 13.18359375 c 0,40,41
 263 -359 263 -359 677.813476562 -359.276367188 c 0,42,43
 993 -359 993 -359 1113.19140625 -164.387695312 c 0,44,45
 1155 -97 1155 -97 1155 -18 c 0,46,47
 1155 47 1155 47 1037.66699219 338.455078125 c 1,48,-1
 1134.31640625 484.686523438 l 1,49,50
 1143 496 1143 496 1152.15611728 496.290724577 c 0,51,52
 1169 496 1169 496 1185.24511719 455.676757812 c 0,53,54
 1248 304 1248 304 1261.33007812 279.373046875 c 0,55,56
 1314 182 1314 182 1452.38574219 180.909179688 c 1,57,58
 1822 767 1822 767 2179.27148438 767.09375 c 0,59,60
 2344 767 2344 767 2434.31933594 659.978515625 c 0,61,62
 2512 567 2512 567 2512.23828125 433.375976562 c 0,63,64
 2512 282 2512 282 2411.73632812 180 c 1,11,-1
EndSplineSet
EndChar

StartChar: uniFEBB
Encoding: 65211 65211 195
Width: 1730
VWidth: 3745
GlyphClass: 2
Flags: W
AnchorPoint: "Anchor-10" 1177.96 1217.91 basechar 0
AnchorPoint: "Anchor-7" 662.342 -247.568 basechar 0
LayerCount: 2
Fore
SplineSet
719.841796875 180 m 1,1,-1
 1030.98242188 180 l 2,2,3
 1280 180 1280 180 1385.04785156 260.935546875 c 0,4,5
 1469 326 1469 326 1469.26828302 420.444914062 c 0,6,7
 1469 483 1469 483 1430.5 531.915039062 c 0,8,9
 1386 588 1386 588 1284.18583112 587.921900864 c 0,10,11
 1057 588 1057 588 719.841796875 180 c 1,1,-1
1297 765 m 0,12,13
 1462 765 1462 765 1552.04785156 657.884765625 c 0,14,15
 1630 565 1630 565 1629.96679688 431.282226562 c 0,16,17
 1630 241 1630 241 1468.34863281 126.01953125 c 0,18,19
 1292 0 1292 0 939.491210938 0 c 2,20,-1
 704.678710938 0 l 2,21,22
 449 0 449 0 349.329101562 128.564453125 c 1,23,24
 264 0 264 0 28.1640625 0 c 2,25,-1
 -5 0 l 2,26,27
 -60.3662109375 0 -60.3662109375 0 -60.3662109375 77 c 2,28,-1
 -60.3662109375 102 l 2,29,30
 -59.9997260495 180.058349267 -59.9997260495 180.058349267 -5 179.999023438 c 2,31,-1
 29.4033203125 179.961914062 l 2,32,33
 266.926921058 179.999988286 266.926921058 179.999988286 279.373046875 371.895507812 c 2,34,-1
 292.100585938 568.129882812 l 1,35,-1
 410.33984375 568.129882812 l 1,36,-1
 425.078125 371.979492188 l 2,37,38
 438 197 438 197 570.114257812 180.815429688 c 1,39,40
 938 765 938 765 1297 765 c 0,12,13
EndSplineSet
EndChar

StartChar: uniFEBC
Encoding: 65212 65212 196
Width: 1795
VWidth: 3745
GlyphClass: 2
Flags: W
AnchorPoint: "Anchor-10" 1177.96 1217.91 basechar 0
AnchorPoint: "Anchor-7" 678.137 -236.413 basechar 0
LayerCount: 2
Fore
SplineSet
719.841796875 180 m 1,0,-1
 1030.98242188 180 l 2,1,2
 1280 180 1280 180 1385.04785156 260.935546875 c 0,3,4
 1469 326 1469 326 1469.26828302 420.444914062 c 0,5,6
 1469 483 1469 483 1430.5 531.915039062 c 0,7,8
 1386 588 1386 588 1284.18583112 587.921900864 c 0,9,10
 1057 588 1057 588 719.841796875 180 c 1,0,-1
1532.36132812 180 m 1,11,12
 1801 180 l 2,13,14
 1825 180 1825 180 1825 102 c 6,15,-1
 1825 77 l 6,16,17
 1825 -0.0203585724253 1825 -0.0203585724253 1801 0 c 2,18,-1
 1690.48144531 0.09375 l 2,19,20
 1477 0 1477 0 1383 78 c 1,21,22
 1216 0 1216 0 939.491210938 0 c 2,23,-1
 704.678710938 0 l 2,24,25
 449 0 449 0 349.329101562 128.564453125 c 1,26,27
 264 0 264 0 28.1640625 0 c 2,28,-1
 -5 0 l 2,29,30
 -60.3662109375 0 -60.3662109375 0 -60.3662109375 77 c 2,31,-1
 -60.3662109375 102 l 2,32,33
 -59.9997260495 180.058349267 -59.9997260495 180.058349267 -5 179.999023438 c 2,34,-1
 29.4033203125 179.961914062 l 2,35,36
 266.926921058 179.999988286 266.926921058 179.999988286 279.373046875 371.895507812 c 2,37,-1
 292.100585938 568.129882812 l 1,38,-1
 410.33984375 568.129882812 l 1,39,-1
 425.078125 371.979492188 l 2,40,41
 438 197 438 197 570.114257812 180.815429688 c 1,42,43
 938 765 938 765 1297 765 c 0,44,45
 1462 765 1462 765 1552.04785156 657.884765625 c 0,46,47
 1630 565 1630 565 1629.96679688 431.282226562 c 0,48,49
 1630 282 1630 282 1532.36132812 180 c 1,11,12
EndSplineSet
EndChar

StartChar: uniFEC2
Encoding: 65218 65218 202
Width: 1667
VWidth: 3745
GlyphClass: 2
Flags: W
AnchorPoint: "Anchor-10" 499.975 1572.06 basechar 0
AnchorPoint: "Anchor-7" 797.173 -236.469 basechar 0
LayerCount: 2
Fore
SplineSet
1385.16796875 180 m 1,0,1
 1678.51171875 180 l 2,2,3
 1702.51171875 180 1702.51171875 180 1702.51171875 102.610351562 c 2,4,-1
 1702.51171875 77.6103515625 l 2,5,6
 1703.00248345 0.6103515625 1703.00248345 0.6103515625 1678.51171875 0.6103515625 c 2,7,-1
 1568.90429688 0.6103515625 l 2,8,9
 1346 1 1346 1 1248 81 c 1,10,11
 1077 0 1077 0 799.443359375 0 c 2,12,-1
 270.19921875 0 l 1,13,14
 107 128 107 128 106.317382812 163 c 0,15,16
 106.006045549 180.65713366 106.006045549 180.65713366 134.399414062 180.657226562 c 2,17,-1
 432.862304688 180.658203125 l 1,18,19
 468 242 468 242 497.7890625 286.39453125 c 1,20,21
 492 380 492 380 475.507438683 777.770809725 c 0,22,23
 453 1316 453 1316 434.522460938 1389.796875 c 5,24,-1
 589 1457 l 6,25,26
 614.283244415 1468.12462754 614.283244415 1468.12462754 614.880859375 1432.04882812 c 6,27,-1
 631.05859375 455.458984375 l 1,28,29
 899 769 899 769 1157 769 c 0,30,31
 1322 769 1322 769 1412 661.977695079 c 0,32,33
 1490 569 1490 569 1489.91894531 435.375 c 0,34,35
 1490 286 1490 286 1385.16796875 180 c 1,0,1
579.793945312 180.791015625 m 1,36,-1
 890.934570312 180.791015625 l 2,37,38
 1135 181 1135 181 1245 265.028320312 c 0,39,40
 1329 330 1329 330 1329.22043146 424.537687515 c 0,41,42
 1329 488 1329 488 1290.45214844 536.0078125 c 0,43,44
 1246 592 1246 592 1144.13797955 592.014674302 c 0,45,46
 920 592 920 592 579.793945312 180.791015625 c 1,36,-1
EndSplineSet
EndChar

StartChar: uniFEC3
Encoding: 65219 65219 203
Width: 1326
VWidth: 3745
GlyphClass: 2
Flags: W
AnchorPoint: "Anchor-7" 502.774 -230.068 basechar 0
AnchorPoint: "Anchor-10" 231.176 1561.33 basechar 0
LayerCount: 2
Fore
SplineSet
315.725585938 180.438476562 m 1,0,-1
 626.866210938 180.438476562 l 2,1,2
 871 180 871 180 980.931640625 264.67578125 c 0,3,4
 1065 329 1065 329 1065.15234375 424.185546875 c 0,5,6
 1065 488 1065 488 1026.38378906 535.655273438 c 0,7,8
 982 592 982 592 880.069335938 591.662109375 c 0,9,10
 656 592 656 592 315.725585938 180.438476562 c 1,0,-1
535.375 0 m 2,11,-1
 -5 0 l 2,12,13
 -60.3662109375 0 -60.3662109375 0 -60.3662109375 77 c 2,14,-1
 -60.3662109375 102 l 2,15,16
 -60.0004602 179.901981073 -60.0004602 179.901981073 -5 179.999023438 c 2,17,-1
 168.793945312 180.305664062 l 1,18,19
 204 242 204 242 233.720703125 286.041992188 c 1,20,21
 227 401 227 401 211.439453125 777.41796875 c 0,22,23
 189 1316 189 1316 170.454101562 1389.44433594 c 5,24,-1
 324.931640625 1456.64746094 l 6,25,26
 350.209537628 1468.09489189 350.209537628 1468.09489189 350.8125 1431.69628906 c 6,27,-1
 366.990234375 455.106445312 l 1,28,29
 635 769 635 769 892.931640625 768.647460938 c 0,30,31
 1058 769 1058 769 1147.93164062 661.625 c 0,32,33
 1226 569 1226 569 1225.85058594 435.022460938 c 0,34,35
 1226 249 1226 249 1064.23242188 129.759765625 c 0,36,37
 889 0 889 0 535.375 0 c 2,11,-1
EndSplineSet
EndChar

StartChar: uniFEC4
Encoding: 65220 65220 204
Width: 1402
VWidth: 3745
GlyphClass: 2
Flags: W
AnchorPoint: "Anchor-7" 496.374 -224.802 basechar 0
AnchorPoint: "Anchor-10" 224.776 1572 basechar 0
LayerCount: 2
Fore
SplineSet
535.380859375 0.6484375 m 2,0,-1
 -5 0 l 2,1,2
 -60.3662109375 -0 -60.3662109375 -0 -60.3662109375 77 c 2,3,-1
 -60.3662109375 102 l 2,4,5
 -60.0019474656 179.585205414 -60.0019474656 179.585205414 -5 179.999023438 c 2,6,-1
 168.799804688 181.306640625 l 1,7,8
 204 243 204 243 233.7265625 287.04296875 c 1,9,10
 227 400 227 400 211.4453125 778.418945312 c 0,11,12
 189 1317 189 1317 170.459960938 1390.4453125 c 5,13,-1
 324.9375 1457.6484375 l 6,14,15
 350.215369194 1469.09754721 350.215369194 1469.09754721 350.818359375 1432.69726562 c 6,16,-1
 366.99609375 456.107421875 l 1,17,18
 635 770 635 770 892.9375 769.6484375 c 0,19,20
 1058 770 1058 770 1147.9375 662.625976562 c 0,21,22
 1226 570 1226 570 1225.85644531 436.0234375 c 0,23,24
 1226 287 1226 287 1121.10546875 180.6484375 c 1,25,-1
 1414.44921875 180.6484375 l 2,26,27
 1438.44921875 181.00670587 1438.44921875 181.00670587 1438.44921875 103.258789062 c 2,28,-1
 1438.44921875 78.2587890625 l 2,29,30
 1438.00150472 1.2587890625 1438.00150472 1.2587890625 1414.44921875 1.2587890625 c 2,31,-1
 1304.84179688 1.2587890625 l 2,32,33
 1082 1 1082 1 983.9375 81.6484375 c 1,34,35
 813 1 813 1 535.380859375 0.6484375 c 2,0,-1
315.731445312 181.439453125 m 1,36,-1
 626.872070312 181.439453125 l 2,37,38
 872 181 872 181 980.9375 265.676757812 c 0,39,40
 1065 331 1065 331 1065.15820312 425.186523438 c 0,41,42
 1065 489 1065 489 1026.38964844 536.65625 c 0,43,44
 982 593 982 593 880.075195312 592.663085938 c 0,45,46
 656 593 656 593 315.731445312 181.439453125 c 1,36,-1
EndSplineSet
EndChar

StartChar: uniFECA
Encoding: 65226 65226 210
Width: 1323
VWidth: 3739
GlyphClass: 2
Flags: W
AnchorPoint: "Anchor-7" 572.136 -813.44 basechar 0
AnchorPoint: "Anchor-10" 654.396 1243.45 basechar 0
LayerCount: 2
Fore
SplineSet
258.989257812 -83.6806640625 m 0,0,1
 258 208 258 208 579.0078125 370.376953125 c 0,2,3
 673 418 673 418 726.598632812 430.681640625 c 1,4,5
 779 0 779 0 1292.81933594 0 c 2,6,-1
 1329 0 l 2,7,8
 1353 0 1353 0 1353 77 c 2,9,-1
 1353 102 l 2,10,11
 1353 179.864042414 1353 179.864042414 1329 180 c 2,12,-1
 1288.66113281 180.228515625 l 2,13,14
 912 182 912 182 836.918945312 477.856445312 c 1,15,16
 1049 591 1049 591 1048.52636719 729.6796875 c 0,17,18
 1048 872 1048 872 749.80859375 873.9375 c 0,19,20
 454 876 454 876 349.991210938 810.005859375 c 1,21,-1
 350.116210938 683.598632812 l 1,22,-1
 353.096679688 683.58203125 l 2,23,24
 613 682 613 682 659.94921875 587.368164062 c 1,25,26
 580 559 580 559 507 519.383789062 c 0,27,28
 294 404 294 404 188.540438428 212 c 0,29,30
 112 73 112 73 112.260742188 -114.354492188 c 0,31,32
 112 -341 112 -341 268.965820312 -477.939453125 c 0,33,34
 342 -542 342 -542 469.94140625 -575.65625 c 0,35,36
 621 -615 621 -615 797.768554688 -614.81640625 c 0,37,38
 987 -615 987 -615 1096.98828125 -592.029296875 c 0,39,40
 1121 -587 1121 -587 1131.86523438 -561.625 c 0,41,42
 1165 -485 1165 -485 1171.87304688 -415.625 c 0,43,44
 1173 -405 1173 -405 1163.27148438 -406.337890625 c 0,45,46
 946 -436 946 -436 774.594726562 -435.2265625 c 0,47,48
 260 -432 260 -432 258.989257812 -83.6806640625 c 0,0,1
EndSplineSet
EndChar

StartChar: uniFECB
Encoding: 65227 65227 211
Width: 1063
VWidth: 3739
GlyphClass: 2
Flags: W
AnchorPoint: "Anchor-10" 537.836 1214.17 basechar 0
AnchorPoint: "Anchor-7" 478.066 -231.427 basechar 0
LayerCount: 2
Fore
SplineSet
-5 179.999023438 m 2,0,-1
 296.38671875 179.999023438 l 1,1,2
 155 287 155 287 154.620117188 440.444335938 c 0,3,4
 155 596 155 596 246 708 c 0,5,6
 371 861 371 861 577.108398438 861.420898438 c 0,7,8
 745 861 745 861 870.186523438 739.42578125 c 1,9,-1
 823.728515625 618.19140625 l 1,10,11
 674 676 674 676 594.655273438 676.245117188 c 0,12,13
 437 676 437 676 322.173828125 530.424804688 c 0,14,15
 294 495 294 495 294.1875 457.553710938 c 0,16,17
 294 379 294 379 394.0546875 305.606445312 c 0,18,19
 499 227 499 227 519.029296875 227.478515625 c 0,20,21
 529.473049134 228.024741257 529.473049134 228.024741257 782.681640625 282.788085938 c 2,22,-1
 924.16015625 313.38671875 l 1,23,24
 968.18354398 324.044434554 968.18354398 324.044434554 962.395507812 290.987304688 c 2,25,-1
 936.956054688 145.6953125 l 1,26,27
 554.380117601 2.14263024925 554.380117601 2.14263024925 62.5625 0.2587890625 c 2,28,-1
 -5 0 l 2,29,30
 -60.3662109375 -0 -60.3662109375 -0 -60.3662109375 77 c 2,31,-1
 -60.3662109375 102 l 2,32,33
 -60 180 -60 180 -5 179.999023438 c 2,0,-1
EndSplineSet
EndChar

StartChar: uniFECC
Encoding: 65228 65228 212
Width: 1019
VWidth: 3741
GlyphClass: 2
Flags: W
AnchorPoint: "Anchor-10" 515.738 1095.06 basechar 0
AnchorPoint: "Anchor-7" 459.112 -231.153 basechar 0
LayerCount: 2
Fore
SplineSet
-5 179.999023438 m 2,0,-1
 63.5791015625 179.961914062 l 2,1,2
 385 180 385 180 492.078125 319.1796875 c 1,3,4
 440 478 440 478 175.420898438 497.96484375 c 1,5,-1
 175.319335938 613.874023438 l 1,6,7
 288 683 288 683 530 683.619140625 c 0,8,9
 678 684 678 684 767.1875 639.69140625 c 0,10,11
 842 602 842 602 835.87109375 545.641601562 c 0,12,13
 827 455 827 455 655 305.572265625 c 1,14,15
 741 180 741 180 982.732421875 180 c 2,16,-1
 1025 180 l 2,17,18
 1049 180 1049 180 1049 102 c 2,19,-1
 1049 77 l 2,20,21
 1049 0 1049 0 1025 0 c 2,22,-1
 979.689453125 0 l 2,23,24
 726 0 726 0 565.125 185.731445312 c 1,25,26
 357.448342293 1.3979479632 357.448342293 1.3979479632 62.0966796875 0.2587890625 c 2,27,-1
 -5 0 l 2,28,29
 -60.3662109375 -0 -60.3662109375 -0 -60.3662109375 77 c 2,30,-1
 -60.3662109375 102 l 2,31,32
 -60 180 -60 180 -5 179.999023438 c 2,0,-1
EndSplineSet
EndChar

StartChar: uniFEDA
Encoding: 65242 65242 226
Width: 2016
VWidth: 3705
GlyphClass: 2
Flags: W
AnchorPoint: "Anchor-10" 897.215 1596.87 basechar 0
AnchorPoint: "Anchor-7" 810.608 -212.552 basechar 0
LayerCount: 2
Fore
SplineSet
1732.58886719 549.653320312 m 2,0,1
 1732.87689501 181.909110554 1732.87689501 181.909110554 1993.01269531 180.19140625 c 2,2,-1
 2022 180 l 2,3,4
 2046 180 2046 180 2046 102 c 2,5,-1
 2046 77 l 2,6,7
 2046 -0.108244780802 2046 -0.108244780802 2022 0 c 2,8,-1
 1993.41894531 0.12890625 l 2,9,10
 1729 1 1729 1 1654.73730469 217 c 1,11,12
 1636 180 1636 180 1611.63085938 162.662109375 c 0,13,14
 1392 2 1392 2 818.87890625 2 c 0,15,16
 477 2 477 2 305.037109375 98.587890625 c 0,17,18
 104 210 104 210 104.243164062 454.830078125 c 0,19,20
 104 605 104 605 184.85546875 766.762695312 c 1,21,-1
 286.431640625 732.233398438 l 1,22,23
 254 613 254 613 253.690429688 523.778320312 c 0,24,25
 254 424 254 424 294.80859375 362.3515625 c 0,26,27
 416 180 416 180 835.046875 180.487304688 c 0,28,29
 1114 181 1114 181 1315.89550781 225.599609375 c 0,30,31
 1474 260 1474 260 1543.30078125 300.086914062 c 0,32,33
 1587 325 1587 325 1586 574 c 0,34,35
 1585 845 1585 845 1574.0231904 996.764439161 c 0,36,37
 1558 1215 1558 1215 1543.86523438 1359.42089844 c 1,38,-1
 1695.09472656 1452.51171875 l 2,39,40
 1731.86417394 1474.91723419 1731.86417394 1474.91723419 1731.89941406 1429.92382812 c 2,41,-1
 1732.58886719 549.653320312 l 2,0,1
858.966796875 1196.08984375 m 0,42,43
 857 1151 857 1151 1014.56347656 1123.05273438 c 0,44,45
 1172 1096 1172 1096 1172.99902344 942.706054688 c 0,46,47
 1174 790 1174 790 1028.08007812 737.928710938 c 0,48,49
 967 716 967 716 872.77734375 719.596679688 c 0,50,51
 778 723 778 723 679.856445312 754.34375 c 1,52,-1
 693.578125 894.89453125 l 1,53,54
 804 856 804 856 895.76953125 857.314453125 c 0,55,56
 1075.09282587 860.016466517 1075.09282587 860.016466517 1085.1953125 928.447265625 c 0,57,58
 1087 944 1087 944 1073.83007812 957.377929688 c 0,59,60
 1046 986 1046 986 949.595703125 1007.00195312 c 0,61,62
 776 1045 776 1045 780.80859375 1212.73046875 c 0,63,64
 786 1399 786 1399 1098.7578125 1435.15136719 c 0,65,66
 1109 1436 1109 1436 1114.06054688 1436 c 128,-1,67
 1119 1436 1119 1436 1121.69238281 1435.79882812 c 0,68,69
 1153.04472266 1432.9960019 1153.04472266 1432.9960019 1141.62695312 1400.31835938 c 2,70,-1
 1104.68066406 1294.578125 l 1,71,72
 862 1270 862 1270 858.966796875 1196.08984375 c 0,42,43
EndSplineSet
EndChar

StartChar: uniFEDB
Encoding: 65243 65243 227
Width: 975
VWidth: 3745
GlyphClass: 2
Flags: W
AnchorPoint: "Anchor-10" 234.736 1529.92 basechar 0
AnchorPoint: "Anchor-7" 335.081 -261.885 basechar 0
LayerCount: 2
Fore
SplineSet
38.662109375 985.13671875 m 1,0,1
 75.662109375 1173.13671875 l 1,2,-1
 880.387695312 1466.50878906 l 2,3,4
 921.639400838 1481.86575803 921.639400838 1481.86575803 914.7734375 1438.34667969 c 2,5,-1
 892 1294 l 1,6,-1
 219 1063 l 1,7,8
 704 628 704 628 708.224609375 413.499023438 c 0,9,10
 711 269 711 269 619.263671875 173.694335938 c 0,11,12
 452 0 452 0 96.552734375 0 c 2,13,14
 -5 0 l 2,15,16
 -60.3662109375 0 -60.3662109375 0 -60.3662109375 77 c 2,17,-1
 -60.3662109375 102 l 2,18,19
 -60.000004585 179.999023438 -60.000004585 179.999023438 -5 179.999023438 c 2,20,-1
 96.5732421875 179.999023438 l 2,21,22
 374 180 374 180 514.095703125 297.864257812 c 0,23,24
 570 345 570 345 567.43359375 405.891601562 c 0,25,26
 562 544 562 544 38.662109375 985.13671875 c 1,0,1
EndSplineSet
EndChar

StartChar: uniFEDC
Encoding: 65244 65244 228
Width: 1211
VWidth: 3745
GlyphClass: 2
Flags: W
AnchorPoint: "Anchor-10" 242.919 1503.12 basechar 0
AnchorPoint: "Anchor-7" 404.945 -250.381 basechar 0
LayerCount: 2
Fore
SplineSet
38.662109375 985.13671875 m 1,0,1
 75.662109375 1173.13671875 l 1,2,-1
 880.387695312 1466.50878906 l 2,3,4
 921.639400838 1481.86575803 921.639400838 1481.86575803 914.7734375 1438.34667969 c 2,5,-1
 892 1294 l 1,6,-1
 219 1063 l 1,7,8
 455 849 455 849 749.3984375 496.853515625 c 0,9,10
 1010.93945906 184.072401884 1010.93945906 184.072401884 1203.55957031 180.265625 c 2,11,-1
 1217 180 l 2,12,13
 1241 180 1241 180 1241 102 c 2,14,-1
 1241 77 l 2,15,16
 1241 0 1241 0 1217 0 c 2,17,-1
 1203.9765625 0 l 2,18,19
 946 0 946 0 706.791992188 315.80859375 c 1,20,21
 645 171 645 171 482.638671875 78.162109375 c 0,22,23
 346 0 346 0 95.486328125 0 c 2,24,-1
 -5 0 l 2,25,26
 -60.3662109375 0 -60.3662109375 0 -60.3662109375 77 c 2,27,-1
 -60.3662109375 102 l 2,28,29
 -60.000004585 179.999023438 -60.000004585 179.999023438 -5 179.999023438 c 2,30,-1
 95.5068359375 179.999023438 l 2,31,32
 379 180 379 180 513.030273438 298.399414062 c 0,33,34
 572 351 572 351 567.137695312 414.953125 c 0,35,36
 557 545 557 545 38.662109375 985.13671875 c 1,0,1
EndSplineSet
EndChar

StartChar: uniFEDE
Encoding: 65246 65246 230
Width: 1449
VWidth: 3705
GlyphClass: 2
Flags: W
AnchorPoint: "Anchor-10" 587.374 1003.89 basechar 0
AnchorPoint: "Anchor-7" 626.521 -751.186 basechar 0
LayerCount: 2
Fore
SplineSet
674.125 -359.364257812 m 0,0,1
 1059.38385867 -350.312530259 1059.38385867 -350.312530259 1075.62644761 -32 c 0,2,3
 1078.79834345 30.1609148184 1078.79834345 30.1609148184 1075.85490774 114 c 0,4,5
 1029 1328 1029 1328 1018.23632812 1382.83886719 c 1,6,-1
 1167 1450 l 2,7,8
 1195.3247714 1463.15078672 1195.3247714 1463.15078672 1196 1432 c 2,9,-1
 1219.19238281 362.049804688 l 2,10,11
 1223 180 1223 180 1430.6015625 180 c 2,12,-1
 1455 180 l 2,13,14
 1479 180 1479 180 1479 102 c 2,15,-1
 1479 77 l 2,16,17
 1479 0 1479 0 1455 0 c 2,18,-1
 1432.36328125 0 l 2,19,20
 1286 0 1286 0 1225.76660156 88.3427734375 c 1,21,22
 1225 -535 1225 -535 666.619140625 -538.935546875 c 0,23,24
 381 -541 381 -541 237.024414062 -386.934570312 c 0,25,26
 107 -246 107 -246 106.561523438 -25.052734375 c 0,27,28
 107 164 107 164 209.770507812 384.857421875 c 1,29,-1
 320.032226562 352.3203125 l 1,30,31
 260 159 260 159 260.487304688 18.580078125 c 0,32,33
 260 -369 260 -369 674.125 -359.364257812 c 0,0,1
EndSplineSet
EndChar

StartChar: uniFEDF
Encoding: 65247 65247 231
Width: 556
VWidth: 3705
GlyphClass: 2
Flags: W
AnchorPoint: "Anchor-10" 258.796 1592.56 basechar 0
AnchorPoint: "Anchor-7" 183.305 -251.229 basechar 0
LayerCount: 2
Fore
SplineSet
-5 179.999023438 m 2,0,-1
 16.552734375 179.999023438 l 2,1,2
 118 180 118 180 178 207.721359611 c 0,3,4
 257 244 257 244 263.281783257 367 c 0,5,6
 266 415 266 415 265.431616225 485 c 0,7,8
 265 565 265 565 258.478515625 672.23046875 c 0,9,10
 226 1165 226 1165 202.827148438 1409.14941406 c 1,11,-1
 310.034179688 1460.72851562 l 2,12,13
 364.050657795 1486.62701087 364.050657795 1486.62701087 373.499023438 1475 c 4,14,15
 380 1467 380 1467 381.842773438 1420.09179688 c 2,16,-1
 410.239257812 540.3359375 l 2,17,18
 419 271 419 271 365.708007812 163.354492188 c 0,19,20
 285 0 285 0 10.892578125 0 c 2,21,-1
 -5 0 l 2,22,23
 -80.3662109375 0 -80.3662109375 0 -80.3662109375 77 c 2,24,-1
 -80.3662109375 102 l 2,25,26
 -80 180 -80 180 -5 179.999023438 c 2,0,-1
EndSplineSet
EndChar

StartChar: uniFEE0
Encoding: 65248 65248 232
Width: 677
VWidth: 3705
GlyphClass: 2
Flags: W
AnchorPoint: "Anchor-10" 318.267 1558.21 basechar 0
AnchorPoint: "Anchor-7" 284.362 -247.795 basechar 0
LayerCount: 2
Fore
SplineSet
-5 179.999023438 m 2,0,-1
 39.7373046875 179.999023438 l 2,1,2
 123 180 123 180 185 213.032174554 c 0,3,4
 273 260 273 260 288.839220833 370 c 0,5,6
 298 434 298 434 294.017803667 532 c 0,7,8
 276 958 276 958 258.544921875 1384.41601562 c 5,9,-1
 412 1453 l 6,10,11
 437.186523437 1464.10141728 437.186523437 1464.10141728 437.186523438 1432 c 6,12,-1
 437.186523438 430.708984375 l 2,13,14
 436.999996458 179.995239388 436.999996458 179.995239388 632.537109375 179.999023438 c 2,15,-1
 683 180 l 2,16,17
 757 180 757 180 757 102 c 2,18,-1
 757 77 l 2,19,20
 757 0 757 0 683 0 c 2,21,-1
 642.051757812 0 l 2,22,23
 445 0 445 0 354.0078125 143.907226562 c 1,24,25
 243 0 243 0 46.2060546875 0 c 2,26,-1
 -5 0 l 2,27,28
 -80.3662109375 0 -80.3662109375 0 -80.3662109375 77 c 2,29,-1
 -80.3662109375 102 l 2,30,31
 -80 180 -80 180 -5 179.999023438 c 2,0,-1
EndSplineSet
EndChar

StartChar: uniFEE2
Encoding: 65250 65250 234
Width: 1258
VWidth: 3782
GlyphClass: 2
Flags: W
AnchorPoint: "Anchor-10" 578.784 1171.23 basechar 0
AnchorPoint: "Anchor-7" 210.916 -827.977 basechar 0
LayerCount: 2
Fore
SplineSet
1264 0 m 2,0,-1
 1257.08691406 0 l 2,1,2
 1146 0 1146 0 1066 76 c 1,3,4
 987 -193 987 -193 783.975585938 -193.045898438 c 0,5,6
 502.065708572 -193.000010696 502.065708572 -193.000010696 500.208007812 158.155273438 c 2,7,8
 499.407226562 309.524414062 l 1,9,10
 321 256 321 256 255.500976562 144.25390625 c 1,11,-1
 270.356445312 -479.451171875 l 2,12,13
 272 -543 272 -543 169.544921875 -648.950195312 c 0,14,15
 153 -666 153 -666 142.093485675 -666.153540857 c 0,16,17
 126.75836248 -665.997541904 126.75836248 -665.997541904 125.5 -629.165039062 c 2,18,-1
 112.159179688 -238.676757812 l 2,19,20
 110 -175 110 -175 109.885742188 -76.337890625 c 0,21,22
 110 13 110 13 117.723632812 90.7021484375 c 0,23,24
 133 244 133 244 248.178710938 360.98828125 c 0,25,26
 363 478 363 478 525.522460938 493.297851562 c 1,27,28
 547 594 547 594 570.303710938 639.526367188 c 0,29,30
 580.914299198 660.82794897 580.914299198 660.82794897 600.916015625 645.4765625 c 2,31,-1
 1107.52636719 256.651367188 l 2,32,33
 1207.006445 179.995033677 1207.006445 179.995033677 1252.79296875 179.999023438 c 2,34,-1
 1264 180 l 2,35,36
 1338 180 1338 180 1338 102 c 2,37,-1
 1338 77 l 2,38,39
 1338 0 1338 0 1264 0 c 2,0,-1
635.899414062 394.45703125 m 1,40,-1
 635.67578125 163.111328125 l 2,41,42
 636 -9 636 -9 795.8828125 -9.755859375 c 0,43,44
 888 -10 888 -10 922.763671875 63.1689453125 c 0,45,46
 935 89 935 89 935.014772118 130.70095162 c 0,47,48
 935 175 935 175 870.763671875 235.66015625 c 0,49,50
 787 314 787 314 635.899414062 394.45703125 c 1,40,-1
EndSplineSet
EndChar

StartChar: uniFEE3
Encoding: 65251 65251 235
Width: 1008
VWidth: 3749
GlyphClass: 2
Flags: W
AnchorPoint: "Anchor-10" 543.686 1120.83 basechar 0
AnchorPoint: "Anchor-7" 517.424 -258.974 basechar 0
LayerCount: 2
Fore
SplineSet
-5 179.999023438 m 2,0,-1
 11.01953125 179.999023438 l 2,1,2
 90 180 90 180 194 317 c 0,3,4
 331.775444403 498.441978695 331.775444403 498.441978695 406 588.279296875 c 0,5,6
 495 696 495 696 606.32488537 696.093262677 c 0,7,8
 716 696 716 696 790.948242188 598.036132812 c 0,9,10
 907 447 907 447 907.232603351 289.963508471 c 0,11,12
 907 132 907 132 808.014648438 39.3388671875 c 0,13,14
 749 -17 749 -17 689.65625 -17.083984375 c 0,15,16
 548 -17 548 -17 295.989257812 179.768554688 c 1,17,18
 159 0 159 0 12.4541015625 0 c 2,19,-1
 -5 0 l 2,20,21
 -60.3662109375 0 -60.3662109375 0 -60.3662109375 77 c 2,22,-1
 -60.3662109375 102 l 2,23,24
 -60 180 -60 180 -5 179.999023438 c 2,0,-1
396.130859375 330.145507812 m 1,25,26
 577 174 577 174 675.114503226 173.997705898 c 0,27,28
 717 174 717 174 744.59375 202.744140625 c 128,-1,29
 772.288173863 231.297107417 772.288173863 231.297107417 772.249229211 279 c 0,30,31
 772.191487528 349.727177387 772.191487528 349.727177387 724.272460938 418 c 0,32,33
 661 509 661 509 605.106000554 509.497915714 c 0,34,35
 519 509 519 509 396.130859375 330.145507812 c 1,25,26
EndSplineSet
EndChar

StartChar: uniFEE4
Encoding: 65252 65252 236
Width: 1145
VWidth: 3749
GlyphClass: 2
Flags: W
AnchorPoint: "Anchor-10" 573.076 1072.23 basechar 0
AnchorPoint: "Anchor-7" 517.449 -276.66 basechar 0
LayerCount: 2
Fore
SplineSet
-5 179.999023438 m 2,0,-1
 31.01953125 179.999023438 l 2,1,2
 131 180 131 180 221 291 c 0,3,4
 375 479 375 479 441 548.827082645 c 0,5,6
 521 633 521 633 621.812432367 633.01036761 c 0,7,8
 710 633 710 633 772.264648438 569.344726562 c 0,9,10
 851 490 851 490 944.547851562 301.848632812 c 0,11,12
 1005 180 1005 180 1133.34765625 180 c 2,13,-1
 1151 180 l 2,14,15
 1175 180 1175 180 1175 102 c 2,16,-1
 1175 77 l 2,17,18
 1175 0 1175 0 1151 0 c 2,19,-1
 1133.44726562 0 l 2,20,21
 991 0 991 0 887.565429688 110.67578125 c 1,22,23
 802 -41 802 -41 687.361363656 -41.6969341923 c 0,24,25
 538 -42 538 -42 306.024414062 139.534179688 c 1,26,27
 195 0 195 0 32.4541015625 0 c 2,28,-1
 -5 0 l 2,29,30
 -60.3662109375 0 -60.3662109375 0 -60.3662109375 77 c 2,31,-1
 -60.3662109375 102 l 2,32,33
 -60 180 -60 180 -5 179.999023438 c 2,0,-1
416.134765625 284.944335938 m 1,34,35
 583 140 583 140 678.0859375 139.565429688 c 0,36,37
 784.423451836 140.109640216 784.423451836 140.109640216 784.423451836 250.783921418 c 0,38,39
 784.423451836 316.296501602 784.423451836 316.296501602 735.3828125 383.169921875 c 0,40,41
 680 459 680 459 610.704101562 458.977539062 c 0,42,43
 536 459 536 459 416.134765625 284.944335938 c 1,34,35
EndSplineSet
EndChar

StartChar: uniFEEA
Encoding: 65258 65258 242
Width: 1016
VWidth: 3733
GlyphClass: 2
Flags: W
AnchorPoint: "Anchor-10" 587.224 1208.82 basechar 0
AnchorPoint: "Anchor-7" 432.803 -196.268 basechar 0
LayerCount: 2
Fore
SplineSet
1022 0 m 2,0,-1
 990.321289062 0 l 2,1,2
 769 0 769 0 684.489257812 236.897460938 c 1,3,-1
 512.211914062 135.474609375 l 1,4,-1
 511.369140625 135.487304688 l 2,5,6
 132 141 132 141 101.947265625 260.927734375 c 0,7,8
 93 297 93 297 92.4579552204 382.812538671 c 0,9,10
 92 441 92 441 106.29296875 487.627929688 c 0,11,12
 159 668 159 668 555.028320312 803.076171875 c 1,13,-1
 542.123046875 869.541015625 l 1,14,-1
 623.490234375 965.895507812 l 2,15,16
 636 981 636 981 641.3359375 983.454101562 c 0,17,18
 662.870674617 992.943014983 662.870674617 992.943014983 675 933 c 6,19,-1
 781.866210938 404.868164062 l 2,20,21
 827 180 827 180 991.045898438 180 c 2,22,-1
 1022 180 l 2,23,24
 1046 180 1046 180 1046 102 c 2,25,-1
 1046 77 l 2,26,27
 1046 0 1046 0 1022 0 c 2,0,-1
234.090820312 393.059570312 m 0,28,29
 266.380723526 328.274307637 266.380723526 328.274307637 503.953025085 328.274307637 c 0,30,31
 545.296736652 328.274307637 545.296736652 328.274307637 592.857421875 330.236328125 c 2,32,-1
 655.029296875 332.8828125 l 1,33,-1
 588.43359375 633.127929688 l 1,34,35
 317 548 317 548 260 488 c 0,36,37
 227.128363033 453.758711493 227.128363033 453.758711493 227.128363033 421.890292325 c 0,38,39
 227.128363033 407.223635628 227.128363033 407.223635628 234.090820312 393.059570312 c 0,28,29
EndSplineSet
EndChar

StartChar: uniFEEB
Encoding: 65259 65259 243
Width: 1226
VWidth: 3739
GlyphClass: 2
Flags: W
AnchorPoint: "Anchor-10" 538.316 1341.29 basechar 0
AnchorPoint: "Anchor-7" 525.812 -214.204 basechar 0
LayerCount: 2
Fore
SplineSet
-5 179.999023438 m 2,0,-1
 59.1103515625 180 l 2,1,2
 252 180 252 180 347.5546875 215.177734375 c 1,3,4
 146.245126456 288.812993647 146.245126456 288.812993647 143.479748646 452.587715486 c 0,5,6
 143 481 143 481 150.268554688 513.397460938 c 0,7,8
 193 712 193 712 389.01171875 830.481445312 c 1,9,-1
 257.727539062 884.189453125 l 1,10,-1
 320.350585938 1056.64550781 l 1,11,-1
 701.23046875 876.831054688 l 1,12,13
 1124.60997859 675.660474603 1124.60997859 675.660474603 1125.83121916 418.535769481 c 0,14,15
 1126 383 1126 383 1117.86230469 347.336914062 c 0,16,17
 1093 234 1093 234 1032 152.5 c 0,18,19
 962 59 962 59 868.555847153 59.4867263815 c 0,20,21
 775 59 775 59 502.42578125 142.095703125 c 1,22,23
 283 0 283 0 47.8837890625 0 c 2,24,-1
 -5 0 l 2,25,26
 -60.3662109375 0 -60.3662109375 0 -60.3662109375 77 c 2,27,-1
 -60.3662109375 102 l 2,28,29
 -60 180 -60 180 -5 179.999023438 c 2,0,-1
644.173828125 288.377929688 m 1,30,31
 819 227 819 227 925.875976562 221.157226562 c 1,32,33
 989.621165966 326.26182515 989.621165966 326.26182515 989.621165966 403.274089449 c 0,34,35
 989.621165966 441.183696159 989.621165966 441.183696159 974.174804688 472.286132812 c 0,36,37
 941 539 941 539 772.520507812 618.564453125 c 1,38,39
 772.817621302 609.826226717 772.817621302 609.826226717 772.817621302 601.195113277 c 0,40,41
 772.817621302 421.597708062 772.817621302 421.597708062 644.173828125 288.377929688 c 1,30,31
505.2734375 336.993164062 m 1,42,43
 609 404 609 404 645.170898438 549.45703125 c 0,44,45
 652.145665357 577.186614208 652.145665357 577.186614208 652.145665357 600.544617322 c 0,46,47
 652.145665357 683.780033323 652.145665357 683.780033323 563.578125 711.50390625 c 0,48,49
 533.950930689 720.722366578 533.950930689 720.722366578 506.180304621 720.722366578 c 0,50,51
 405.931382206 720.722366578 405.931382206 720.722366578 329.875976562 600.59375 c 0,52,53
 284.310554678 528.881209501 284.310554678 528.881209501 284.310554678 487.901035197 c 128,-1,54
 284.310554678 446.920860894 284.310554678 446.920860894 319.830078125 419.421875 c 0,55,56
 391 366 391 366 505.2734375 336.993164062 c 1,42,43
EndSplineSet
EndChar

StartChar: uniFEEC
Encoding: 65260 65260 244
Width: 928
VWidth: 3768
GlyphClass: 2
Flags: W
AnchorPoint: "Anchor-7" 339.865 -725.584 basechar 0
AnchorPoint: "Anchor-10" 439.619 1211.17 basechar 0
LayerCount: 2
Fore
SplineSet
-5 179.999023438 m 2,0,-1
 164.1796875 180.375 l 1,1,2
 196 537 196 537 383.331054688 793.994140625 c 0,3,4
 420 844 420 844 458.487304688 844.541015625 c 0,5,6
 496.893709654 845.36043595 496.893709654 845.36043595 580.112697247 757 c 4,7,8
 733.034039254 594.630848002 733.034039254 594.630848002 733.180664062 360.434570312 c 0,9,10
 733 227 733 227 612.439453125 121.495117188 c 0,11,12
 496 19 496 19 302.770507812 -0.92578125 c 1,13,14
 374 -181 374 -181 541.434570312 -308.951171875 c 1,15,16
 600 180 600 180 911.092773438 180 c 2,17,-1
 934 180 l 2,18,19
 958 180 958 180 958 102 c 2,20,-1
 958 77 l 2,21,22
 958 0 958 0 934 0 c 2,23,-1
 904.28515625 0 l 2,24,25
 696 0 696 0 695.977539062 -257.297851562 c 0,26,27
 696 -354 696 -354 718.635742188 -429.940429688 c 1,28,-1
 586.017578125 -550.971679688 l 1,29,30
 217 -287 217 -287 171.772460938 0.109375 c 1,31,-1
 -5 0 l 2,32,33
 -60.3662109375 -0 -60.3662109375 -0 -60.3662109375 77 c 2,34,-1
 -60.3662109375 102 l 2,35,36
 -60 180 -60 180 -5 179.999023438 c 2,0,-1
291.271484375 182.501953125 m 1,37,38
 606 193 606 193 606.0546875 359.203125 c 0,39,40
 606 458 606 458 443.221679688 642.567382812 c 1,41,42
 336 476 336 476 291.271484375 182.501953125 c 1,37,38
EndSplineSet
EndChar

StartChar: uniFEEE
Encoding: 65262 65262 246
Width: 856
VWidth: 3773
GlyphClass: 2
Flags: W
AnchorPoint: "Anchor-7" 272.313 -737.669 basechar 0
AnchorPoint: "Anchor-10" 426.024 1186.41 basechar 0
LayerCount: 2
Fore
SplineSet
79.212890625 -401.844726562 m 0,0,1
 512 -287 512 -287 576.234375 0 c 1,2,-1
 441.193359375 0 l 2,3,4
 241 0 241 0 176.512695312 70.6064453125 c 0,5,6
 108.560209854 145.285349514 108.560209854 145.285349514 108.560209854 259.300832682 c 0,7,8
 108.560209854 300.175491977 108.560209854 300.175491977 115.487304688 344.6640625 c 0,9,10
 132 446 132 446 166.314453125 516 c 0,11,12
 254.335619201 697.692783219 254.335619201 697.692783219 410.53233852 697.787727238 c 0,13,14
 585.096606489 697.787727238 585.096606489 697.787727238 674.97265625 500.303710938 c 0,15,16
 729 382 729 382 732.544921875 180 c 1,17,-1
 862 180 l 2,18,19
 886 180 886 180 886 102 c 2,20,-1
 886 77 l 2,21,22
 886 0 886 0 862 0 c 2,23,-1
 723.0078125 0 l 17,24,25
 704 -116 704 -116 646.930664062 -212 c 0,26,27
 561 -358 561 -358 394.763671875 -455.211914062 c 0,28,29
 288.964297664 -516.855509576 288.964297664 -516.855509576 191.038085938 -540.3515625 c 0,30,31
 180.000783628 -542.828653499 180.000783628 -542.828653499 169.479492188 -542.866210938 c 0,32,33
 132 -543 132 -543 106 -509 c 128,-1,34
 80 -475 80 -475 72.13671875 -460.24609375 c 0,35,36
 60 -438 60 -438 60.1337890625 -424.524414062 c 0,37,38
 60 -407 60 -407 79.212890625 -401.844726562 c 0,0,1
583.814453125 180.555664062 m 1,39,40
 569 369 569 369 515.333007812 448 c 0,41,42
 472.177273524 510.742269633 472.177273524 510.742269633 401.065163848 510.742269633 c 0,43,44
 310.916880634 510.742269633 310.916880634 510.742269633 274.943359375 399.198242188 c 0,45,46
 254.311117699 336.805791374 254.311117699 336.805791374 254.311117699 292.197368522 c 0,47,48
 254.311117699 213.690063404 254.311117699 213.690063404 318.215820312 190.265625 c 0,49,50
 350.135256184 178.672478096 350.135256184 178.672478096 471.477546919 178.672478096 c 0,51,52
 520.383094327 178.672478096 520.383094327 178.672478096 583.814453125 180.555664062 c 1,39,40
EndSplineSet
EndChar

StartChar: uniFEF0
Encoding: 65264 65264 248
Width: 1466
VWidth: 3745
GlyphClass: 2
Flags: W
AnchorPoint: "Anchor-10" 689.539 784.408 basechar 0
AnchorPoint: "Anchor-7" 650.513 -714.205 basechar 0
LayerCount: 2
Fore
SplineSet
677.813476562 -349.276367188 m 0,0,1
 994 -349 994 -349 1130.73242188 -215.44140625 c 0,2,3
 1168 -178 1168 -178 1168.23628228 -143.414731611 c 0,4,5
 1168 -101 1168 -101 1112.39355469 -61.5849609375 c 0,6,7
 1042 -12 1042 -12 950.193359375 -2.484375 c 0,8,9
 857 7 857 7 845.94921875 12.671875 c 0,10,11
 835 18 835 18 838.204101562 44.79296875 c 0,12,13
 856 180 856 180 927.348632812 180 c 2,14,-1
 1472 180 l 2,15,16
 1496 180 1496 180 1496 102 c 2,17,-1
 1496 77 l 2,18,19
 1496 -0.110418811291 1496 -0.110418811291 1472 0 c 2,20,-1
 1255.70703125 0.9951171875 l 1,21,22
 1320 -46 1320 -46 1320.0703125 -124.166015625 c 0,23,24
 1319.998629 -233.083119884 1319.998629 -233.083119884 1220 -335.475585938 c 0,25,26
 1031 -528 1031 -528 668.483398438 -528.856445312 c 24,27,28
 456.141408816 -528.62668944 456.141408816 -528.62668944 308 -434.66796875 c 0,29,30
 107 -306 107 -306 106.9296875 -24.5048828125 c 0,31,32
 107 169 107 169 209.79296875 394.94140625 c 1,33,-1
 320.0546875 362.40234375 l 1,34,35
 263 175 263 175 262.880859375 23.18359375 c 0,36,37
 263.001174336 -349.638939596 263.001174336 -349.638939596 677.813476562 -349.276367188 c 0,0,1
EndSplineSet
EndChar

StartChar: uniFEFB
Encoding: 65275 65275 259
Width: 1217
VWidth: 3705
GlyphClass: 3
Flags: W
AnchorPoint: "Anchor-9" 167.839 1594.33 baselig 1
AnchorPoint: "Anchor-9" 916.282 1597.62 baselig 0
AnchorPoint: "Anchor-6" 920.383 -179.223 baselig 0
AnchorPoint: "Anchor-6" 283.478 -263.959 baselig 1
LayerCount: 2
Fore
SplineSet
227.23828125 -23.8408203125 m 1,0,1
 191 53 191 53 182.485351562 120.66015625 c 0,2,3
 181 132 181 132 186.702148438 132.490234375 c 0,4,5
 488 152 488 152 625.094726562 198.84765625 c 1,6,-1
 90.3798828125 1243.79101562 l 1,7,-1
 232.311523438 1347.67382812 l 1,8,-1
 744.359375 254.645507812 l 1,9,10
 901 340 901 340 917.798828125 489.8671875 c 0,11,12
 938 675 938 675 865.234375 1380.09863281 c 1,13,-1
 1015 1454 l 2,14,15
 1044.00986407 1468.00476196 1044.00986407 1468.00476196 1045 1435 c 2,16,-1
 1068.72851562 644.043945312 l 2,17,18
 1078 322 1078 322 898.654785156 149.124023438 c 0,19,20
 720.011499121 -21.9889855964 720.011499121 -21.9889855964 229.836914062 -23.8310546875 c 2,21,-1
 227.23828125 -23.8408203125 l 1,0,1
EndSplineSet
LCarets2: 1 0
Ligature2: "'rlig' Required Ligatures in Arabic lookup 16 subtable" uniFEDF uniFE8E
EndChar

StartChar: uniFEFC
Encoding: 65276 65276 260
Width: 1321
VWidth: 3705
GlyphClass: 3
Flags: W
AnchorPoint: "Anchor-9" 916.282 1597.62 baselig 0
AnchorPoint: "Anchor-6" 951.695 -210.265 baselig 0
AnchorPoint: "Anchor-6" 278.932 -246.661 baselig 1
AnchorPoint: "Anchor-9" 167.839 1594.33 baselig 1
LayerCount: 2
Fore
SplineSet
1327 0 m 2,0,-1
 1296.6796875 0 l 2,1,2
 1032 0 1032 0 971.197265625 265.041992188 c 1,3,4
 782 -25 782 -25 227.275390625 -25.8388671875 c 1,5,6
 193 49 193 49 183.658203125 107.208984375 c 0,7,8
 180 130 180 130 186.59375 130.485351562 c 0,9,10
 487 149 487 149 622.092773438 196.850585938 c 1,11,-1
 90.3798828125 1243.79101562 l 1,12,-1
 232.311523438 1347.67382812 l 1,13,-1
 741.35546875 252.651367188 l 1,14,15
 901 345 901 345 917.793945312 519.810546875 c 0,16,17
 922 564 922 564 921.519241682 627.925215399 c 0,18,19
 922 827 922 827 865.23046875 1379.09472656 c 1,20,-1
 1016 1456 l 2,21,22
 1043.74315584 1469.87157792 1043.74315584 1469.87157792 1045 1430 c 2,23,-1
 1072.99316406 541.95703125 l 2,24,25
 1083.99597853 184.130783483 1083.99597853 184.130783483 1297.01171875 180.509765625 c 2,26,-1
 1327 180 l 2,27,28
 1351 180 1351 180 1351 102 c 2,29,-1
 1351 77 l 2,30,31
 1351 0 1351 0 1327 0 c 2,0,-1
EndSplineSet
LCarets2: 1 0
Ligature2: "'rlig' Required Ligatures in Arabic lookup 16 subtable" uniFEE0 uniFE8E
EndChar

StartChar: arabic_dot
Encoding: 65536 -1 261
Width: 233
VWidth: 3243
GlyphClass: 2
Flags: W
LayerCount: 2
Fore
SplineSet
128.224922417 262.752535769 m 2,0,-1
 251.634773213 139.343659963 l 6,1,2
 260.495457557 129.930276127 260.495457557 129.930276127 249.018858176 117.783586824 c 6,3,-1
 130.684738366 -0.551511981399 l 2,4,5
 116.098369592 -14.4169133456 116.098369592 -14.4169133456 101.857950593 -0.177205656644 c 2,6,-1
 -14.3186485966 115.99939352 l 2,7,8
 -27.5535571732 129.97904538 -27.5535571732 129.97904538 -13.7353475372 144.327071589 c 2,9,-1
 104.917660803 262.980079931 l 2,10,11
 116.866515843 274.112269495 116.866515843 274.112269495 128.224922417 262.752535769 c 2,0,-1
EndSplineSet
EndChar

StartChar: arabic_2dots
Encoding: 65537 -1 262
Width: 612
VWidth: 3243
GlyphClass: 2
Flags: W
LayerCount: 2
Fore
SplineSet
469.197265625 1.3671875 m 2,0,1
 455.959960938 -12.1826171875 455.959960938 -12.1826171875 442.42578125 1.3515625 c 2,2,-1
 331.111328125 112.66796875 l 2,3,4
 317.782226562 126.221679688 317.782226562 126.221679688 331.614257812 140.053710938 c 2,5,-1
 444.680664062 253.120117188 l 2,6,7
 456 264 456 264 466.862304688 253.186523438 c 2,8,-1
 585.596679688 134.451171875 l 2,9,10
 594.561576972 126.158709131 594.561576972 126.158709131 582.696289062 114.8671875 c 2,11,-1
 469.197265625 1.3671875 l 2,0,1
165.53515625 253.181640625 m 2,12,-1
 283.888671875 134.828125 l 2,13,14
 291.908237828 125.410373439 291.908237828 125.410373439 281.313476562 114.815429688 c 2,15,-1
 167.919921875 1.419921875 l 2,16,17
 154.227664605 -11.7805130488 154.227664605 -11.7805130488 141.177734375 1.26953125 c 2,18,-1
 29.455078125 112.993164062 l 2,19,20
 16.116752009 125.887137465 16.116752009 125.887137465 30.283203125 140.053710938 c 2,21,-1
 143.349609375 253.12109375 l 2,22,23
 154 264 154 264 165.53515625 253.181640625 c 2,12,-1
EndSplineSet
EndChar

StartChar: arabic_3dots
Encoding: 65538 -1 263
Width: 590
VWidth: 3243
GlyphClass: 2
Flags: W
LayerCount: 2
Fore
SplineSet
300.868164062 444.268554688 m 6,0,-1
 412 333.13671875 l 6,1,2
 418.236816406 326.899902344 418.236816406 326.899902344 412.788085938 321.451171875 c 6,3,-1
 303.4921875 212.153320312 l 6,4,5
 295.642578125 204.3046875 295.642578125 204.3046875 287.793945312 212.153320312 c 6,6,-1
 180.5390625 319.41015625 l 6,7,8
 173.03125 326.881835938 173.03125 326.881835938 181.061523438 334.912109375 c 6,9,-1
 290.357421875 444.208984375 l 6,10,11
 295.64453125 449.495117188 295.64453125 449.495117188 300.868164062 444.268554688 c 6,0,-1
446.813476562 217.922851562 m 6,12,-1
 559 105.736328126 l 6,13,14
 564.235061384 100.501266742 564.235061384 100.501266742 558.786132812 95.0517578125 c 6,15,-1
 448.759765625 -14.986328125 l 6,16,17
 441.778536933 -22.2297815294 441.778536933 -22.2297815294 433.793945312 -14.2451171875 c 6,18,-1
 326.5703125 92.9794921875 l 6,19,20
 319.26655782 100.71759038 319.26655782 100.71759038 327.061523438 108.512695312 c 6,21,-1
 436.342773438 217.795898438 l 6,22,23
 442 223 442 223 446.813476562 217.922851562 c 6,12,-1
266.788085938 95.052734375 m 6,24,-1
 157.844726562 -13.892578125 l 6,25,26
 149.779053671 -22.2283451293 149.779053671 -22.2283451293 141.795898438 -14.2451171875 c 6,27,-1
 34.572265625 92.9794921875 l 6,28,29
 27.2675755388 100.716585259 27.2675755388 100.716585259 35.0634765625 108.512695312 c 6,30,-1
 144.328125 217.780273438 l 6,31,32
 150.578593555 222.159575585 150.578593555 222.159575585 154.787109375 217.952148438 c 6,33,-1
 266 106.768026711 l 6,34,35
 272.252448856 100.517195258 272.252448856 100.517195258 266.788085938 95.052734375 c 6,24,-1
EndSplineSet
EndChar

StartChar: arabic_3dots_a
Encoding: 65539 -1 264
Width: 636
VWidth: 3243
GlyphClass: 2
Flags: W
LayerCount: 2
Fore
SplineSet
323.868164062 -203.986328125 m 2,0,1
 318.64453125 -209.212890625 318.64453125 -209.212890625 313.357421875 -203.926757812 c 2,2,-1
 204.061523438 -94.6298828125 l 2,3,4
 196.03125 -86.599609375 196.03125 -86.599609375 203.5390625 -79.1279296875 c 2,5,-1
 310.793945312 28.12890625 l 2,6,7
 318.642578125 35.9775390625 318.642578125 35.9775390625 326.4921875 28.12890625 c 2,8,-1
 435.788085938 -81.1689453125 l 2,9,10
 441.236328125 -86.6171875 441.236328125 -86.6171875 435 -92.8544921875 c 2,11,-1
 323.868164062 -203.986328125 l 2,0,1
469.813476562 22.359375 m 2,12,13
 465 17.2822265625 465 17.2822265625 459.342773438 22.486328125 c 2,14,-1
 350.061523438 131.76953125 l 2,15,16
 342.266601562 139.564453125 342.266601562 139.564453125 349.5703125 147.302734375 c 2,17,-1
 456.793945312 254.52734375 l 2,18,19
 464.778320312 262.51171875 464.778320312 262.51171875 471.759765625 255.268554688 c 2,20,-1
 581.786132812 145.23046875 l 2,21,22
 587.235351562 139.78125 587.235351562 139.78125 582 134.545898438 c 2,23,-1
 469.813476562 22.359375 l 2,12,13
289.788085938 145.229492188 m 2,24,25
 295.252929688 139.764648438 295.252929688 139.764648438 289 133.514648438 c 2,26,-1
 177.787109375 22.330078125 l 2,27,28
 173.578125 18.123046875 173.578125 18.123046875 167.328125 22.501953125 c 2,29,-1
 58.0634765625 131.76953125 l 2,30,31
 50.267578125 139.565429688 50.267578125 139.565429688 57.572265625 147.302734375 c 2,32,-1
 164.795898438 254.52734375 l 2,33,34
 172.779296875 262.510742188 172.779296875 262.510742188 180.844726562 254.174804688 c 2,35,-1
 289.788085938 145.229492188 l 2,24,25
EndSplineSet
EndChar

StartChar: uni066E.fina
Encoding: 65540 -1 265
Width: 1972
VWidth: 3745
GlyphClass: 2
Flags: W
AnchorPoint: "Anchor-10" 1049.91 1792.78 basechar 0
AnchorPoint: "Anchor-7" 980.749 -375.569 basechar 0
LayerCount: 2
Fore
SplineSet
1978 0 m 2,0,-1
 1959.09960938 0 l 2,1,2
 1673 0 1673 0 1618.88574219 225.639648438 c 1,3,4
 1450 2 1450 2 825.678710938 2 c 4,5,6
 477 2 477 2 305.037109375 98.587890625 c 4,7,8
 104 210 104 210 104.243278411 454.830121045 c 4,9,10
 104 605 104 605 184.85546875 766.762695312 c 5,11,-1
 286.431640625 732.233398438 l 5,12,13
 254 613 254 613 253.690910889 523.778627448 c 4,14,15
 254 424 254 424 294.80859375 362.3515625 c 4,16,17
 418 181 418 181 828.309285256 180.650731351 c 4,18,19
 1069 181 1069 181 1194.94433594 202.255859375 c 0,20,21
 1542.48194547 260.080187503 1542.48194547 260.080187503 1596.43261719 501.4453125 c 2,22,-1
 1613.41796875 577.434570312 l 1,23,-1
 1729.76757812 564.424804688 l 1,24,-1
 1728.31738281 528.846679688 l 2,25,26
 1728 509 1728 509 1727.50287683 490.284393521 c 0,27,28
 1728 180 1728 180 1951.35351562 180 c 2,29,-1
 1978 180 l 2,30,31
 2002 180 2002 180 2002 102 c 2,32,-1
 2002 77 l 2,33,34
 2002 0 2002 0 1978 0 c 2,0,-1
EndSplineSet
EndChar

StartChar: uni06A1.fina
Encoding: 65543 -1 266
Width: 1953
VWidth: 3740
GlyphClass: 2
Flags: W
AnchorPoint: "Anchor-10" 756.262 1972.83 basechar 0
AnchorPoint: "Anchor-7" 943.447 -460.558 basechar 0
LayerCount: 2
Fore
SplineSet
829.309570312 180.650390625 m 0,0,1
 1107 181 1107 181 1308.13378906 224.9765625 c 1,2,3
 1257 264 1257 264 1207 353 c 0,4,5
 1116 516 1116 516 1241.98242188 710.364257812 c 0,6,7
 1339 859 1339 859 1481.3125 859.458007812 c 0,8,9
 1624 859 1624 859 1728.18457031 706.915039062 c 0,10,11
 1794 610 1794 610 1794.10546875 511.21484375 c 0,12,13
 1794 462 1794 462 1778.27734375 413.373046875 c 0,14,15
 1746 314 1746 314 1631.99316406 216.904296875 c 1,16,17
 1747 180 1747 180 1924.953125 180 c 2,18,-1
 1959 180 l 2,19,20
 1983 180 1983 180 1983 102 c 6,21,22
 1983 77 l 6,23,24
 1983 0 1983 0 1959 0 c 2,25,-1
 1929.36328125 0 l 2,26,27
 1647 0 1647 0 1479.5859375 118.1484375 c 1,28,29
 1269 2 1269 2 826.678710938 2 c 0,30,31
 478 2 478 2 306.037109375 98.587890625 c 0,32,33
 105 212 105 212 105.243164062 454.830078125 c 0,34,35
 105 605 105 605 185.85546875 766.762695312 c 1,36,-1
 287.431640625 732.233398438 l 1,37,38
 255 613 255 613 254.690429688 523.778320312 c 0,39,40
 255 424 255 424 295.80859375 362.3515625 c 0,41,42
 417 181 417 181 829.309570312 180.650390625 c 0,0,1
1613.11425781 566.622070312 m 0,43,44
 1548.84375 663.25390625 1548.84375 663.25390625 1478.84375 662.948242188 c 0,45,46
 1392.84375 663.25390625 1392.84375 663.25390625 1331.84765625 545.25390625 c 0,47,48
 1312.84375 508.25390625 1312.84375 508.25390625 1313.12011719 473.25390625 c 0,49,50
 1312.84375 414.25390625 1312.84375 414.25390625 1369.79003906 358.662109375 c 0,51,52
 1455.84375 274.25390625 1455.84375 274.25390625 1489.84375 275.99609375 c 0,53,54
 1522.84375 277.25390625 1522.84375 277.25390625 1587.43457031 357.25390625 c 0,55,56
 1643.84375 426.25390625 1643.84375 426.25390625 1643.82128906 482.42578125 c 0,57,58
 1643.84375 521.25390625 1643.84375 521.25390625 1613.11425781 566.622070312 c 0,43,44
EndSplineSet
EndChar

StartChar: uni06A1.init
Encoding: 65544 -1 267
Width: 832
VWidth: 3773
GlyphClass: 2
Flags: W
AnchorPoint: "Anchor-10" 487.044 2032.37 basechar 0
AnchorPoint: "Anchor-7" 404.877 -373.909 basechar 0
LayerCount: 2
Fore
SplineSet
-5 179.999023438 m 2,0,-1
 159.006835938 179.999023438 l 2,1,2
 589.300142776 180.000000682 589.300142776 180.000000682 586.27734375 397.305664062 c 2,3,-1
 586.189453125 403.624023438 l 1,4,5
 487.693025308 383.318242235 487.693025308 383.318242235 416.141871532 383.318242235 c 0,6,7
 320.689503518 383.318242235 320.689503518 383.318242235 248.365234375 412.502929688 c 0,8,9
 120 466 120 466 120.326316795 616.273724346 c 0,10,11
 120 728 120 728 155.200195312 821 c 0,12,13
 243 1052 243 1052 415.864257812 1051.99316406 c 0,14,15
 532 1052 532 1052 601.16015625 965.801757812 c 0,16,17
 726 811 726 811 731.543945312 463.743164062 c 0,18,19
 732 434 732 434 730.421875 402.600585938 c 0,20,21
 715 0 715 0 183.461914062 0 c 2,22,-1
 -5 0 l 2,23,24
 -60.3662109375 0 -60.3662109375 0 -60.3662109375 77 c 2,25,-1
 -60.3662109375 102 l 2,26,27
 -60 180 -60 180 -5 179.999023438 c 2,0,-1
407.944335938 863.416015625 m 0,28,29
 292 863 292 863 258.091796875 724.078125 c 0,30,31
 251.246181962 695.587130729 251.246181962 695.587130729 251.246181962 672.35308341 c 0,32,33
 251.246181962 595.921154624 251.246181962 595.921154624 325.328125 576.37890625 c 0,34,35
 364.083916314 566.155425754 364.083916314 566.155425754 411.077597418 566.155425754 c 0,36,37
 448.565170978 566.155425754 448.565170978 566.155425754 491.294921875 572.661132812 c 0,38,39
 552 582 552 582 585.462890625 597.76953125 c 1,40,41
 575 737 575 737 528.12109375 798.87890625 c 0,42,43
 480 863 480 863 407.944335938 863.416015625 c 0,28,29
EndSplineSet
EndChar

StartChar: uni06A1.medi
Encoding: 65545 -1 268
Width: 1007
VWidth: 3740
GlyphClass: 2
Flags: W
AnchorPoint: "Anchor-10" 485.076 1478.72 basechar 0
AnchorPoint: "Anchor-7" 458.729 -209.104 basechar 0
LayerCount: 2
Fore
SplineSet
-5 179.999023438 m 2,0,-1
 27.501953125 179.999023438 l 2,1,2
 259 180 259 180 359.62890625 222.83984375 c 1,3,4
 219 331 219 331 219.399414062 490.524414062 c 0,5,6
 220 598 220 598 288.584960938 701.963867188 c 0,7,8
 393 857 393 857 533.71875 857.45703125 c 0,9,10
 675 857 675 857 779.516601562 704.924804688 c 0,11,12
 846 608 846 608 845.4453125 509.231445312 c 0,13,14
 846 338 846 338 683.403320312 214.955078125 c 1,15,16
 784.018369358 179.993617062 784.018369358 179.993617062 977.966796875 179.999023438 c 2,17,-1
 1013 180 l 2,18,19
 1037 180 1037 180 1037 102 c 2,20,-1
 1037 77 l 2,21,22
 1037 0 1037 0 1013 0 c 2,23,-1
 983.709960938 0 l 2,24,25
 719 0 719 0 529.779296875 118.205078125 c 1,26,27
 353 0 353 0 27.548828125 0 c 2,28,-1
 -5 0 l 2,29,30
 -60.3662109375 0 -60.3662109375 0 -60.3662109375 77 c 6,31,-1
 -60.3662109375 102 l 6,32,33
 -60 180 -60 180 -5 179.999023438 c 2,0,-1
666.270507812 565.368164062 m 0,34,35
 602 662 602 662 532 661.69397133 c 0,36,37
 446 662 446 662 385.004066476 544 c 0,38,39
 366 507 366 507 366.276696048 472 c 0,40,41
 366 413 366 413 422.946289062 357.408203125 c 0,42,43
 509 273 509 273 543 274.74214661 c 0,44,45
 576 276 576 276 640.590820312 356 c 0,46,47
 697 425 697 425 696.977539062 481.171875 c 0,48,49
 697 520 697 520 666.270507812 565.368164062 c 0,34,35
EndSplineSet
EndChar

StartChar: uni066F.fina
Encoding: 65546 -1 269
Width: 1443
VWidth: 3773
GlyphClass: 2
Flags: W
AnchorPoint: "Anchor-10" 470.114 754.358 basechar 0
AnchorPoint: "Anchor-7" 391.375 -884 basechar 0
LayerCount: 2
Fore
SplineSet
677.813476562 -359.276367188 m 4,0,1
 1005 -359 1005 -359 1123.14648438 -160.129882812 c 0,2,3
 1155 -106 1155 -106 1159.04101562 1.642578125 c 1,4,-1
 1024 1.642578125 l 2,5,6
 824 2 824 2 759.319335938 72.2490234375 c 0,7,8
 692.399931679 145.468277558 692.399931679 145.468277558 691.3671875 260.943359375 c 0,9,10
 691 302 691 302 698.293945312 346.306640625 c 0,11,12
 715 448 715 448 749.12109375 517.642578125 c 0,13,14
 837 699 837 699 993.338867188 699.430664062 c 0,15,16
 1294 699 1294 699 1303.3515625 180 c 1,17,-1
 1449 180 l 2,18,19
 1473 180 1473 180 1473 102 c 2,20,-1
 1473 77 l 2,21,22
 1473 0 1473 0 1449 0 c 2,23,-1
 1301.35351562 0 l 1,24,25
 1257 -536 1257 -536 670.965820312 -538.86328125 c 24,26,27
 457.107608722 -538.537328701 457.107608722 -538.537328701 312 -447.248046875 c 0,28,29
 112 -321 112 -321 111.665039062 -35.0888671875 c 0,30,31
 112 169 112 169 209.79296875 384.94140625 c 1,32,-1
 320.0546875 352.40234375 l 1,33,34
 263 165 263 165 262.880859375 13.18359375 c 0,35,36
 263 -359 263 -359 677.813476562 -359.276367188 c 4,0,1
1166.62109375 182.198242188 m 1,37,38
 1152 371 1152 371 1098.13964844 449.642578125 c 0,39,40
 1055 512 1055 512 983.872070312 512.384765625 c 0,41,42
 894 512 894 512 857.75 400.840820312 c 0,43,44
 837 338 837 338 837.118164062 293.83984375 c 0,45,46
 837 215 837 215 901.022460938 191.908203125 c 0,47,48
 933 180 933 180 1054.28417969 180.315429688 c 0,49,50
 1103 180 1103 180 1166.62109375 182.198242188 c 1,37,38
EndSplineSet
EndChar

StartChar: arabic_gaf_bar
Encoding: 65550 -1 270
Width: 788
VWidth: 3131
GlyphClass: 2
Flags: W
LayerCount: 2
Fore
SplineSet
772.499023438 2081 m 2,0,-1
 755.013671875 1989.16601562 l 1,1,-1
 40.84375 1735.89257812 l 1,2,-1
 62 1849 l 5,3,-1
 756 2100.34082031 l 2,4,5
 778 2108 778 2108 772.499023438 2081 c 2,0,-1
EndSplineSet
EndChar

StartChar: guillemotleft
Encoding: 171 171 279
Width: 1316
VWidth: 3378
Flags: W
LayerCount: 2
Fore
SplineSet
488.756835938 2.0810546875 m 5,0,1
 154 464 154 464 154.20703125 505.755859375 c 4,2,3
 154 548 154 548 488.721679688 1009.74511719 c 5,4,-1
 676.290039062 1009.74511719 l 5,5,-1
 647.606445312 968.389648438 l 6,6,7
 363 558 363 558 363.396484375 505.1171875 c 4,8,9
 363.000563229 452.075456061 363.000563229 452.075456061 647.548828125 43.4794921875 c 6,10,-1
 676.37890625 2.0810546875 l 5,11,-1
 488.756835938 2.0810546875 l 5,0,1
969.298828125 2.080078125 m 5,12,13
 636 463 636 463 635.784179688 505.505859375 c 4,14,15
 636 547 636 547 969.262695312 1009.74511719 c 5,16,-1
 1156.828125 1009.74511719 l 5,17,-1
 1128.14160156 968.390625 l 6,18,19
 844 559 844 559 843.872070312 505.326171875 c 4,20,21
 844.0011674 451.51338142 844.0011674 451.51338142 1127.65136719 44.109375 c 6,22,-1
 1156.91308594 2.0810546875 l 5,23,-1
 969.298828125 2.080078125 l 5,12,13
EndSplineSet
EndChar

StartChar: guillemotright
Encoding: 187 187 280
Width: 1316
VWidth: 3378
Flags: W
LayerCount: 2
Fore
SplineSet
827.36328125 2.0810546875 m 5,0,1
 639.741210938 2.0810546875 l 5,2,-1
 668.571289062 43.4794921875 l 6,3,4
 953.119140625 452.075195312 953.119140625 452.075195312 952.723632812 505.1171875 c 4,5,6
 953.120117188 558 953.120117188 558 668.513671875 968.389648438 c 6,7,-1
 639.830078125 1009.74511719 l 5,8,-1
 827.3984375 1009.74511719 l 5,9,10
 1162.12011719 548 1162.12011719 548 1161.91308594 505.755859375 c 4,11,12
 1162.12011719 464 1162.12011719 464 827.36328125 2.0810546875 c 5,0,1
346.821289062 2.080078125 m 5,13,-1
 159.20703125 2.0810546875 l 5,14,-1
 188.46875 44.109375 l 6,15,16
 472.119140625 451.513671875 472.119140625 451.513671875 472.248046875 505.326171875 c 4,17,18
 472.120117188 559 472.120117188 559 187.978515625 968.390625 c 6,19,-1
 159.291992188 1009.74511719 l 5,20,-1
 346.857421875 1009.74511719 l 5,21,22
 680.120117188 547 680.120117188 547 680.3359375 505.505859375 c 4,23,24
 680.120117188 463 680.120117188 463 346.821289062 2.080078125 c 5,13,-1
EndSplineSet
EndChar

StartChar: exclam
Encoding: 33 33 289
Width: 676
VWidth: -1
Flags: W
LayerCount: 2
Fore
SplineSet
200 158.837890625 m 128,-1,1
 200 215.537109375 200 215.537109375 240.5 256.037109375 c 128,-1,2
 281 296.537109375 281 296.537109375 337.700195312 296.537109375 c 128,-1,3
 394.400390625 296.537109375 394.400390625 296.537109375 435.912109375 257.049804688 c 0,4,5
 475.400390625 215.537109375 475.400390625 215.537109375 475.400390625 158.837890625 c 128,-1,6
 475.400390625 102.137695312 475.400390625 102.137695312 434.900390625 61.6376953125 c 128,-1,7
 394.400390625 21.1376953125 394.400390625 21.1376953125 337.700195312 21.1376953125 c 128,-1,8
 281 21.1376953125 281 21.1376953125 240.5 61.6376953125 c 128,-1,0
 200 102.137695312 200 102.137695312 200 158.837890625 c 128,-1,1
345.767578125 1444.90722656 m 5,9,-1
 358.110351562 1444.54785156 l 6,10,11
 454.067579243 1441.99820437 454.067579243 1441.99820437 444.993164062 1298.71875 c 6,12,-1
 396.88671875 539.147460938 l 2,13,14
 395 516 395 516 341.177734375 515.6640625 c 0,15,16
 278.847572743 516.000823543 278.847572743 516.000823543 277.04296875 540.154296875 c 2,17,-1
 220.389648438 1298.42285156 l 6,18,19
 220 1310 220 1310 219.446289062 1321.57421875 c 4,20,21
 218.001087108 1444.90722656 218.001087108 1444.90722656 317.345703125 1444.90722656 c 6,22,-1
 345.767578125 1444.90722656 l 5,9,-1
EndSplineSet
EndChar

StartChar: period
Encoding: 46 46 290
Width: 676
VWidth: 3384
Flags: W
LayerCount: 2
Fore
SplineSet
200 158.837890625 m 132,-1,1
 200 215.537109375 200 215.537109375 240.5 256.037109375 c 132,-1,2
 281 296.537109375 281 296.537109375 337.700195312 296.537109375 c 132,-1,3
 394.400390625 296.537109375 394.400390625 296.537109375 435.912109375 257.049804688 c 4,4,5
 475.400390625 215.537109375 475.400390625 215.537109375 475.400390625 158.837890625 c 132,-1,6
 475.400390625 102.137695312 475.400390625 102.137695312 434.900390625 61.6376953125 c 132,-1,7
 394.400390625 21.1376953125 394.400390625 21.1376953125 337.700195312 21.1376953125 c 132,-1,8
 281 21.1376953125 281 21.1376953125 240.5 61.6376953125 c 132,-1,0
 200 102.137695312 200 102.137695312 200 158.837890625 c 132,-1,1
EndSplineSet
EndChar

StartChar: colon
Encoding: 58 58 291
Width: 676
VWidth: 3384
Flags: W
LayerCount: 2
Fore
SplineSet
200 878.837890625 m 132,-1,1
 200 935.537109375 200 935.537109375 240.5 976.037109375 c 132,-1,2
 281 1016.53710938 281 1016.53710938 337.700195312 1016.53710938 c 132,-1,3
 394.400390625 1016.53710938 394.400390625 1016.53710938 435.912109375 977.049804688 c 4,4,5
 475.400390625 935.537109375 475.400390625 935.537109375 475.400390625 878.837890625 c 132,-1,6
 475.400390625 822.137695312 475.400390625 822.137695312 434.900390625 781.637695312 c 132,-1,7
 394.400390625 741.137695312 394.400390625 741.137695312 337.700195312 741.137695312 c 132,-1,8
 281 741.137695312 281 741.137695312 240.5 781.637695312 c 132,-1,0
 200 822.137695312 200 822.137695312 200 878.837890625 c 132,-1,1
200 158.837890625 m 128,-1,10
 200 215.537109375 200 215.537109375 240.5 256.037109375 c 128,-1,11
 281 296.537109375 281 296.537109375 337.700195312 296.537109375 c 128,-1,12
 394.400390625 296.537109375 394.400390625 296.537109375 435.912109375 257.049804688 c 0,13,14
 475.400390625 215.537109375 475.400390625 215.537109375 475.400390625 158.837890625 c 128,-1,15
 475.400390625 102.137695312 475.400390625 102.137695312 434.900390625 61.6376953125 c 128,-1,16
 394.400390625 21.1376953125 394.400390625 21.1376953125 337.700195312 21.1376953125 c 128,-1,17
 281 21.1376953125 281 21.1376953125 240.5 61.6376953125 c 128,-1,9
 200 102.137695312 200 102.137695312 200 158.837890625 c 128,-1,10
EndSplineSet
EndChar

StartChar: uniFDFC
Encoding: 65020 65020 292
Width: 2645
VWidth: 3744
Flags: W
LayerCount: 2
Fore
SplineSet
2338 648 m 2,0,1
 2356.83496094 674.202148438 2356.83496094 674.202148438 2384 641 c 0,2,3
 2413 605 2413 605 2454.73144531 499.602539062 c 0,4,5
 2495 397 2495 397 2494.38867188 265 c 0,6,7
 2494 64 2494 64 2391 -68 c 0,8,9
 2235.26269531 -266.622070312 2235.26269531 -266.622070312 1973.02539062 -349.819335938 c 0,10,11
 1963 -353 1963 -353 1952.50976562 -341.598632812 c 0,12,13
 1884 -266 1884 -266 1865.29101562 -221.068359375 c 0,14,15
 1860 -208 1860 -208 1878.6328125 -202.447265625 c 0,16,17
 2102 -138 2102 -138 2213 -31 c 128,-1,18
 2324 76 2324 76 2350 180 c 128,-1,19
 2376 284 2376 284 2249.51855469 524.911132812 c 1,20,-1
 2338 648 l 2,0,1
1594.25390625 265.1171875 m 1,21,-1
 1743.70214844 115.669921875 l 1,22,-1
 1594.25390625 -33.7802734375 l 1,23,-1
 1444.80566406 115.669921875 l 1,24,-1
 1594.25390625 265.1171875 l 1,21,-1
1911.78125 265.1171875 m 1,25,-1
 2061.22949219 115.669921875 l 1,26,-1
 1911.78125 -33.78125 l 1,27,-1
 1762.33398438 115.669921875 l 1,28,-1
 1911.78125 265.1171875 l 1,25,-1
1117.85644531 384.076171875 m 0,29,30
 1113 -196 1113 -196 615.8515625 -195.990234375 c 0,31,32
 414 -196 414 -196 291 -103.764648438 c 0,33,34
 134 13 134 13 130.649414062 264 c 0,35,36
 128 464 128 464 235.491210938 699.673828125 c 1,37,-1
 335.701171875 666.984375 l 1,38,39
 274.356715687 467.392567704 274.356715687 467.392567704 274.059113189 327 c 0,40,41
 273.746897211 179.713592624 273.746897211 179.713592624 340.624023438 97.5830078125 c 0,42,43
 429 -11 429 -11 636 -9 c 128,-1,44
 843 -7 843 -7 930.3203125 135.333984375 c 0,45,46
 963 189 963 189 961.3828125 288.577148438 c 0,47,48
 943 1165 943 1165 913.119140625 1348.56152344 c 1,49,-1
 1045 1438 l 2,50,51
 1092.00390625 1469.87695312 1092.00390625 1469.87695312 1094 1403 c 2,52,-1
 1107.91796875 844.264648438 l 2,53,54
 1117.99902344 439.567382812 1117.99902344 439.567382812 1117.85644531 384.076171875 c 0,29,30
1342.32714844 844.349609375 m 1,55,56
 1357 1220 1357 1220 1325.03417969 1362.28417969 c 1,57,-1
 1467 1455 l 2,58,59
 1496 1474 1496 1474 1500 1421 c 0,60,61
 1505 1335 1505 1335 1498.5 1138 c 128,-1,62
 1492 941 1492 941 1496 812.5 c 128,-1,63
 1500 684 1500 684 1531.390625 637.6640625 c 128,-1,64
 1562.77734375 591.329101562 1562.77734375 591.329101562 1705.62304688 591.329101562 c 2,65,-1
 1755.12402344 591.329101562 l 2,66,67
 1893 591 1893 591 1925.1796875 647.83203125 c 0,68,69
 1940 675 1940 675 1931 723 c 0,70,71
 1916 801 1916 801 1864.22070312 920.741210938 c 1,72,-1
 1965 1036 l 2,73,74
 2000 1076 2000 1076 2022.06738281 1002.79003906 c 0,75,76
 2094 759 2094 759 2042.99121094 606.72265625 c 0,77,78
 1977.11132812 411.330078125 1977.11132812 411.330078125 1738.01660156 411.330078125 c 2,79,-1
 1655.21191406 411.330078125 l 2,80,81
 1460 411 1460 411 1393.5 533.5 c 0,82,83
 1343 626 1343 626 1342.32714844 844.349609375 c 1,55,56
EndSplineSet
EndChar

StartChar: uniFD3E
Encoding: 64830 64830 294
Width: 1480
VWidth: 3
Flags: W
LayerCount: 2
Fore
SplineSet
579.641601562 651.709960938 m 0,0,1
 577.51171875 726.267578125 577.51171875 726.267578125 632.8984375 781.65234375 c 128,-1,2
 688.283203125 837.0390625 688.283203125 837.0390625 764.971679688 837.0390625 c 128,-1,3
 841.659179688 837.0390625 841.659179688 837.0390625 897.044921875 781.65234375 c 128,-1,4
 952.430664062 726.267578125 952.430664062 726.267578125 950.299804688 651.709960938 c 0,5,6
 952.430664062 577.153320312 952.430664062 577.153320312 897.044921875 521.766601562 c 128,-1,7
 841.659179688 466.380859375 841.659179688 466.380859375 764.971679688 466.380859375 c 128,-1,8
 688.283203125 466.380859375 688.283203125 466.380859375 632.8984375 521.766601562 c 128,-1,9
 577.51171875 577.153320312 577.51171875 577.153320312 579.641601562 651.709960938 c 0,0,1
688.919921875 651.66015625 m 0,10,11
 688 619 688 619 712.459960938 594.223632812 c 0,12,13
 737 570 737 570 770.837890625 569.7421875 c 0,14,15
 805 570 805 570 829.216796875 594.223632812 c 0,16,17
 851.759765625 616.760742188 851.759765625 616.760742188 852.756835938 651.66015625 c 0,18,19
 854 685 854 685 829.216796875 709.096679688 c 0,20,21
 805 734 805 734 770.837890625 733.578125 c 0,22,23
 737 734 737 734 712.459960938 709.096679688 c 0,24,25
 690 687 690 687 688.919921875 651.66015625 c 0,10,11
1245.04882812 239.635742188 m 2,26,27
 1244.11520941 182.643554687 1244.11520941 182.643554687 1188.04882812 182.643554688 c 2,28,-1
 964.252929688 182.643554688 l 1,29,-1
 960.485351562 178.874023438 l 1,30,31
 1040.96972656 -253.350585938 1040.96972656 -253.350585938 1252.41796875 -422.350585938 c 0,32,33
 1307.24622779 -466.021419627 1307.24622779 -466.021419627 1200.98632812 -521.557617188 c 1,34,35
 728.480414222 -381.350497722 728.480414222 -381.350497722 604.09375 145.0234375 c 1,36,-1
 567.142578125 182.643554688 l 1,37,-1
 343.361328125 182.643554688 l 2,38,39
 309.65982652 182.007825384 309.65982652 182.007825384 292.188476562 215.84765625 c 0,40,41
 286.352539062 227.155030117 286.352539062 227.155030117 286.352539062 239.643554688 c 2,42,-1
 286.352539062 463.44140625 l 1,43,-1
 128.112304688 621.678710938 l 2,44,45
 117.499023438 631.805664062 117.499023438 631.805664062 111.51171875 655.760742188 c 128,-1,46
 105.524414062 679.715820312 105.524414062 679.715820312 128.104492188 702.297851562 c 2,47,-1
 286.352539062 860.544921875 l 1,48,-1
 286.352539062 1084.33105469 l 2,49,50
 285.754882812 1111.88867188 285.754882812 1111.88867188 300.592285156 1122.35644531 c 0,51,52
 327.502812161 1141.34179688 327.502812161 1141.34179688 343.3515625 1141.34179688 c 2,53,-1
 567.1484375 1141.34179688 l 1,54,-1
 592.115234375 1166.31054688 l 1,55,56
 709.580015042 1753.43908259 709.580015042 1753.43908259 1200.59960938 1898.3125 c 0,57,58
 1237.89355469 1909.26367188 1237.89355469 1909.26367188 1254.78710938 1870.16894531 c 0,59,60
 1263.80012728 1848.8227361 1263.80012728 1848.8227361 1255.1796875 1801.59570312 c 1,61,62
 1035.1999438 1600.59460398 1035.1999438 1600.59460398 957.138671875 1148.45703125 c 1,63,-1
 964.25390625 1141.34179688 l 1,64,-1
 1188.22070312 1141.34179688 l 1,65,66
 1245.04882812 1134.79543428 1245.04882812 1134.79543428 1245.04882812 1084.34179688 c 2,67,-1
 1245.04882812 239.635742188 l 2,26,27
711.333984375 187.225585938 m 0,68,69
 779.079101562 -116.46484375 779.079101562 -116.46484375 1009.91894531 -301.510742188 c 1,70,71
 883.00390625 -64.1083984375 883.00390625 -64.1083984375 842.994140625 188.545898438 c 0,72,73
 838.358398438 217.970703125 838.358398438 217.970703125 858.870117188 238.48046875 c 2,74,-1
 900.34375 279.954101562 l 2,75,76
 917.301363854 296.642578125 917.301363854 296.642578125 940.643554688 296.642578125 c 2,77,-1
 1131.04882812 296.642578125 l 1,78,-1
 1131.04882812 1027.34277344 l 1,79,-1
 940.649414062 1027.34277344 l 2,80,81
 917.31640625 1027.05957031 917.31640625 1027.05957031 900.337890625 1044.03710938 c 2,82,-1
 855.83203125 1088.54492188 l 2,83,84
 835.192382812 1108.7734375 835.192382812 1108.7734375 839.84765625 1137.84960938 c 0,85,86
 888.05929509 1439.19289852 888.05929509 1439.19289852 1022.93554688 1687.14257812 c 1,87,88
 771.803710938 1491.68847656 771.803710938 1491.68847656 700.795898438 1127.83691406 c 0,89,90
 697.365906605 1110.33953942 697.365906605 1110.33953942 685.081054688 1098.0546875 c 2,91,-1
 631.0703125 1044.04492188 l 2,92,93
 615.091950052 1027.34277344 615.091950052 1027.34277344 590.7578125 1027.34277344 c 2,94,-1
 400.3515625 1027.34277344 l 1,95,-1
 400.3515625 836.926757812 l 2,96,97
 399.91960523 812.889317479 399.91960523 812.889317479 383.65625 796.630859375 c 2,98,-1
 249.018554688 661.993164062 l 1,99,-1
 383.655273438 527.356445312 l 2,100,101
 400.3515625 510.727539062 400.3515625 510.727539062 400.3515625 487.05078125 c 2,102,-1
 400.3515625 296.642578125 l 1,103,-1
 590.765625 296.642578125 l 2,104,105
 614.750751746 296.258031308 614.750751746 296.258031308 631.0625 279.948242188 c 2,106,-1
 696.038085938 214.974609375 l 2,107,108
 708.114257812 202.9609375 708.114257812 202.9609375 711.333984375 187.225585938 c 0,68,69
EndSplineSet
EndChar

StartChar: uniFD3F
Encoding: 64831 64831 295
Width: 1480
VWidth: 3
Flags: W
LayerCount: 2
Fore
SplineSet
524.641601562 651.709960938 m 4,0,1
 522.51171875 726.267578125 522.51171875 726.267578125 577.8984375 781.65234375 c 132,-1,2
 633.283203125 837.0390625 633.283203125 837.0390625 709.971679688 837.0390625 c 132,-1,3
 786.659179688 837.0390625 786.659179688 837.0390625 842.044921875 781.65234375 c 132,-1,4
 897.430664062 726.267578125 897.430664062 726.267578125 895.299804688 651.709960938 c 4,5,6
 897.430664062 577.153320312 897.430664062 577.153320312 842.044921875 521.766601562 c 132,-1,7
 786.659179688 466.380859375 786.659179688 466.380859375 709.971679688 466.380859375 c 132,-1,8
 633.283203125 466.380859375 633.283203125 466.380859375 577.8984375 521.766601562 c 132,-1,9
 522.51171875 577.153320312 522.51171875 577.153320312 524.641601562 651.709960938 c 4,0,1
633.919921875 651.66015625 m 4,10,11
 633 619 633 619 657.459960938 594.223632812 c 4,12,13
 682 570 682 570 715.837890625 569.7421875 c 4,14,15
 750 570 750 570 774.216796875 594.223632812 c 4,16,17
 796.759880134 616.760498026 796.759880134 616.760498026 797.756835938 651.66015625 c 4,18,19
 799 685 799 685 774.216796875 709.096679688 c 4,20,21
 750 734 750 734 715.837890625 733.578125 c 4,22,23
 682 734 682 734 657.459960938 709.096679688 c 4,24,25
 635 687 635 687 633.919921875 651.66015625 c 4,10,11
279.209960938 -521.559570312 m 1,26,27
 174.24269571 -465.909871694 174.24269571 -465.909871694 227.77734375 -422.35546875 c 0,28,29
 439.63671875 -251.1640625 439.63671875 -251.1640625 519.715820312 178.875 c 1,30,-1
 515.947265625 182.643554688 l 1,31,-1
 292.16015625 182.643554688 l 2,32,33
 255.146638501 182.049197142 255.146638501 182.049197142 239.247070312 219.541015625 c 0,34,35
 235.15234375 229.198463455 235.15234375 229.198463455 235.15234375 239.643554688 c 2,36,-1
 235.15234375 1084.33300781 l 2,37,38
 234.723632812 1108.50390625 234.723632812 1108.50390625 253.361328125 1124.95117188 c 128,-1,39
 271.9375 1141.34179688 271.9375 1141.34179688 292.15234375 1141.34179688 c 2,40,-1
 515.948242188 1141.34179688 l 1,41,-1
 523.0625 1148.45507812 l 1,42,43
 445.1050165 1601.38881866 445.1050165 1601.38881866 225.020507812 1801.59472656 c 1,44,45
 216.668864323 1848.69251936 216.668864323 1848.69251936 229.649373568 1878.97956046 c 128,-1,46
 242.629882812 1909.26660156 242.629882812 1909.26660156 279.610351562 1898.30957031 c 0,47,48
 771.368164062 1749.04882812 771.368164062 1749.04882812 887.970703125 1166.890625 c 1,49,-1
 913.068359375 1141.34179688 l 1,50,-1
 1136.85546875 1141.34179688 l 2,51,52
 1160.97265625 1141.05566406 1160.97265625 1141.05566406 1177.52539062 1122.90234375 c 0,53,54
 1193.84863281 1103.78417969 1193.84863281 1103.78417969 1193.84863281 1084.34179688 c 2,55,-1
 1193.84863281 860.544921875 l 1,56,-1
 1352.09570312 702.299804688 l 2,57,58
 1374.90820312 679.625976562 1374.90820312 679.625976562 1370.45654297 661.9453125 c 0,59,60
 1363.08738834 632.67723209 1363.08738834 632.67723209 1352.09765625 621.6875 c 2,61,-1
 1193.84863281 463.44140625 l 1,62,-1
 1193.84863281 239.63671875 l 2,63,64
 1193.35449219 202.328125 1193.35449219 202.328125 1156.57324219 186.725585938 c 0,65,66
 1146.94529234 182.643554688 1146.94529234 182.643554688 1136.84960938 182.643554688 c 2,67,-1
 913.059570312 182.643554688 l 1,68,-1
 876.106445312 145.0234375 l 1,69,70
 752.179956683 -380.764580492 752.179956683 -380.764580492 279.209960938 -521.559570312 c 1,26,27
470.313476562 -301.490234375 m 1,71,72
 701.428710938 -116.459960938 701.428710938 -116.459960938 768.87109375 187.236328125 c 0,73,74
 772.492687544 203.304210982 772.492687544 203.304210982 784.161132812 214.97265625 c 2,75,-1
 849.14453125 279.954101562 l 2,76,77
 866.102539062 296.642578125 866.102539062 296.642578125 889.443359375 296.642578125 c 2,78,-1
 1079.84960938 296.642578125 l 1,79,-1
 1079.84960938 487.043945312 l 2,80,81
 1079.53106919 510.34456986 1079.53106919 510.34456986 1096.54492188 527.35546875 c 2,82,-1
 1231.18261719 661.993164062 l 1,83,-1
 1096.54882812 796.626953125 l 2,84,85
 1079.84960938 812.924804688 1079.84960938 812.924804688 1079.84960938 836.935546875 c 2,86,-1
 1079.84960938 1027.34277344 l 1,87,-1
 889.44921875 1027.34277344 l 2,88,89
 866.116119232 1027.05966202 866.116119232 1027.05966202 849.138671875 1044.03710938 c 2,90,-1
 795.026367188 1098.14941406 l 1,91,92
 783.131011729 1112.37276229 783.131011729 1112.37276229 779.385742188 1127.94238281 c 0,93,94
 709.102735737 1497.07122473 709.102735737 1497.07122473 457.138671875 1687.37109375 c 1,95,96
 584.532833114 1451.2592705 584.532833114 1451.2592705 640.350585938 1137.86621094 c 0,97,98
 645.388911982 1109.56666285 645.388911982 1109.56666285 624.373046875 1088.54882812 c 2,99,-1
 579.870117188 1044.04492188 l 2,100,101
 563.895507812 1027.34277344 563.895507812 1027.34277344 539.557617188 1027.34277344 c 2,102,-1
 349.15234375 1027.34277344 l 1,103,-1
 349.15234375 296.642578125 l 1,104,-1
 539.565429688 296.642578125 l 2,105,106
 563.548844859 296.261702016 563.548844859 296.261702016 579.862304688 279.948242188 c 2,107,-1
 621.330078125 238.481445312 l 2,108,109
 642.134765625 217.743164062 642.134765625 217.743164062 637.204101562 188.53125 c 0,110,111
 591.569335938 -75.58203125 591.569335938 -75.58203125 470.313476562 -301.490234375 c 1,71,72
EndSplineSet
EndChar

StartChar: NameMe.303
Encoding: 65562 -1 296
Width: 556
VWidth: 3705
Flags: W
AnchorPoint: "Anchor-10" 254.76 1461.69 basechar 0
AnchorPoint: "Anchor-7" 210.877 -259.762 basechar 0
LayerCount: 2
Fore
SplineSet
-5 179.999023438 m 2,0,-1
 16.552734375 179.999023438 l 2,1,2
 118 180 118 180 178 207.721359611 c 0,3,4
 257 244 257 244 263.281783257 367 c 0,5,6
 266 415 266 415 265.431616225 485 c 0,7,8
 265 563 265 563 258.478515625 672.23046875 c 0,9,10
 242 960 242 960 208 1332 c 5,11,-1
 344 1396 l 6,12,13
 384.870507268 1414.93999117 384.870507268 1414.93999117 386 1376 c 6,14,-1
 410.239257812 540.3359375 l 2,15,16
 418 268 418 268 365.708007812 163.354492188 c 0,17,18
 285 0 285 0 10.892578125 0 c 2,19,-1
 -5 0 l 2,20,21
 -60.3662109375 0 -60.3662109375 0 -60.3662109375 77 c 2,22,-1
 -60.3662109375 102 l 2,23,24
 -60 180 -60 180 -5 179.999023438 c 2,0,-1
EndSplineSet
EndChar

StartChar: NameMe.304
Encoding: 65563 -1 297
Width: 635
VWidth: 3705
Flags: W
LayerCount: 2
Fore
SplineSet
-5 179.999023438 m 2,0,-1
 29.7001953125 179.999023438 l 2,1,2
 226 180 226 180 248.876266593 346 c 0,3,4
 256 397 256 397 253.025390625 477.5234375 c 0,5,6
 241.757763746 801.975202588 241.757763746 801.975202588 219.874023438 1110.28417969 c 2,7,-1
 219.763671875 1111.83886719 l 1,8,-1
 361 1206.42147193 l 2,9,10
 397.9765625 1230.98443083 397.9765625 1230.98443083 397.9765625 1183 c 2,11,-1
 397.9765625 393.450195312 l 2,12,13
 398.000000537 179.995107024 398.000000537 179.995107024 592.500976562 179.999023438 c 2,14,-1
 641 180 l 2,15,16
 665 180 665 180 665 102 c 2,17,-1
 665 77 l 2,18,19
 665 0 665 0 641 0 c 2,20,-1
 596.202148438 0 l 6,21,22
 413 0 413 0 316.796875 138.439453125 c 1,23,24
 221 0 221 0 26.501953125 0 c 2,25,-1
 -5 0 l 2,26,27
 -60.3662109375 0 -60.3662109375 0 -60.3662109375 77 c 2,28,-1
 -60.3662109375 102 l 2,29,30
 -60 180 -60 180 -5 179.999023438 c 2,0,-1
EndSplineSet
EndChar

StartChar: NameMe.306
Encoding: 65566 -1 299
Width: 559
VWidth: 3705
Flags: W
LayerCount: 2
Fore
SplineSet
565 0 m 2,0,-1
 510.934570312 0 l 2,1,2
 180 0 180 0 168 347 c 24,3,4
 167.154736951 508.070346921 167.154736951 508.070346921 159 803 c 24,5,6
 153 1006 153 1006 127.987304688 1251.0390625 c 5,7,-1
 249 1336 l 6,8,9
 290 1365 290 1365 294 1302 c 5,10,11
 307 1202 307 1202 312.779296875 472.400390625 c 0,12,13
 314 297 314 297 355.942382812 240.354492188 c 0,14,15
 401.002434379 179.996739159 401.002434379 179.996739159 515.885742188 179.999023438 c 2,16,-1
 565 180 l 2,17,18
 589 180 589 180 589 102 c 2,19,-1
 589 77 l 2,20,21
 589 0 589 0 565 0 c 2,0,-1
EndSplineSet
EndChar

StartChar: uni06C1
Encoding: 1729 1729 300
Width: 992
VWidth: 2424
Flags: W
AnchorPoint: "Anchor-7" 420.886 -224.499 basechar 0
AnchorPoint: "Anchor-10" 539.369 1109.95 basechar 0
LayerCount: 2
Fore
SplineSet
93.4287109375 -37.748046875 m 1,0,1
 180 198 180 198 273.307617188 336.337890625 c 0,2,3
 367 475 367 475 445.051757812 533.932617188 c 128,-1,4
 523 593 523 593 602.810546875 597.865234375 c 0,5,6
 759 607 759 607 763.122070312 475.3828125 c 0,7,8
 766 390 766 390 784.286132812 278.19921875 c 0,9,10
 799.992766238 181.044744935 799.992766238 181.044744935 926.271484375 181.012695312 c 2,11,-1
 1003.2265625 180.993164062 l 1,12,-1
 1003.2265625 0 l 1,13,-1
 902.953125 0 l 2,14,15
 630 0 630 0 621.489257812 303.450195312 c 0,16,17
 619 401 619 401 610.649414062 415 c 0,18,19
 597 439 597 439 560.749865157 422 c 0,20,21
 469 380 469 380 355.046875 153.712890625 c 0,22,23
 263 -30 263 -30 233.357421875 -110.423828125 c 1,24,-1
 93.4287109375 -37.748046875 l 1,0,1
EndSplineSet
EndChar

StartChar: NameMe.65567
Encoding: 65567 -1 304
Width: 678
VWidth: 3745
Flags: W
LayerCount: 2
Fore
SplineSet
107.376953125 -35.0341796875 m 5,0,1
 169.2578125 -64.982421875 169.2578125 -64.982421875 251.616210938 -64.3681640625 c 4,2,3
 406.380859375 -63.0390625 406.380859375 -63.0390625 472.666015625 13.93359375 c 4,4,5
 497.170898438 42.70703125 497.170898438 42.70703125 467.2109375 59.427734375 c 4,6,7
 435.793945312 76.9619140625 435.793945312 76.9619140625 351.474609375 100.6015625 c 4,8,9
 265.4921875 124.239257812 265.4921875 124.239257812 297.475585938 232.400390625 c 4,10,11
 340.796875 376.446289062 340.796875 376.446289062 470.557617188 429.600585938 c 4,12,13
 541.537109375 458.614257812 541.537109375 458.614257812 625.641601562 432.522460938 c 5,14,15
 621.888671875 393.357421875 621.888671875 393.357421875 603.754882812 317.1484375 c 5,16,-1
 572.502929688 318.665039062 l 6,17,18
 481.236328125 323.09375 481.236328125 323.09375 425.071289062 266.928710938 c 4,19,20
 395.37109375 237.228515625 395.37109375 237.228515625 384.728515625 212.9375 c 5,21,-1
 514.37890625 169.752929688 l 6,22,23
 574.083007812 149.8671875 574.083007812 149.8671875 573.537109375 75.2333984375 c 132,-1,24
 572.991210938 0.6005859375 572.991210938 0.6005859375 527.80078125 -58.435546875 c 4,25,26
 438.94921875 -175.002929688 438.94921875 -175.002929688 248.9921875 -174.874023438 c 4,27,28
 147.037109375 -175.002929688 147.037109375 -175.002929688 68.328125 -142.765625 c 5,29,-1
 107.376953125 -35.0341796875 l 5,0,1
EndSplineSet
EndChar
